<?xml version="1.0" encoding="utf-8" standalone="no"?>
<!DOCTYPE svg PUBLIC "-//W3C//DTD SVG 1.1//EN"
  "http://www.w3.org/Graphics/SVG/1.1/DTD/svg11.dtd">
<!-- Created with matplotlib (https://matplotlib.org/) -->
<svg height="288pt" version="1.1" viewBox="0 0 576 288" width="576pt" xmlns="http://www.w3.org/2000/svg" xmlns:xlink="http://www.w3.org/1999/xlink">
 <defs>
  <style type="text/css">
*{stroke-linecap:butt;stroke-linejoin:round;}
  </style>
 </defs>
 <g id="figure_1">
  <g id="patch_1">
   <path d="M 0 288 
L 576 288 
L 576 0 
L 0 0 
z
" style="fill:#ffffff;"/>
  </g>
  <g id="axes_1">
   <g id="patch_2">
    <path d="M 72 256.32 
L 518.4 256.32 
L 518.4 34.56 
L 72 34.56 
z
" style="fill:#ffffff;"/>
   </g>
   <g id="matplotlib.axis_1">
    <g id="xtick_1">
     <g id="line2d_1">
      <defs>
       <path d="M 0 0 
L 0 3.5 
" id="m6bed57b81b" style="stroke:#000000;stroke-width:0.8;"/>
      </defs>
      <g>
       <use style="stroke:#000000;stroke-width:0.8;" x="92.290909" xlink:href="#m6bed57b81b" y="256.32"/>
      </g>
     </g>
     <g id="text_1">
      <!-- 0 -->
      <defs>
       <path d="M 31.78125 66.40625 
Q 24.171875 66.40625 20.328125 58.90625 
Q 16.5 51.421875 16.5 36.375 
Q 16.5 21.390625 20.328125 13.890625 
Q 24.171875 6.390625 31.78125 6.390625 
Q 39.453125 6.390625 43.28125 13.890625 
Q 47.125 21.390625 47.125 36.375 
Q 47.125 51.421875 43.28125 58.90625 
Q 39.453125 66.40625 31.78125 66.40625 
z
M 31.78125 74.21875 
Q 44.046875 74.21875 50.515625 64.515625 
Q 56.984375 54.828125 56.984375 36.375 
Q 56.984375 17.96875 50.515625 8.265625 
Q 44.046875 -1.421875 31.78125 -1.421875 
Q 19.53125 -1.421875 13.0625 8.265625 
Q 6.59375 17.96875 6.59375 36.375 
Q 6.59375 54.828125 13.0625 64.515625 
Q 19.53125 74.21875 31.78125 74.21875 
z
" id="DejaVuSans-48"/>
      </defs>
      <g transform="translate(89.109659 270.918437)scale(0.1 -0.1)">
       <use xlink:href="#DejaVuSans-48"/>
      </g>
     </g>
    </g>
    <g id="xtick_2">
     <g id="line2d_2">
      <g>
       <use style="stroke:#000000;stroke-width:0.8;" x="173.470781" xlink:href="#m6bed57b81b" y="256.32"/>
      </g>
     </g>
     <g id="text_2">
      <!-- 1000 -->
      <defs>
       <path d="M 12.40625 8.296875 
L 28.515625 8.296875 
L 28.515625 63.921875 
L 10.984375 60.40625 
L 10.984375 69.390625 
L 28.421875 72.90625 
L 38.28125 72.90625 
L 38.28125 8.296875 
L 54.390625 8.296875 
L 54.390625 0 
L 12.40625 0 
z
" id="DejaVuSans-49"/>
      </defs>
      <g transform="translate(160.745781 270.918437)scale(0.1 -0.1)">
       <use xlink:href="#DejaVuSans-49"/>
       <use x="63.623047" xlink:href="#DejaVuSans-48"/>
       <use x="127.246094" xlink:href="#DejaVuSans-48"/>
       <use x="190.869141" xlink:href="#DejaVuSans-48"/>
      </g>
     </g>
    </g>
    <g id="xtick_3">
     <g id="line2d_3">
      <g>
       <use style="stroke:#000000;stroke-width:0.8;" x="254.650654" xlink:href="#m6bed57b81b" y="256.32"/>
      </g>
     </g>
     <g id="text_3">
      <!-- 2000 -->
      <defs>
       <path d="M 19.1875 8.296875 
L 53.609375 8.296875 
L 53.609375 0 
L 7.328125 0 
L 7.328125 8.296875 
Q 12.9375 14.109375 22.625 23.890625 
Q 32.328125 33.6875 34.8125 36.53125 
Q 39.546875 41.84375 41.421875 45.53125 
Q 43.3125 49.21875 43.3125 52.78125 
Q 43.3125 58.59375 39.234375 62.25 
Q 35.15625 65.921875 28.609375 65.921875 
Q 23.96875 65.921875 18.8125 64.3125 
Q 13.671875 62.703125 7.8125 59.421875 
L 7.8125 69.390625 
Q 13.765625 71.78125 18.9375 73 
Q 24.125 74.21875 28.421875 74.21875 
Q 39.75 74.21875 46.484375 68.546875 
Q 53.21875 62.890625 53.21875 53.421875 
Q 53.21875 48.921875 51.53125 44.890625 
Q 49.859375 40.875 45.40625 35.40625 
Q 44.1875 33.984375 37.640625 27.21875 
Q 31.109375 20.453125 19.1875 8.296875 
z
" id="DejaVuSans-50"/>
      </defs>
      <g transform="translate(241.925654 270.918437)scale(0.1 -0.1)">
       <use xlink:href="#DejaVuSans-50"/>
       <use x="63.623047" xlink:href="#DejaVuSans-48"/>
       <use x="127.246094" xlink:href="#DejaVuSans-48"/>
       <use x="190.869141" xlink:href="#DejaVuSans-48"/>
      </g>
     </g>
    </g>
    <g id="xtick_4">
     <g id="line2d_4">
      <g>
       <use style="stroke:#000000;stroke-width:0.8;" x="335.830526" xlink:href="#m6bed57b81b" y="256.32"/>
      </g>
     </g>
     <g id="text_4">
      <!-- 3000 -->
      <defs>
       <path d="M 40.578125 39.3125 
Q 47.65625 37.796875 51.625 33 
Q 55.609375 28.21875 55.609375 21.1875 
Q 55.609375 10.40625 48.1875 4.484375 
Q 40.765625 -1.421875 27.09375 -1.421875 
Q 22.515625 -1.421875 17.65625 -0.515625 
Q 12.796875 0.390625 7.625 2.203125 
L 7.625 11.71875 
Q 11.71875 9.328125 16.59375 8.109375 
Q 21.484375 6.890625 26.8125 6.890625 
Q 36.078125 6.890625 40.9375 10.546875 
Q 45.796875 14.203125 45.796875 21.1875 
Q 45.796875 27.640625 41.28125 31.265625 
Q 36.765625 34.90625 28.71875 34.90625 
L 20.21875 34.90625 
L 20.21875 43.015625 
L 29.109375 43.015625 
Q 36.375 43.015625 40.234375 45.921875 
Q 44.09375 48.828125 44.09375 54.296875 
Q 44.09375 59.90625 40.109375 62.90625 
Q 36.140625 65.921875 28.71875 65.921875 
Q 24.65625 65.921875 20.015625 65.03125 
Q 15.375 64.15625 9.8125 62.3125 
L 9.8125 71.09375 
Q 15.4375 72.65625 20.34375 73.4375 
Q 25.25 74.21875 29.59375 74.21875 
Q 40.828125 74.21875 47.359375 69.109375 
Q 53.90625 64.015625 53.90625 55.328125 
Q 53.90625 49.265625 50.4375 45.09375 
Q 46.96875 40.921875 40.578125 39.3125 
z
" id="DejaVuSans-51"/>
      </defs>
      <g transform="translate(323.105526 270.918437)scale(0.1 -0.1)">
       <use xlink:href="#DejaVuSans-51"/>
       <use x="63.623047" xlink:href="#DejaVuSans-48"/>
       <use x="127.246094" xlink:href="#DejaVuSans-48"/>
       <use x="190.869141" xlink:href="#DejaVuSans-48"/>
      </g>
     </g>
    </g>
    <g id="xtick_5">
     <g id="line2d_5">
      <g>
       <use style="stroke:#000000;stroke-width:0.8;" x="417.010398" xlink:href="#m6bed57b81b" y="256.32"/>
      </g>
     </g>
     <g id="text_5">
      <!-- 4000 -->
      <defs>
       <path d="M 37.796875 64.3125 
L 12.890625 25.390625 
L 37.796875 25.390625 
z
M 35.203125 72.90625 
L 47.609375 72.90625 
L 47.609375 25.390625 
L 58.015625 25.390625 
L 58.015625 17.1875 
L 47.609375 17.1875 
L 47.609375 0 
L 37.796875 0 
L 37.796875 17.1875 
L 4.890625 17.1875 
L 4.890625 26.703125 
z
" id="DejaVuSans-52"/>
      </defs>
      <g transform="translate(404.285398 270.918437)scale(0.1 -0.1)">
       <use xlink:href="#DejaVuSans-52"/>
       <use x="63.623047" xlink:href="#DejaVuSans-48"/>
       <use x="127.246094" xlink:href="#DejaVuSans-48"/>
       <use x="190.869141" xlink:href="#DejaVuSans-48"/>
      </g>
     </g>
    </g>
    <g id="xtick_6">
     <g id="line2d_6">
      <g>
       <use style="stroke:#000000;stroke-width:0.8;" x="498.190271" xlink:href="#m6bed57b81b" y="256.32"/>
      </g>
     </g>
     <g id="text_6">
      <!-- 5000 -->
      <defs>
       <path d="M 10.796875 72.90625 
L 49.515625 72.90625 
L 49.515625 64.59375 
L 19.828125 64.59375 
L 19.828125 46.734375 
Q 21.96875 47.46875 24.109375 47.828125 
Q 26.265625 48.1875 28.421875 48.1875 
Q 40.625 48.1875 47.75 41.5 
Q 54.890625 34.8125 54.890625 23.390625 
Q 54.890625 11.625 47.5625 5.09375 
Q 40.234375 -1.421875 26.90625 -1.421875 
Q 22.3125 -1.421875 17.546875 -0.640625 
Q 12.796875 0.140625 7.71875 1.703125 
L 7.71875 11.625 
Q 12.109375 9.234375 16.796875 8.0625 
Q 21.484375 6.890625 26.703125 6.890625 
Q 35.15625 6.890625 40.078125 11.328125 
Q 45.015625 15.765625 45.015625 23.390625 
Q 45.015625 31 40.078125 35.4375 
Q 35.15625 39.890625 26.703125 39.890625 
Q 22.75 39.890625 18.8125 39.015625 
Q 14.890625 38.140625 10.796875 36.28125 
z
" id="DejaVuSans-53"/>
      </defs>
      <g transform="translate(485.465271 270.918437)scale(0.1 -0.1)">
       <use xlink:href="#DejaVuSans-53"/>
       <use x="63.623047" xlink:href="#DejaVuSans-48"/>
       <use x="127.246094" xlink:href="#DejaVuSans-48"/>
       <use x="190.869141" xlink:href="#DejaVuSans-48"/>
      </g>
     </g>
    </g>
   </g>
   <g id="matplotlib.axis_2">
    <g id="ytick_1">
     <g id="line2d_7">
      <defs>
       <path d="M 0 0 
L -3.5 0 
" id="me592217a91" style="stroke:#000000;stroke-width:0.8;"/>
      </defs>
      <g>
       <use style="stroke:#000000;stroke-width:0.8;" x="72" xlink:href="#me592217a91" y="247.793467"/>
      </g>
     </g>
     <g id="text_7">
      <!-- 20 -->
      <g transform="translate(52.275 251.592686)scale(0.1 -0.1)">
       <use xlink:href="#DejaVuSans-50"/>
       <use x="63.623047" xlink:href="#DejaVuSans-48"/>
      </g>
     </g>
    </g>
    <g id="ytick_2">
     <g id="line2d_8">
      <g>
       <use style="stroke:#000000;stroke-width:0.8;" x="72" xlink:href="#me592217a91" y="216.724118"/>
      </g>
     </g>
     <g id="text_8">
      <!-- 40 -->
      <g transform="translate(52.275 220.523337)scale(0.1 -0.1)">
       <use xlink:href="#DejaVuSans-52"/>
       <use x="63.623047" xlink:href="#DejaVuSans-48"/>
      </g>
     </g>
    </g>
    <g id="ytick_3">
     <g id="line2d_9">
      <g>
       <use style="stroke:#000000;stroke-width:0.8;" x="72" xlink:href="#me592217a91" y="185.654768"/>
      </g>
     </g>
     <g id="text_9">
      <!-- 60 -->
      <defs>
       <path d="M 33.015625 40.375 
Q 26.375 40.375 22.484375 35.828125 
Q 18.609375 31.296875 18.609375 23.390625 
Q 18.609375 15.53125 22.484375 10.953125 
Q 26.375 6.390625 33.015625 6.390625 
Q 39.65625 6.390625 43.53125 10.953125 
Q 47.40625 15.53125 47.40625 23.390625 
Q 47.40625 31.296875 43.53125 35.828125 
Q 39.65625 40.375 33.015625 40.375 
z
M 52.59375 71.296875 
L 52.59375 62.3125 
Q 48.875 64.0625 45.09375 64.984375 
Q 41.3125 65.921875 37.59375 65.921875 
Q 27.828125 65.921875 22.671875 59.328125 
Q 17.53125 52.734375 16.796875 39.40625 
Q 19.671875 43.65625 24.015625 45.921875 
Q 28.375 48.1875 33.59375 48.1875 
Q 44.578125 48.1875 50.953125 41.515625 
Q 57.328125 34.859375 57.328125 23.390625 
Q 57.328125 12.15625 50.6875 5.359375 
Q 44.046875 -1.421875 33.015625 -1.421875 
Q 20.359375 -1.421875 13.671875 8.265625 
Q 6.984375 17.96875 6.984375 36.375 
Q 6.984375 53.65625 15.1875 63.9375 
Q 23.390625 74.21875 37.203125 74.21875 
Q 40.921875 74.21875 44.703125 73.484375 
Q 48.484375 72.75 52.59375 71.296875 
z
" id="DejaVuSans-54"/>
      </defs>
      <g transform="translate(52.275 189.453987)scale(0.1 -0.1)">
       <use xlink:href="#DejaVuSans-54"/>
       <use x="63.623047" xlink:href="#DejaVuSans-48"/>
      </g>
     </g>
    </g>
    <g id="ytick_4">
     <g id="line2d_10">
      <g>
       <use style="stroke:#000000;stroke-width:0.8;" x="72" xlink:href="#me592217a91" y="154.585419"/>
      </g>
     </g>
     <g id="text_10">
      <!-- 80 -->
      <defs>
       <path d="M 31.78125 34.625 
Q 24.75 34.625 20.71875 30.859375 
Q 16.703125 27.09375 16.703125 20.515625 
Q 16.703125 13.921875 20.71875 10.15625 
Q 24.75 6.390625 31.78125 6.390625 
Q 38.8125 6.390625 42.859375 10.171875 
Q 46.921875 13.96875 46.921875 20.515625 
Q 46.921875 27.09375 42.890625 30.859375 
Q 38.875 34.625 31.78125 34.625 
z
M 21.921875 38.8125 
Q 15.578125 40.375 12.03125 44.71875 
Q 8.5 49.078125 8.5 55.328125 
Q 8.5 64.0625 14.71875 69.140625 
Q 20.953125 74.21875 31.78125 74.21875 
Q 42.671875 74.21875 48.875 69.140625 
Q 55.078125 64.0625 55.078125 55.328125 
Q 55.078125 49.078125 51.53125 44.71875 
Q 48 40.375 41.703125 38.8125 
Q 48.828125 37.15625 52.796875 32.3125 
Q 56.78125 27.484375 56.78125 20.515625 
Q 56.78125 9.90625 50.3125 4.234375 
Q 43.84375 -1.421875 31.78125 -1.421875 
Q 19.734375 -1.421875 13.25 4.234375 
Q 6.78125 9.90625 6.78125 20.515625 
Q 6.78125 27.484375 10.78125 32.3125 
Q 14.796875 37.15625 21.921875 38.8125 
z
M 18.3125 54.390625 
Q 18.3125 48.734375 21.84375 45.5625 
Q 25.390625 42.390625 31.78125 42.390625 
Q 38.140625 42.390625 41.71875 45.5625 
Q 45.3125 48.734375 45.3125 54.390625 
Q 45.3125 60.0625 41.71875 63.234375 
Q 38.140625 66.40625 31.78125 66.40625 
Q 25.390625 66.40625 21.84375 63.234375 
Q 18.3125 60.0625 18.3125 54.390625 
z
" id="DejaVuSans-56"/>
      </defs>
      <g transform="translate(52.275 158.384637)scale(0.1 -0.1)">
       <use xlink:href="#DejaVuSans-56"/>
       <use x="63.623047" xlink:href="#DejaVuSans-48"/>
      </g>
     </g>
    </g>
    <g id="ytick_5">
     <g id="line2d_11">
      <g>
       <use style="stroke:#000000;stroke-width:0.8;" x="72" xlink:href="#me592217a91" y="123.516069"/>
      </g>
     </g>
     <g id="text_11">
      <!-- 100 -->
      <g transform="translate(45.9125 127.315288)scale(0.1 -0.1)">
       <use xlink:href="#DejaVuSans-49"/>
       <use x="63.623047" xlink:href="#DejaVuSans-48"/>
       <use x="127.246094" xlink:href="#DejaVuSans-48"/>
      </g>
     </g>
    </g>
    <g id="ytick_6">
     <g id="line2d_12">
      <g>
       <use style="stroke:#000000;stroke-width:0.8;" x="72" xlink:href="#me592217a91" y="92.44672"/>
      </g>
     </g>
     <g id="text_12">
      <!-- 120 -->
      <g transform="translate(45.9125 96.245938)scale(0.1 -0.1)">
       <use xlink:href="#DejaVuSans-49"/>
       <use x="63.623047" xlink:href="#DejaVuSans-50"/>
       <use x="127.246094" xlink:href="#DejaVuSans-48"/>
      </g>
     </g>
    </g>
    <g id="ytick_7">
     <g id="line2d_13">
      <g>
       <use style="stroke:#000000;stroke-width:0.8;" x="72" xlink:href="#me592217a91" y="61.37737"/>
      </g>
     </g>
     <g id="text_13">
      <!-- 140 -->
      <g transform="translate(45.9125 65.176589)scale(0.1 -0.1)">
       <use xlink:href="#DejaVuSans-49"/>
       <use x="63.623047" xlink:href="#DejaVuSans-52"/>
       <use x="127.246094" xlink:href="#DejaVuSans-48"/>
      </g>
     </g>
    </g>
   </g>
   <g id="line2d_14">
    <path clip-path="url(#pce53e6044d)" d="M 92.290909 56.716968 
L 92.777988 56.716968 
L 92.940348 58.270435 
L 93.021528 58.270435 
L 93.183888 56.716968 
L 93.427427 62.930837 
L 94.239226 103.320992 
L 94.320406 106.427927 
L 94.482766 118.855667 
L 94.726305 129.729939 
L 94.807485 129.729939 
L 95.132205 140.604211 
L 95.213384 140.604211 
L 95.375744 134.390342 
L 95.538104 137.497276 
L 95.619284 134.390342 
L 95.862823 146.818081 
L 97.324061 226.044923 
L 97.405241 226.044923 
L 97.89232 233.81226 
L 97.9735 233.81226 
L 98.13586 236.919195 
L 98.3794 207.403313 
L 98.460579 202.742911 
L 98.541759 212.063715 
L 98.622939 210.510248 
L 98.785299 207.403313 
L 99.028838 207.403313 
L 99.191198 205.849846 
L 99.353558 205.849846 
L 99.678277 201.189443 
L 99.840637 201.189443 
L 100.002997 202.742911 
L 100.165357 202.742911 
L 100.327716 205.849846 
L 100.490076 204.296378 
L 100.652436 205.849846 
L 100.814796 204.296378 
L 101.870134 204.296378 
L 102.032494 202.742911 
L 102.194854 202.742911 
L 102.357213 204.296378 
L 102.681933 204.296378 
L 102.844292 202.742911 
L 103.574911 202.742911 
L 103.737271 204.296378 
L 103.899631 204.296378 
L 104.061991 202.742911 
L 105.929128 202.742911 
L 106.091487 201.189443 
L 106.253847 201.189443 
L 106.416207 202.742911 
L 106.497387 202.742911 
L 106.659746 205.849846 
L 106.822106 201.189443 
L 106.984466 204.296378 
L 107.065646 204.296378 
L 109.013963 243.133065 
L 109.176323 246.24 
L 109.257502 246.24 
L 109.582222 241.579598 
L 109.663402 241.579598 
L 109.825762 240.02613 
L 110.069301 240.02613 
L 110.231661 238.472663 
L 110.4752 238.472663 
L 110.63756 236.919195 
L 110.79992 236.919195 
L 110.96228 238.472663 
L 111.124639 238.472663 
L 111.286999 240.02613 
L 111.611719 240.02613 
L 111.774078 241.579598 
L 111.936438 240.02613 
L 112.423517 240.02613 
L 112.585877 241.579598 
L 114.777734 241.579598 
L 114.940093 240.02613 
L 115.914252 240.02613 
L 116.076612 241.579598 
L 118.106108 241.579598 
L 118.268468 240.02613 
L 118.430828 240.02613 
L 118.593188 241.579598 
L 120.866224 241.579598 
L 120.947404 240.02613 
L 121.109764 241.579598 
L 127.604154 241.579598 
L 127.766513 240.02613 
L 127.847693 240.02613 
L 128.010053 241.579598 
L 128.578312 241.579598 
L 128.740672 240.02613 
L 130.12073 240.02613 
L 130.283089 238.472663 
L 131.419608 238.472663 
L 131.581967 236.919195 
L 132.474946 236.919195 
L 132.637306 235.365728 
L 132.799665 235.365728 
L 132.962025 236.919195 
L 133.043205 236.919195 
L 133.205565 235.365728 
L 133.855004 235.365728 
L 134.017363 233.81226 
L 134.179723 233.81226 
L 134.342083 232.258793 
L 135.316241 232.258793 
L 135.478601 233.81226 
L 135.640961 232.258793 
L 136.777479 232.258793 
L 136.939839 233.81226 
L 137.508098 233.81226 
L 137.670458 232.258793 
L 137.832817 232.258793 
L 137.995177 233.81226 
L 138.076357 233.81226 
L 138.319897 230.705325 
L 138.888156 230.705325 
L 139.131695 233.81226 
L 139.375235 233.81226 
L 139.537595 235.365728 
L 139.781134 235.365728 
L 139.943494 233.81226 
L 140.187034 233.81226 
L 140.349394 232.258793 
L 142.054171 232.258793 
L 142.216531 230.705325 
L 142.37889 232.258793 
L 143.596588 232.258793 
L 143.758948 230.705325 
L 144.002488 230.705325 
L 144.164848 229.151858 
L 144.570747 229.151858 
L 144.733107 222.937988 
L 144.895466 222.937988 
L 145.057826 216.724118 
L 145.139006 216.724118 
L 145.301366 210.510248 
L 145.382546 210.510248 
L 145.544905 204.296378 
L 145.707265 204.296378 
L 145.869625 196.529041 
L 145.950805 196.529041 
L 146.113164 185.654768 
L 146.194344 185.654768 
L 146.356704 174.780496 
L 146.519064 174.780496 
L 146.681424 162.352756 
L 146.762603 162.352756 
L 146.924963 148.371549 
L 147.006143 148.371549 
L 147.249683 129.729939 
L 147.412042 129.729939 
L 147.574402 125.069537 
L 147.655582 125.069537 
L 147.817942 118.855667 
L 147.980302 115.748732 
L 148.061481 115.748732 
L 148.223841 111.088329 
L 148.548561 106.427927 
L 148.62974 106.427927 
L 148.87328 103.320992 
L 148.95446 103.320992 
L 149.11682 101.767524 
L 149.441539 101.767524 
L 149.685079 98.660589 
L 149.766259 98.660589 
L 150.009798 95.553655 
L 150.090978 95.553655 
L 150.253338 94.000187 
L 150.415698 95.553655 
L 150.578057 94.000187 
L 151.146317 94.000187 
L 151.308676 92.44672 
L 151.876935 92.44672 
L 152.039295 90.893252 
L 152.201655 90.893252 
L 152.364015 89.339785 
L 152.445194 89.339785 
L 152.607554 87.786317 
L 152.769914 89.339785 
L 152.851094 89.339785 
L 153.013454 87.786317 
L 153.338173 87.786317 
L 153.500533 89.339785 
L 154.149972 89.339785 
L 154.312332 90.893252 
L 154.555871 90.893252 
L 154.718231 92.44672 
L 154.799411 92.44672 
L 154.961771 97.107122 
L 155.04295 97.107122 
L 155.935929 112.641797 
L 156.098289 125.069537 
L 156.179469 125.069537 
L 156.423008 134.390342 
L 156.504188 134.390342 
L 156.747728 142.157679 
L 156.991267 149.925016 
L 157.072447 149.925016 
L 157.315987 160.799289 
L 157.397167 160.799289 
L 157.559526 159.245821 
L 157.721886 163.906224 
L 157.803066 160.799289 
L 157.965426 165.459691 
L 158.046606 165.459691 
L 159.264304 208.956781 
L 159.426664 213.617183 
L 159.589023 218.277585 
L 159.670203 218.277585 
L 159.994923 227.59839 
L 160.400822 233.81226 
L 160.482002 233.81226 
L 160.725541 230.705325 
L 160.887901 230.705325 
L 161.050261 229.151858 
L 161.45616 229.151858 
L 161.61852 230.705325 
L 161.78088 230.705325 
L 162.024419 233.81226 
L 162.186779 233.81226 
L 162.349139 235.365728 
L 162.430319 235.365728 
L 162.592679 236.919195 
L 162.755038 236.919195 
L 162.836218 238.472663 
L 162.998578 236.919195 
L 163.160938 238.472663 
L 163.242118 238.472663 
L 163.404477 240.02613 
L 163.729197 240.02613 
L 163.891556 241.579598 
L 164.784535 241.579598 
L 164.946895 243.133065 
L 165.677514 243.133065 
L 165.839873 241.579598 
L 166.326953 241.579598 
L 166.489312 240.02613 
L 166.732852 240.02613 
L 166.895212 238.472663 
L 167.86937 238.472663 
L 168.03173 240.02613 
L 177.692135 240.02613 
L 177.854495 241.579598 
L 177.935674 241.579598 
L 178.098034 240.02613 
L 178.179214 240.02613 
L 178.341574 241.579598 
L 178.666293 241.579598 
L 178.747473 240.02613 
L 178.909833 241.579598 
L 179.640452 241.579598 
L 179.802811 240.02613 
L 183.212366 240.02613 
L 183.374726 238.472663 
L 183.455906 238.472663 
L 183.618265 240.02613 
L 183.699445 240.02613 
L 183.861805 238.472663 
L 189.057317 238.472663 
L 189.219677 236.919195 
L 190.680914 236.919195 
L 190.843274 238.472663 
L 191.005634 238.472663 
L 191.167994 240.02613 
L 191.330353 238.472663 
L 191.492713 238.472663 
L 191.655073 236.919195 
L 191.979792 236.919195 
L 192.142152 235.365728 
L 192.466872 235.365728 
L 192.629231 236.919195 
L 193.60339 236.919195 
L 193.76575 235.365728 
L 193.928109 236.919195 
L 194.090469 235.365728 
L 195.145807 235.365728 
L 195.308167 233.81226 
L 195.714066 233.81226 
L 195.876426 235.365728 
L 196.038786 235.365728 
L 196.201146 236.919195 
L 196.607045 236.919195 
L 196.769405 235.365728 
L 196.850585 235.365728 
L 197.012944 233.81226 
L 197.418844 233.81226 
L 197.581204 235.365728 
L 197.743563 235.365728 
L 197.905923 236.919195 
L 197.987103 236.919195 
L 198.149463 235.365728 
L 198.393002 235.365728 
L 198.555362 233.81226 
L 198.798902 233.81226 
L 198.961261 235.365728 
L 199.042441 233.81226 
L 199.123621 235.365728 
L 199.285981 233.81226 
L 199.85424 233.81226 
L 200.0166 232.258793 
L 201.315478 232.258793 
L 201.477837 230.705325 
L 201.640197 230.705325 
L 201.802557 229.151858 
L 201.883737 229.151858 
L 202.046096 227.59839 
L 202.208456 227.59839 
L 202.370816 226.044923 
L 202.857895 226.044923 
L 203.020255 224.491455 
L 203.101435 224.491455 
L 203.263795 226.044923 
L 203.426154 226.044923 
L 203.669694 229.151858 
L 203.832054 227.59839 
L 203.913234 227.59839 
L 203.994413 229.151858 
L 204.075593 227.59839 
L 204.237953 229.151858 
L 205.212112 229.151858 
L 205.374471 230.705325 
L 206.18627 230.705325 
L 206.26745 229.151858 
L 206.42981 230.705325 
L 207.079249 230.705325 
L 207.322788 227.59839 
L 208.134587 227.59839 
L 208.296947 226.044923 
L 208.459306 226.044923 
L 208.621666 224.491455 
L 209.352285 224.491455 
L 209.514645 222.937988 
L 209.677004 222.937988 
L 209.839364 221.38452 
L 210.569983 221.38452 
L 210.732343 222.937988 
L 210.894703 222.937988 
L 211.138242 226.044923 
L 211.381782 226.044923 
L 211.462962 227.59839 
L 211.706501 224.491455 
L 211.868861 226.044923 
L 212.031221 224.491455 
L 212.35594 224.491455 
L 212.5183 222.937988 
L 213.411279 222.937988 
L 213.573638 221.38452 
L 213.735998 222.937988 
L 213.898358 219.831053 
L 214.060718 221.38452 
L 214.223077 219.831053 
L 214.304257 219.831053 
L 214.466617 218.277585 
L 214.628977 221.38452 
L 214.710157 221.38452 
L 214.791336 218.277585 
L 214.953696 221.38452 
L 215.034876 221.38452 
L 215.197236 218.277585 
L 215.603135 218.277585 
L 215.765495 216.724118 
L 215.927855 219.831053 
L 216.090214 218.277585 
L 216.252574 221.38452 
L 216.414934 219.831053 
L 216.496114 221.38452 
L 216.658474 219.831053 
L 216.739653 219.831053 
L 216.820833 221.38452 
L 216.983193 219.831053 
L 217.307912 219.831053 
L 217.470272 221.38452 
L 218.038531 221.38452 
L 218.363251 226.044923 
L 218.76915 219.831053 
L 219.256229 219.831053 
L 219.418589 221.38452 
L 219.499769 221.38452 
L 219.662129 222.937988 
L 219.824489 219.831053 
L 219.905668 219.831053 
L 219.986848 221.38452 
L 220.149208 219.831053 
L 220.392748 219.831053 
L 220.555107 221.38452 
L 220.717467 219.831053 
L 220.879827 219.831053 
L 221.042187 218.277585 
L 221.285726 218.277585 
L 221.448086 219.831053 
L 221.691626 219.831053 
L 221.853985 221.38452 
L 221.935165 221.38452 
L 222.097525 222.937988 
L 222.584604 222.937988 
L 222.665784 221.38452 
L 222.746964 222.937988 
L 222.909324 221.38452 
L 222.990504 221.38452 
L 223.152863 222.937988 
L 223.315223 221.38452 
L 223.396403 222.937988 
L 223.558763 221.38452 
L 223.639943 221.38452 
L 223.721122 222.937988 
L 223.883482 221.38452 
L 224.045842 222.937988 
L 224.289382 222.937988 
L 224.451741 216.724118 
L 225.26354 216.724118 
L 225.4259 212.063715 
L 225.588259 212.063715 
L 225.750619 208.956781 
L 225.831799 208.956781 
L 225.994159 205.849846 
L 226.156519 205.849846 
L 226.318878 204.296378 
L 226.724778 204.296378 
L 226.887137 202.742911 
L 227.374217 202.742911 
L 227.536576 201.189443 
L 227.942476 201.189443 
L 228.104836 199.635976 
L 228.510735 199.635976 
L 228.673095 198.082508 
L 228.997814 198.082508 
L 229.160174 196.529041 
L 229.566073 196.529041 
L 229.728433 194.975573 
L 230.702591 194.975573 
L 230.864951 193.422106 
L 231.75793 193.422106 
L 231.92029 191.868638 
L 233.868606 191.868638 
L 234.030966 193.422106 
L 234.112146 193.422106 
L 234.274506 191.868638 
L 234.355686 191.868638 
L 234.518045 193.422106 
L 236.141643 193.422106 
L 236.304003 191.868638 
L 236.385182 191.868638 
L 236.547542 193.422106 
L 236.628722 193.422106 
L 236.791082 191.868638 
L 237.359341 191.868638 
L 237.521701 193.422106 
L 238.577039 193.422106 
L 238.739399 191.868638 
L 238.820579 191.868638 
L 238.982938 193.422106 
L 239.064118 193.422106 
L 239.226478 191.868638 
L 239.307658 191.868638 
L 239.470018 190.315171 
L 239.551198 190.315171 
L 239.713557 188.761703 
L 239.794737 188.761703 
L 239.957097 187.208236 
L 240.281816 187.208236 
L 240.444176 184.101301 
L 240.525356 184.101301 
L 240.687716 182.547833 
L 241.012435 182.547833 
L 241.174795 179.440898 
L 241.255975 179.440898 
L 241.418335 173.227028 
L 241.499514 173.227028 
L 241.661874 168.566626 
L 241.743054 168.566626 
L 241.986594 159.245821 
L 242.148953 159.245821 
L 242.311313 153.031951 
L 242.392493 153.031951 
L 242.636033 145.264614 
L 242.798392 145.264614 
L 243.123112 140.604211 
L 243.366652 140.604211 
L 243.529011 142.157679 
L 243.610191 142.157679 
L 243.772551 140.604211 
L 243.934911 140.604211 
L 244.09727 139.050744 
L 244.50317 139.050744 
L 244.665529 137.497276 
L 244.827889 137.497276 
L 244.990249 139.050744 
L 245.152609 137.497276 
L 245.233789 137.497276 
L 245.396148 135.943809 
L 245.558508 135.943809 
L 245.720868 134.390342 
L 246.370307 134.390342 
L 246.532667 132.836874 
L 246.857386 132.836874 
L 247.019746 131.283407 
L 247.831544 131.283407 
L 247.993904 129.729939 
L 248.156264 129.729939 
L 248.318624 131.283407 
L 248.480983 131.283407 
L 248.643343 129.729939 
L 249.942221 129.729939 
L 250.104581 128.176472 
L 250.75402 128.176472 
L 250.91638 129.729939 
L 251.078739 128.176472 
L 251.403459 128.176472 
L 251.646998 125.069537 
L 251.728178 125.069537 
L 251.971718 121.962602 
L 252.377617 121.962602 
L 252.539977 120.409134 
L 253.270596 120.409134 
L 253.432956 121.962602 
L 253.595315 121.962602 
L 253.757675 120.409134 
L 253.920035 121.962602 
L 254.082395 120.409134 
L 254.163575 121.962602 
L 254.325934 120.409134 
L 254.569474 123.516069 
L 254.813014 123.516069 
L 254.975373 121.962602 
L 255.137733 123.516069 
L 255.300093 121.962602 
L 255.381273 121.962602 
L 255.543632 123.516069 
L 256.193071 123.516069 
L 256.355431 121.962602 
L 258.141388 121.962602 
L 258.303748 120.409134 
L 258.709647 120.409134 
L 258.872007 121.962602 
L 259.521446 121.962602 
L 259.602626 123.516069 
L 259.764986 120.409134 
L 260.089705 120.409134 
L 260.252065 118.855667 
L 260.414425 120.409134 
L 260.495605 120.409134 
L 260.657964 118.855667 
L 260.820324 118.855667 
L 260.982684 120.409134 
L 261.145044 118.855667 
L 261.307403 118.855667 
L 261.469763 120.409134 
L 261.713303 120.409134 
L 261.875662 118.855667 
L 262.443922 118.855667 
L 262.606281 117.302199 
L 262.768641 118.855667 
L 262.931001 118.855667 
L 263.25572 129.729939 
L 263.3369 129.729939 
L 263.58044 145.264614 
L 265.934656 232.258793 
L 266.502915 241.579598 
L 266.827635 241.579598 
L 266.989994 240.02613 
L 267.071174 240.02613 
L 267.233534 238.472663 
L 267.477074 238.472663 
L 267.639433 240.02613 
L 267.801793 240.02613 
L 267.882973 241.579598 
L 268.045333 240.02613 
L 268.288872 240.02613 
L 268.451232 241.579598 
L 269.50657 241.579598 
L 269.66893 243.133065 
L 269.75011 243.133065 
L 269.91247 241.579598 
L 270.07483 243.133065 
L 270.399549 243.133065 
L 270.643089 236.919195 
L 270.886628 224.491455 
L 270.967808 226.044923 
L 271.454887 226.044923 
L 271.617247 224.491455 
L 271.698427 224.491455 
L 271.860787 221.38452 
L 272.104326 221.38452 
L 272.266686 219.831053 
L 272.347866 219.831053 
L 272.510226 222.937988 
L 272.672585 221.38452 
L 273.403204 221.38452 
L 273.565564 219.831053 
L 274.377363 219.831053 
L 274.539722 218.277585 
L 274.783262 218.277585 
L 274.945622 216.724118 
L 275.8386 216.724118 
L 276.00096 215.17065 
L 276.08214 215.17065 
L 276.2445 216.724118 
L 276.40686 216.724118 
L 276.569219 215.17065 
L 276.812759 215.17065 
L 276.975119 213.617183 
L 277.218658 213.617183 
L 277.381018 215.17065 
L 277.462198 215.17065 
L 277.624558 213.617183 
L 278.030457 213.617183 
L 278.192817 212.063715 
L 279.004615 212.063715 
L 279.166975 210.510248 
L 279.654054 210.510248 
L 279.816414 212.063715 
L 279.978774 210.510248 
L 280.059954 210.510248 
L 280.222314 212.063715 
L 281.034112 212.063715 
L 281.196472 210.510248 
L 281.358832 212.063715 
L 281.440012 212.063715 
L 281.602371 210.510248 
L 282.982429 210.510248 
L 283.144789 208.956781 
L 284.524847 208.956781 
L 284.687207 207.403313 
L 285.336646 207.403313 
L 285.499005 205.849846 
L 285.580185 205.849846 
L 285.742545 204.296378 
L 286.473164 204.296378 
L 286.635523 202.742911 
L 287.122603 202.742911 
L 287.284962 201.189443 
L 287.528502 201.189443 
L 287.690862 199.635976 
L 287.772042 199.635976 
L 287.934401 202.742911 
L 288.421481 202.742911 
L 288.58384 201.189443 
L 288.7462 202.742911 
L 289.07092 202.742911 
L 289.233279 201.189443 
L 289.720359 201.189443 
L 289.882718 199.635976 
L 290.369798 199.635976 
L 290.532157 198.082508 
L 291.181596 198.082508 
L 291.343956 196.529041 
L 292.074575 196.529041 
L 292.236935 194.975573 
L 292.724014 194.975573 
L 292.886374 193.422106 
L 293.048733 194.975573 
L 293.129913 194.975573 
L 293.292273 193.422106 
L 294.185252 193.422106 
L 294.347611 191.868638 
L 295.15941 191.868638 
L 295.32177 190.315171 
L 295.40295 190.315171 
L 295.565309 191.868638 
L 295.808849 191.868638 
L 295.971209 193.422106 
L 296.214748 193.422106 
L 296.377108 191.868638 
L 296.620648 191.868638 
L 296.783008 193.422106 
L 297.026547 193.422106 
L 297.188907 194.975573 
L 297.432446 194.975573 
L 297.594806 193.422106 
L 297.838346 193.422106 
L 298.000706 191.868638 
L 298.163065 193.422106 
L 298.731324 193.422106 
L 298.893684 199.635976 
L 300.273742 224.491455 
L 300.354922 224.491455 
L 300.517282 227.59839 
L 300.598462 227.59839 
L 300.923181 236.919195 
L 301.32908 246.24 
L 301.41026 244.686533 
L 301.49144 244.686533 
L 301.81616 240.02613 
L 301.978519 240.02613 
L 302.140879 238.472663 
L 302.709138 238.472663 
L 302.790318 240.02613 
L 302.952678 238.472663 
L 303.033858 238.472663 
L 303.196217 240.02613 
L 303.358577 238.472663 
L 303.845656 238.472663 
L 304.008016 240.02613 
L 304.657455 240.02613 
L 304.819815 241.579598 
L 309.934147 241.579598 
L 310.096507 240.02613 
L 314.31786 240.02613 
L 314.48022 241.579598 
L 314.642579 241.579598 
L 314.723759 240.02613 
L 314.886119 241.579598 
L 315.048479 240.02613 
L 315.129659 240.02613 
L 315.292018 241.579598 
L 316.509716 241.579598 
L 316.672076 240.02613 
L 316.834436 241.579598 
L 316.996796 241.579598 
L 317.159155 240.02613 
L 317.240335 240.02613 
L 317.402695 241.579598 
L 317.483875 241.579598 
L 317.646235 240.02613 
L 320.48753 240.02613 
L 320.64989 238.472663 
L 322.111128 238.472663 
L 322.273487 236.919195 
L 323.166466 236.919195 
L 323.328826 235.365728 
L 323.734725 235.365728 
L 323.897085 233.81226 
L 324.302984 233.81226 
L 324.465344 232.258793 
L 326.088941 232.258793 
L 326.251301 230.705325 
L 326.576021 230.705325 
L 326.73838 229.151858 
L 328.037258 229.151858 
L 328.199618 227.59839 
L 329.254956 227.59839 
L 329.417316 226.044923 
L 329.660856 226.044923 
L 329.823216 224.491455 
L 329.904395 224.491455 
L 330.066755 222.937988 
L 330.553834 222.937988 
L 330.716194 221.38452 
L 331.446813 221.38452 
L 331.609173 219.831053 
L 332.420971 219.831053 
L 332.664511 222.937988 
L 332.745691 222.937988 
L 332.908051 221.38452 
L 333.15159 221.38452 
L 333.31395 219.831053 
L 333.47631 221.38452 
L 333.63867 219.831053 
L 333.882209 219.831053 
L 334.044569 218.277585 
L 334.288109 218.277585 
L 334.369288 216.724118 
L 334.531648 218.277585 
L 334.612828 218.277585 
L 334.694008 219.831053 
L 334.856368 218.277585 
L 335.343447 218.277585 
L 335.424627 219.831053 
L 335.505807 218.277585 
L 335.668166 219.831053 
L 335.911706 219.831053 
L 336.074066 221.38452 
L 336.642325 221.38452 
L 336.723505 222.937988 
L 336.885864 221.38452 
L 336.967044 221.38452 
L 337.129404 222.937988 
L 337.291764 221.38452 
L 338.996541 221.38452 
L 339.077721 222.937988 
L 339.240081 221.38452 
L 342.974355 221.38452 
L 343.055535 219.831053 
L 343.217894 221.38452 
L 345.085032 221.38452 
L 345.247391 213.617183 
L 345.89683 213.617183 
L 346.05919 212.063715 
L 346.22155 212.063715 
L 346.38391 207.403313 
L 346.546269 207.403313 
L 346.708629 204.296378 
L 346.789809 204.296378 
L 346.952169 202.742911 
L 347.114528 202.742911 
L 347.276888 201.189443 
L 347.439248 201.189443 
L 347.601608 199.635976 
L 347.682787 199.635976 
L 347.845147 198.082508 
L 348.007507 198.082508 
L 348.169867 196.529041 
L 348.332226 196.529041 
L 348.494586 194.975573 
L 348.575766 194.975573 
L 348.738126 193.422106 
L 348.900486 193.422106 
L 349.062845 191.868638 
L 349.144025 191.868638 
L 349.306385 188.761703 
L 349.387565 188.761703 
L 349.549925 185.654768 
L 349.712284 185.654768 
L 349.874644 182.547833 
L 349.955824 182.547833 
L 350.118184 180.994366 
L 350.199364 180.994366 
L 350.361723 176.333963 
L 350.442903 176.333963 
L 350.605263 173.227028 
L 350.686443 173.227028 
L 350.848802 170.120094 
L 350.929982 170.120094 
L 351.092342 171.673561 
L 351.173522 171.673561 
L 351.335882 168.566626 
L 351.417062 168.566626 
L 351.579421 170.120094 
L 351.660601 170.120094 
L 351.822961 165.459691 
L 351.904141 165.459691 
L 352.066501 167.013159 
L 352.14768 167.013159 
L 352.31004 163.906224 
L 352.39122 163.906224 
L 352.71594 159.245821 
L 353.040659 159.245821 
L 353.203019 156.138886 
L 353.365379 154.585419 
L 353.446558 154.585419 
L 353.608918 153.031951 
L 353.690098 153.031951 
L 353.933638 149.925016 
L 354.095997 149.925016 
L 354.258357 146.818081 
L 354.420717 146.818081 
L 354.583077 145.264614 
L 354.664256 145.264614 
L 354.826616 143.711146 
L 355.070156 143.711146 
L 355.232516 142.157679 
L 355.394875 143.711146 
L 355.557235 143.711146 
L 355.719595 142.157679 
L 355.963134 142.157679 
L 356.125494 143.711146 
L 356.287854 143.711146 
L 356.450214 142.157679 
L 357.018473 142.157679 
L 357.180833 140.604211 
L 357.749092 140.604211 
L 357.911451 137.497276 
L 358.64207 137.497276 
L 358.80443 135.943809 
L 358.96679 137.497276 
L 359.129149 137.497276 
L 359.291509 135.943809 
L 359.453869 135.943809 
L 359.616229 137.497276 
L 359.778588 137.497276 
L 359.940948 135.943809 
L 360.103308 137.497276 
L 360.265668 135.943809 
L 360.428027 135.943809 
L 360.590387 134.390342 
L 360.752747 134.390342 
L 360.915107 135.943809 
L 361.077466 135.943809 
L 361.239826 134.390342 
L 362.863424 134.390342 
L 363.025783 135.943809 
L 363.188143 134.390342 
L 363.675222 134.390342 
L 363.837582 132.836874 
L 363.999942 134.390342 
L 364.649381 134.390342 
L 364.811741 135.943809 
L 364.9741 134.390342 
L 365.46118 134.390342 
L 365.704719 137.497276 
L 365.785899 137.497276 
L 366.029439 148.371549 
L 366.110618 148.371549 
L 366.272978 154.585419 
L 366.435338 157.692354 
L 366.516518 157.692354 
L 367.165957 179.440898 
L 367.328317 184.101301 
L 367.653036 193.422106 
L 368.140115 204.296378 
L 368.546015 216.724118 
L 369.033094 227.59839 
L 369.276634 233.81226 
L 369.438993 236.919195 
L 369.601353 233.81226 
L 369.682533 233.81226 
L 369.926072 230.705325 
L 370.088432 230.705325 
L 370.250792 227.59839 
L 370.331972 229.151858 
L 370.494332 227.59839 
L 370.737871 227.59839 
L 370.819051 229.151858 
L 370.900231 227.59839 
L 371.062591 229.151858 
L 371.30613 229.151858 
L 371.54967 232.258793 
L 371.63085 230.705325 
L 371.79321 232.258793 
L 371.874389 232.258793 
L 372.036749 233.81226 
L 372.199109 232.258793 
L 372.361469 233.81226 
L 372.686188 233.81226 
L 372.848548 235.365728 
L 372.929728 233.81226 
L 373.092088 235.365728 
L 373.903886 235.365728 
L 374.066246 236.919195 
L 374.796865 236.919195 
L 374.959225 238.472663 
L 375.446304 238.472663 
L 375.689843 235.365728 
L 375.933383 235.365728 
L 376.095743 233.81226 
L 376.664002 233.81226 
L 376.826362 235.365728 
L 377.232261 235.365728 
L 377.394621 233.81226 
L 377.55698 233.81226 
L 377.80052 230.705325 
L 378.04406 230.705325 
L 378.206419 229.151858 
L 378.449959 229.151858 
L 378.612319 230.705325 
L 379.018218 230.705325 
L 379.180578 229.151858 
L 379.505297 229.151858 
L 379.586477 226.044923 
L 379.830017 229.151858 
L 379.911197 227.59839 
L 380.073557 229.151858 
L 380.154736 229.151858 
L 380.317096 227.59839 
L 380.398276 227.59839 
L 380.560636 226.044923 
L 381.047715 226.044923 
L 381.210075 224.491455 
L 381.291255 224.491455 
L 381.372434 226.044923 
L 381.534794 224.491455 
L 382.346593 224.491455 
L 382.508953 222.937988 
L 382.671312 222.937988 
L 382.833672 219.831053 
L 382.996032 219.831053 
L 383.158392 218.277585 
L 383.726651 218.277585 
L 383.889011 216.724118 
L 384.45727 216.724118 
L 384.619629 213.617183 
L 384.781989 213.617183 
L 384.944349 212.063715 
L 385.512608 212.063715 
L 385.674968 210.510248 
L 385.837327 210.510248 
L 385.999687 212.063715 
L 386.162047 212.063715 
L 386.243227 213.617183 
L 386.405587 212.063715 
L 386.649126 215.17065 
L 386.730306 213.617183 
L 386.892666 215.17065 
L 387.136205 215.17065 
L 387.298565 218.277585 
L 387.379745 216.724118 
L 387.542105 218.277585 
L 387.704465 218.277585 
L 387.866824 219.831053 
L 388.272724 219.831053 
L 388.435083 218.277585 
L 388.516263 218.277585 
L 388.597443 219.831053 
L 388.759803 218.277585 
L 388.840983 218.277585 
L 388.922163 219.831053 
L 389.084522 218.277585 
L 389.165702 218.277585 
L 389.328062 219.831053 
L 389.409242 218.277585 
L 389.571602 219.831053 
L 389.652781 219.831053 
L 389.733961 218.277585 
L 389.896321 219.831053 
L 389.977501 219.831053 
L 390.058681 218.277585 
L 390.221041 213.617183 
L 390.54576 213.617183 
L 390.70812 212.063715 
L 390.87048 212.063715 
L 391.032839 207.403313 
L 391.195199 207.403313 
L 391.357559 201.189443 
L 391.519919 201.189443 
L 391.682278 199.635976 
L 391.844638 199.635976 
L 392.006998 196.529041 
L 392.169358 196.529041 
L 392.331717 194.975573 
L 393.143516 194.975573 
L 393.305876 193.422106 
L 393.387056 193.422106 
L 393.549415 191.868638 
L 393.711775 191.868638 
L 393.874135 180.994366 
L 393.955315 180.994366 
L 394.117674 163.906224 
L 394.280034 163.906224 
L 394.442394 142.157679 
L 394.523574 142.157679 
L 394.685934 121.962602 
L 394.767113 121.962602 
L 394.929473 104.874459 
L 395.010653 104.874459 
L 395.173013 90.893252 
L 395.254193 90.893252 
L 395.416552 87.786317 
L 395.497732 87.786317 
L 395.822452 78.465512 
L 395.903632 78.465512 
L 396.147171 66.037772 
L 396.228351 66.037772 
L 396.390711 58.270435 
L 396.553071 55.1635 
L 396.71543 55.1635 
L 396.87779 53.610033 
L 397.04015 53.610033 
L 397.20251 50.503098 
L 397.364869 48.94963 
L 397.446049 48.94963 
L 397.608409 45.842695 
L 398.257848 45.842695 
L 398.582567 50.503098 
L 398.663747 50.503098 
L 398.826107 48.94963 
L 398.988467 50.503098 
L 399.800266 50.503098 
L 399.881445 52.056565 
L 400.043805 50.503098 
L 401.992122 50.503098 
L 402.154482 52.056565 
L 402.316842 52.056565 
L 402.479201 53.610033 
L 402.560381 53.610033 
L 402.803921 56.716968 
L 402.885101 56.716968 
L 403.291 62.930837 
L 403.45336 72.251642 
L 403.53454 72.251642 
L 403.696899 83.125915 
L 403.778079 83.125915 
L 403.940439 94.000187 
L 404.021619 94.000187 
L 404.183979 107.981394 
L 404.265158 107.981394 
L 404.427518 120.409134 
L 404.508698 120.409134 
L 404.671058 128.176472 
L 404.752238 128.176472 
L 404.914597 126.623004 
L 405.158137 126.623004 
L 405.320497 128.176472 
L 405.482857 126.623004 
L 405.645216 128.176472 
L 405.726396 128.176472 
L 405.888756 131.283407 
L 406.375835 131.283407 
L 406.538195 132.836874 
L 406.781735 132.836874 
L 406.944094 131.283407 
L 408.080612 131.283407 
L 408.242972 132.836874 
L 408.648872 132.836874 
L 408.811231 134.390342 
L 408.973591 134.390342 
L 409.135951 132.836874 
L 409.298311 132.836874 
L 409.46067 134.390342 
L 409.78539 134.390342 
L 410.028929 145.264614 
L 410.191289 153.031951 
L 410.353649 157.692354 
L 410.921908 176.333963 
L 411.165448 182.547833 
L 411.490167 191.868638 
L 411.814887 199.635976 
L 412.139606 208.956781 
L 412.301966 213.617183 
L 412.464326 218.277585 
L 412.545505 218.277585 
L 412.789045 224.491455 
L 413.357304 236.919195 
L 413.438484 235.365728 
L 413.763204 230.705325 
L 413.844383 230.705325 
L 414.006743 227.59839 
L 414.250283 227.59839 
L 414.331463 226.044923 
L 414.656182 230.705325 
L 414.818542 230.705325 
L 415.062082 233.81226 
L 415.143261 233.81226 
L 415.386801 236.919195 
L 415.630341 236.919195 
L 415.7927 238.472663 
L 416.03624 238.472663 
L 416.1986 240.02613 
L 416.360959 240.02613 
L 416.523319 241.579598 
L 416.685679 241.579598 
L 416.848039 240.02613 
L 417.010398 240.02613 
L 417.172758 241.579598 
L 417.416298 241.579598 
L 417.578658 240.02613 
L 417.659837 240.02613 
L 417.822197 241.579598 
L 417.984557 240.02613 
L 418.228097 240.02613 
L 418.390456 241.579598 
L 418.633996 241.579598 
L 418.877536 238.472663 
L 418.958715 238.472663 
L 419.121075 236.919195 
L 419.445795 236.919195 
L 419.608154 235.365728 
L 419.689334 236.919195 
L 419.770514 235.365728 
L 419.932874 236.919195 
L 420.988212 236.919195 
L 421.150572 238.472663 
L 421.394112 238.472663 
L 421.475291 236.919195 
L 421.556471 238.472663 
L 421.718831 236.919195 
L 422.69299 236.919195 
L 422.855349 238.472663 
L 424.154227 238.472663 
L 424.235407 236.919195 
L 424.316587 238.472663 
L 424.478947 236.919195 
L 424.560127 236.919195 
L 424.641306 238.472663 
L 424.803666 236.919195 
L 426.346084 236.919195 
L 426.427264 238.472663 
L 426.589623 236.919195 
L 427.644962 236.919195 
L 427.807321 238.472663 
L 428.375581 238.472663 
L 428.53794 236.919195 
L 429.917998 236.919195 
L 430.080358 238.472663 
L 430.161538 238.472663 
L 430.323898 236.919195 
L 431.785135 236.919195 
L 431.947495 235.365728 
L 435.600589 235.365728 
L 435.762949 233.81226 
L 436.168848 233.81226 
L 436.250028 232.258793 
L 436.412388 233.81226 
L 436.493568 233.81226 
L 436.655928 232.258793 
L 436.737107 232.258793 
L 436.899467 233.81226 
L 438.035985 233.81226 
L 438.198345 232.258793 
L 439.091324 232.258793 
L 439.172504 233.81226 
L 439.334863 232.258793 
L 439.416043 232.258793 
L 439.497223 233.81226 
L 439.659583 232.258793 
L 440.633741 232.258793 
L 440.796101 230.705325 
L 441.52672 230.705325 
L 441.68908 232.258793 
L 441.851439 232.258793 
L 441.932619 230.705325 
L 442.094979 232.258793 
L 445.991613 232.258793 
L 446.153973 230.705325 
L 446.397512 230.705325 
L 446.559872 229.151858 
L 446.965771 229.151858 
L 447.128131 227.59839 
L 447.209311 227.59839 
L 447.371671 224.491455 
L 447.53403 224.491455 
L 447.69639 219.831053 
L 447.77757 219.831053 
L 447.93993 216.724118 
L 448.02111 216.724118 
L 448.183469 213.617183 
L 448.345829 213.617183 
L 448.508189 212.063715 
L 448.589369 212.063715 
L 448.751729 208.956781 
L 448.914088 208.956781 
L 449.076448 205.849846 
L 449.157628 205.849846 
L 449.319988 201.189443 
L 449.401168 201.189443 
L 449.563527 198.082508 
L 449.644707 198.082508 
L 449.807067 196.529041 
L 449.888247 196.529041 
L 450.050606 194.975573 
L 450.456506 194.975573 
L 450.618866 191.868638 
L 450.700045 191.868638 
L 450.862405 190.315171 
L 450.943585 190.315171 
L 451.105945 187.208236 
L 451.430664 187.208236 
L 451.593024 182.547833 
L 451.674204 182.547833 
L 451.836564 179.440898 
L 451.917744 179.440898 
L 452.080103 176.333963 
L 452.323643 176.333963 
L 452.486003 173.227028 
L 452.567183 173.227028 
L 452.729542 168.566626 
L 452.810722 168.566626 
L 452.973082 167.013159 
L 453.054262 167.013159 
L 453.297801 160.799289 
L 453.460161 160.799289 
L 453.622521 154.585419 
L 453.703701 154.585419 
L 453.94724 151.478484 
L 454.1096 151.478484 
L 454.27196 148.371549 
L 454.43432 148.371549 
L 454.596679 146.818081 
L 454.677859 146.818081 
L 454.840219 145.264614 
L 455.246118 145.264614 
L 455.408478 143.711146 
L 455.570838 145.264614 
L 455.814377 142.157679 
L 455.976737 142.157679 
L 456.139097 143.711146 
L 456.463816 143.711146 
L 456.707356 140.604211 
L 456.788536 140.604211 
L 456.950896 142.157679 
L 457.032076 142.157679 
L 457.275615 139.050744 
L 457.843874 139.050744 
L 458.006234 137.497276 
L 459.548652 137.497276 
L 459.711011 135.943809 
L 460.84753 135.943809 
L 461.009889 134.390342 
L 461.496968 134.390342 
L 461.659328 135.943809 
L 461.821688 134.390342 
L 462.958206 134.390342 
L 463.039386 137.497276 
L 463.201746 156.138886 
L 463.445285 162.352756 
L 464.094724 184.101301 
L 464.338264 190.315171 
L 464.662984 199.635976 
L 465.393602 215.17065 
L 465.555962 219.831053 
L 465.799502 219.831053 
L 466.124221 229.151858 
L 466.286581 232.258793 
L 466.530121 229.151858 
L 466.69248 229.151858 
L 466.85484 227.59839 
L 466.93602 227.59839 
L 467.09838 224.491455 
L 467.260739 226.044923 
L 467.341919 224.491455 
L 467.504279 226.044923 
L 467.747819 207.403313 
L 467.828999 221.38452 
L 467.910178 218.277585 
L 468.072538 216.724118 
L 468.153718 216.724118 
L 468.316078 213.617183 
L 468.640797 213.617183 
L 468.965517 202.742911 
L 469.127876 204.296378 
L 469.371416 204.296378 
L 469.533776 208.956781 
L 469.614956 208.956781 
L 469.777315 207.403313 
L 469.858495 207.403313 
L 470.020855 208.956781 
L 470.183215 207.403313 
L 470.264395 207.403313 
L 470.426754 208.956781 
L 470.507934 208.956781 
L 470.670294 207.403313 
L 471.400913 207.403313 
L 471.563273 205.849846 
L 471.644453 205.849846 
L 471.806812 207.403313 
L 471.887992 207.403313 
L 472.050352 205.849846 
L 472.293892 205.849846 
L 472.456251 207.403313 
L 472.537431 207.403313 
L 472.699791 210.510248 
L 472.780971 210.510248 
L 472.94333 215.17065 
L 473.02451 215.17065 
L 473.18687 204.296378 
L 473.34923 208.956781 
L 473.43041 208.956781 
L 474.485748 230.705325 
L 474.891647 243.133065 
L 474.972827 243.133065 
L 475.297547 238.472663 
L 475.378727 238.472663 
L 475.865806 230.705325 
L 475.946986 230.705325 
L 476.190525 227.59839 
L 476.352885 227.59839 
L 476.515245 229.151858 
L 476.596425 229.151858 
L 476.839964 232.258793 
L 476.921144 232.258793 
L 477.083504 233.81226 
L 477.164684 233.81226 
L 477.245864 235.365728 
L 477.408223 233.81226 
L 477.570583 233.81226 
L 477.814123 236.919195 
L 478.138842 236.919195 
L 478.220022 235.365728 
L 478.382382 236.919195 
L 478.625922 226.044923 
L 479.113001 226.044923 
L 479.275361 224.491455 
L 479.35654 224.491455 
L 479.5189 219.831053 
L 479.68126 219.831053 
L 479.84362 215.17065 
L 479.9248 215.17065 
L 480.087159 213.617183 
L 480.168339 213.617183 
L 480.330699 212.063715 
L 480.411879 212.063715 
L 480.574238 210.510248 
L 480.655418 210.510248 
L 480.817778 208.956781 
L 480.980138 208.956781 
L 481.142498 207.403313 
L 481.223677 207.403313 
L 481.386037 208.956781 
L 481.467217 208.956781 
L 481.629577 205.849846 
L 482.035476 205.849846 
L 482.197836 202.742911 
L 482.279016 202.742911 
L 482.441376 201.189443 
L 482.522555 201.189443 
L 482.684915 199.635976 
L 482.847275 199.635976 
L 483.009635 198.082508 
L 483.334354 198.082508 
L 483.496714 194.975573 
L 483.821433 194.975573 
L 483.983793 191.868638 
L 484.633232 191.868638 
L 484.795592 190.315171 
L 484.876772 190.315171 
L 485.039131 191.868638 
L 485.120311 191.868638 
L 485.282671 190.315171 
L 485.68857 190.315171 
L 485.85093 188.761703 
L 485.93211 188.761703 
L 486.09447 190.315171 
L 486.17565 190.315171 
L 486.338009 188.761703 
L 486.419189 188.761703 
L 486.581549 190.315171 
L 486.662729 190.315171 
L 486.825089 188.761703 
L 486.906269 188.761703 
L 487.068628 193.422106 
L 487.149808 193.422106 
L 487.312168 191.868638 
L 487.555708 191.868638 
L 487.718067 190.315171 
L 487.799247 190.315171 
L 487.961607 191.868638 
L 488.042787 191.868638 
L 488.205146 190.315171 
L 488.773406 190.315171 
L 488.935765 188.761703 
L 489.504024 188.761703 
L 489.666384 187.208236 
L 489.747564 187.208236 
L 489.909924 185.654768 
L 491.127622 185.654768 
L 491.289982 182.547833 
L 491.614701 182.547833 
L 491.777061 184.101301 
L 491.858241 184.101301 
L 492.0206 182.547833 
L 492.18296 184.101301 
L 492.26414 184.101301 
L 492.4265 182.547833 
L 492.751219 182.547833 
L 492.994759 179.440898 
L 493.806558 179.440898 
L 493.968917 177.887431 
L 494.699536 177.887431 
L 494.861896 176.333963 
L 495.105436 176.333963 
L 495.267795 177.887431 
L 495.754875 177.887431 
L 495.917234 176.333963 
L 496.404314 176.333963 
L 496.566673 174.780496 
L 496.972573 174.780496 
L 497.053753 176.333963 
L 497.216112 174.780496 
L 497.297292 174.780496 
L 497.459652 176.333963 
L 497.622012 176.333963 
L 497.703192 174.780496 
L 497.865551 176.333963 
L 498.109091 176.333963 
L 498.109091 176.333963 
" style="fill:none;stroke:#ff0000;stroke-linecap:square;stroke-width:1.5;"/>
   </g>
   <g id="line2d_15">
    <path clip-path="url(#pce53e6044d)" d="M 92.290909 55.876826 
L 92.453269 55.395586 
L 92.696808 55.776012 
L 92.777988 55.792178 
L 93.102708 57.0232 
L 93.183888 56.793389 
L 93.265068 57.658966 
L 93.670967 72.216347 
L 94.482766 117.213416 
L 95.051025 139.093565 
L 95.294564 146.270577 
L 95.456924 144.570228 
L 95.619284 145.267731 
L 95.700464 144.141031 
L 95.781644 144.527904 
L 96.025183 153.876585 
L 96.431083 178.388321 
L 97.242881 219.372267 
L 97.567601 230.166159 
L 98.21704 237.493265 
L 98.704119 206.75211 
L 98.785299 204.686546 
L 98.866479 204.78266 
L 99.028838 205.12756 
L 99.272378 203.991983 
L 99.434738 207.080986 
L 99.515918 207.063178 
L 99.678277 204.64446 
L 99.840637 203.296358 
L 100.084177 202.22109 
L 100.246537 202.007789 
L 100.408896 203.507798 
L 100.490076 203.147716 
L 100.571256 203.180529 
L 100.733616 204.174 
L 100.814796 204.037631 
L 100.895976 204.034211 
L 101.058335 203.853759 
L 101.220695 203.133115 
L 101.383055 203.185732 
L 101.626594 203.543425 
L 101.951314 203.53021 
L 102.276033 202.482682 
L 102.763113 204.134017 
L 103.331372 202.151027 
L 103.656091 202.151027 
L 103.899631 203.030049 
L 103.980811 203.194632 
L 104.30553 202.416334 
L 104.54907 202.151027 
L 105.604408 202.151027 
L 105.766768 201.656264 
L 105.929128 201.824445 
L 106.010308 202.445626 
L 106.172667 199.812417 
L 106.253847 200.515134 
L 106.416207 202.265221 
L 106.740926 206.3076 
L 106.903286 204.784835 
L 107.309185 207.387787 
L 108.364524 228.803071 
L 108.608063 232.269439 
L 109.176323 241.809944 
L 109.419862 243.012465 
L 109.582222 242.759608 
L 110.069301 239.666901 
L 110.150481 239.640347 
L 110.394021 238.940263 
L 110.4752 238.737505 
L 110.79992 237.282335 
L 110.8811 237.264118 
L 111.04346 237.902862 
L 111.205819 238.181553 
L 111.449359 239.190815 
L 111.855258 240.314027 
L 111.936438 240.113041 
L 112.342338 239.669432 
L 112.504697 239.609935 
L 112.829417 240.691256 
L 113.235316 240.980446 
L 113.884755 240.996502 
L 114.047115 240.996502 
L 114.290654 240.81111 
L 114.371834 240.860767 
L 114.534194 240.439602 
L 114.696554 240.565675 
L 114.858914 240.90336 
L 115.102453 239.948319 
L 115.427173 239.504597 
L 115.995432 239.546544 
L 116.320151 240.680948 
L 116.563691 240.953331 
L 118.187288 240.953331 
L 118.430828 240.228945 
L 118.512008 240.077731 
L 118.917907 240.986564 
L 119.080267 241.11064 
L 120.866224 241.11064 
L 120.947404 241.228079 
L 121.028584 240.891499 
L 121.272124 241.17262 
L 122.165102 241.332477 
L 124.113419 241.290299 
L 124.275779 240.809459 
L 124.519318 240.946931 
L 124.681678 241.042206 
L 125.087578 241.022414 
L 125.493477 241.133428 
L 125.737016 241.306486 
L 126.061736 241.397722 
L 126.305276 241.362323 
L 127.279434 241.022414 
L 127.685333 241.022414 
L 127.928873 240.123198 
L 128.010053 240.336176 
L 128.172413 240.196929 
L 128.659492 241.165903 
L 128.984211 239.815964 
L 129.308931 239.806551 
L 129.55247 239.793739 
L 129.79601 239.554654 
L 129.95837 239.541895 
L 130.283089 238.754261 
L 130.607809 238.373414 
L 130.770169 238.210582 
L 131.013708 238.246819 
L 131.500787 237.575583 
L 131.744327 236.955788 
L 131.987867 236.447965 
L 132.474946 236.447965 
L 132.556126 236.31313 
L 132.799665 235.252725 
L 132.880845 235.076695 
L 133.124385 235.704642 
L 133.286745 235.493451 
L 133.367924 235.5516 
L 133.855004 234.730178 
L 133.936184 234.715582 
L 134.179723 234.034841 
L 134.260903 233.888335 
L 134.504443 232.709261 
L 134.829162 232.129182 
L 135.316241 231.916068 
L 135.397421 231.78059 
L 135.640961 232.473252 
L 136.615119 232.048618 
L 136.858659 232.152086 
L 137.183378 233.053393 
L 137.426918 233.209117 
L 137.589278 233.23528 
L 137.913997 232.331745 
L 138.157537 233.072054 
L 138.238717 232.971188 
L 138.319897 232.884754 
L 138.725796 230.5714 
L 138.888156 230.423226 
L 138.969336 230.587089 
L 139.781134 234.544907 
L 139.862314 234.690963 
L 140.187034 233.645247 
L 140.268214 233.516066 
L 140.511753 232.37555 
L 140.836473 231.926569 
L 142.135351 231.926569 
L 142.29771 231.05712 
L 142.54125 231.589456 
L 143.109509 231.922281 
L 143.677768 231.926569 
L 144.246027 228.18644 
L 144.489567 226.826978 
L 144.651927 225.924109 
L 144.895466 220.634033 
L 144.976646 219.688894 
L 145.301366 212.157506 
L 146.113164 188.303866 
L 146.762603 158.796025 
L 146.843783 157.128032 
L 147.330863 127.8993 
L 147.655582 120.180177 
L 147.736762 119.505359 
L 148.061481 113.131842 
L 148.223841 110.874732 
L 148.7921 104.429618 
L 148.87328 104.160304 
L 149.11682 102.14321 
L 149.198 101.883769 
L 150.334518 92.485938 
L 150.415698 92.630615 
L 150.496878 92.678675 
L 150.659237 92.003051 
L 150.821597 91.996153 
L 151.065137 91.737471 
L 151.146317 92.271416 
L 151.227496 92.258462 
L 151.552216 91.030001 
L 151.714576 90.918449 
L 151.958115 91.179502 
L 152.526374 89.491242 
L 152.688734 89.002204 
L 152.851094 89.558336 
L 152.932274 89.556902 
L 153.175813 88.919927 
L 153.338173 88.77762 
L 153.419353 88.879476 
L 153.744072 90.176324 
L 154.149972 90.728639 
L 154.231152 90.791076 
L 154.474691 91.911269 
L 154.961771 96.018526 
L 155.692389 107.724455 
L 156.179469 123.201244 
L 157.153627 152.626861 
L 157.397167 160.797961 
L 157.721886 165.911123 
L 157.803066 167.127175 
L 157.884246 166.784166 
L 158.290145 173.133255 
L 158.614865 185.066523 
L 159.345484 210.04473 
L 160.157282 228.856689 
L 160.563182 234.169216 
L 160.806721 233.020308 
L 161.131441 230.695186 
L 161.212621 230.551628 
L 161.293801 230.659313 
L 161.53734 230.440284 
L 161.78088 231.515265 
L 161.86206 231.590422 
L 162.430319 235.245261 
L 163.891556 240.324362 
L 164.297456 241.081665 
L 164.865715 241.278696 
L 165.109255 242.112556 
L 165.190434 242.197754 
L 165.352794 242.569697 
L 165.758694 242.400738 
L 166.002233 241.740012 
L 166.408133 240.984084 
L 166.651672 240.222545 
L 166.814032 240.114688 
L 167.057572 239.293791 
L 167.219931 239.061133 
L 167.382291 238.521807 
L 167.625831 238.43641 
L 167.95055 238.452307 
L 168.27527 239.360773 
L 168.599989 239.695204 
L 169.492968 239.713625 
L 170.548306 239.733868 
L 170.710666 239.446306 
L 170.873026 239.541448 
L 171.197745 239.912137 
L 171.522464 239.955803 
L 171.684824 240.284931 
L 171.847184 240.218165 
L 172.171903 239.914932 
L 173.146062 239.914932 
L 173.308422 239.523516 
L 173.470781 239.630839 
L 173.714321 239.955803 
L 174.44494 239.940019 
L 174.6073 240.378568 
L 174.769659 240.239887 
L 175.013199 239.914932 
L 175.094379 239.914932 
L 175.256739 239.523519 
L 175.419098 239.630839 
L 175.906178 240.28854 
L 176.068537 240.218165 
L 176.393257 239.914932 
L 177.367415 239.914932 
L 177.610955 239.410845 
L 177.773315 239.536343 
L 178.016854 240.655004 
L 178.260394 240.181756 
L 178.747473 241.34867 
L 178.828653 240.940092 
L 178.909833 241.089863 
L 179.153372 241.272888 
L 179.234552 241.288254 
L 179.396912 241.419729 
L 179.721632 241.419729 
L 179.965171 240.477962 
L 180.289891 240.027487 
L 181.751128 240.027487 
L 181.994668 239.790571 
L 183.293546 239.793739 
L 183.537086 238.86001 
L 183.780625 239.333365 
L 184.105345 238.68359 
L 184.348884 238.399432 
L 184.511244 238.393236 
L 184.673604 237.992256 
L 184.835964 238.148697 
L 185.079503 238.49397 
L 185.404223 238.437462 
L 186.297201 238.416961 
L 188.489058 238.416961 
L 188.651418 238.223773 
L 188.976137 238.428609 
L 189.138497 238.223773 
L 189.382036 237.247526 
L 189.706756 236.79391 
L 190.762094 236.79391 
L 191.005634 237.960291 
L 191.086814 238.146119 
L 191.249173 239.128684 
L 191.655073 238.057146 
L 191.898612 236.821721 
L 192.223332 235.900467 
L 192.548051 235.293069 
L 192.791591 236.240125 
L 193.116311 236.695441 
L 193.68457 236.695441 
L 193.846929 235.969665 
L 194.009289 236.298647 
L 194.252829 235.397301 
L 194.415188 235.185331 
L 194.577548 235.051797 
L 194.821088 235.051797 
L 195.145807 234.785963 
L 195.226987 234.78865 
L 195.551707 233.599647 
L 195.795246 233.291681 
L 196.038786 234.345927 
L 196.119966 234.527959 
L 196.363505 235.952945 
L 196.607045 236.425277 
L 196.688225 236.324221 
L 197.175304 233.909574 
L 197.500024 233.747281 
L 198.068283 236.143004 
L 198.393002 235.496965 
L 198.474182 235.314622 
L 198.717722 234.19823 
L 198.880081 233.879061 
L 199.042441 234.444456 
L 199.123621 234.243137 
L 199.204801 234.552048 
L 199.77306 233.177831 
L 199.93542 233.386438 
L 200.178959 232.373716 
L 200.828398 231.401818 
L 201.071938 230.743296 
L 201.396658 230.773747 
L 201.640197 230.007861 
L 201.721377 229.847891 
L 202.046096 228.015107 
L 202.695535 225.86994 
L 202.857895 225.806004 
L 202.939075 225.84159 
L 203.101435 225.3695 
L 203.182615 225.306957 
L 203.426154 225.871504 
L 203.507334 226.011802 
L 203.913234 227.554372 
L 203.994413 227.65544 
L 204.075593 227.975521 
L 204.156773 227.846441 
L 204.481493 228.438183 
L 205.049752 228.537947 
L 205.293291 228.754614 
L 205.536831 230.042774 
L 205.780371 230.293367 
L 206.26745 230.346313 
L 206.34863 229.912425 
L 206.42981 230.034679 
L 206.592169 230.17594 
L 206.754529 230.127184 
L 206.835709 230.280937 
L 207.079249 230.148535 
L 207.160428 230.147783 
L 207.809867 227.013902 
L 207.972227 227.013132 
L 208.134587 226.946766 
L 208.215767 226.916105 
L 208.865206 224.46397 
L 209.189925 223.847618 
L 209.433465 223.877331 
L 209.677004 223.104402 
L 209.758184 223.027678 
L 210.082904 221.96486 
L 210.326443 221.617187 
L 210.569983 221.748093 
L 210.651163 221.750908 
L 211.625321 225.851255 
L 211.706501 225.811041 
L 211.787681 225.347829 
L 211.868861 225.416873 
L 211.950041 225.391486 
L 212.193581 224.526822 
L 212.35594 224.500978 
L 212.43712 224.438524 
L 212.76184 223.588231 
L 213.086559 223.065836 
L 213.492458 222.973307 
L 213.654818 222.246363 
L 213.817178 222.498865 
L 214.385437 220.045936 
L 214.547797 219.230203 
L 214.791336 220.620415 
L 214.872516 220.236724 
L 215.116056 221.296738 
L 215.521955 217.425194 
L 215.603135 217.260398 
L 215.684315 217.501183 
L 215.846675 216.506847 
L 216.090214 217.980396 
L 216.171394 218.144369 
L 216.414934 220.10695 
L 216.496114 220.125001 
L 216.577294 220.541184 
L 216.658474 220.519951 
L 216.739653 220.480585 
L 216.820833 220.306894 
L 216.902013 220.616462 
L 216.983193 220.508046 
L 217.226733 220.232463 
L 217.389092 220.098393 
L 217.713812 221.057369 
L 218.038531 221.332733 
L 218.119711 221.34241 
L 218.282071 222.344848 
L 218.525611 224.0847 
L 218.60679 224.167806 
L 218.76915 222.988157 
L 219.09387 220.53623 
L 219.256229 220.245625 
L 219.337409 220.254828 
L 219.743309 221.914377 
L 219.986848 220.796957 
L 220.068028 220.92737 
L 220.311568 220.17699 
L 220.473928 220.168729 
L 220.636287 220.707426 
L 220.717467 220.6351 
L 220.961007 220.49796 
L 221.285726 219.070663 
L 221.366906 218.914975 
L 221.772805 219.974036 
L 222.097525 221.449783 
L 222.341065 222.363876 
L 222.584604 222.615169 
L 222.665784 222.615169 
L 222.746964 222.257967 
L 222.828144 222.344048 
L 223.071683 221.715257 
L 223.234043 222.255039 
L 223.396403 221.832775 
L 223.477583 222.019782 
L 223.721122 221.557311 
L 223.802302 221.942276 
L 223.883482 221.881955 
L 223.964662 221.736146 
L 224.289382 222.372096 
L 224.370561 222.498408 
L 224.695281 217.13898 
L 225.02 215.0313 
L 225.34472 214.412092 
L 225.588259 211.419683 
L 225.669439 210.932198 
L 225.994159 206.710343 
L 226.562418 203.84996 
L 227.049497 202.837347 
L 227.293037 202.371125 
L 227.455397 202.345347 
L 227.698936 201.692745 
L 228.023656 201.173301 
L 228.267195 200.041966 
L 228.510735 199.726887 
L 228.591915 199.798805 
L 228.673095 199.411137 
L 228.835454 200.066548 
L 228.916634 199.914421 
L 229.078994 198.980601 
L 229.241354 197.734883 
L 230.134332 195.702635 
L 230.702591 195.775602 
L 230.783771 195.822032 
L 231.108491 194.652321 
L 231.270851 194.66649 
L 231.92029 193.474906 
L 232.245009 192.624228 
L 232.488549 192.404693 
L 232.813268 192.475924 
L 232.975628 192.463989 
L 233.137988 192.813736 
L 233.300347 192.613283 
L 233.543887 192.229348 
L 233.706247 192.144921 
L 233.949786 192.290309 
L 234.193326 193.271662 
L 234.355686 192.930117 
L 234.436866 192.955332 
L 234.599225 193.240485 
L 234.680405 193.120176 
L 234.761585 193.194766 
L 235.167484 193.235822 
L 236.222823 193.032494 
L 236.466362 191.985523 
L 236.709902 192.714582 
L 236.953442 191.864573 
L 237.196981 191.439228 
L 237.440521 191.505955 
L 237.68406 192.577549 
L 238.00878 192.911965 
L 238.25232 192.748899 
L 238.333499 192.997881 
L 238.414679 192.92153 
L 238.495859 192.990266 
L 238.658219 192.708614 
L 238.901759 190.958759 
L 239.145298 191.614685 
L 239.632377 188.919448 
L 240.119457 185.846569 
L 240.444176 184.273914 
L 240.931255 180.380906 
L 241.093615 180.392313 
L 241.418335 174.750819 
L 242.473673 151.765386 
L 243.204292 139.472379 
L 243.366652 138.571543 
L 243.447831 138.678365 
L 243.691371 139.561933 
L 243.853731 139.164428 
L 243.934911 139.240068 
L 244.01609 138.992871 
L 244.25963 137.32477 
L 244.58435 137.25316 
L 244.746709 136.659185 
L 244.909069 135.737122 
L 245.071429 136.419987 
L 245.233789 136.247351 
L 245.396148 135.40293 
L 245.558508 134.726548 
L 245.639688 135.000377 
L 246.045587 132.876721 
L 246.207947 133.032255 
L 246.370307 133.447419 
L 246.451487 133.359086 
L 246.776206 131.759597 
L 246.938566 131.505217 
L 247.182106 130.424171 
L 247.344465 130.617703 
L 247.588005 130.243854 
L 247.750365 129.960674 
L 247.912724 130.048272 
L 248.156264 129.173878 
L 248.237444 129.08353 
L 248.562163 130.344431 
L 249.130422 128.707039 
L 249.617502 128.613716 
L 249.861041 128.671388 
L 250.023401 128.569733 
L 250.348121 127.365746 
L 250.59166 126.988663 
L 250.8352 127.164049 
L 250.99756 128.160412 
L 251.078739 127.956842 
L 251.484639 126.642311 
L 252.296437 121.284832 
L 252.458797 121.145761 
L 252.783517 119.907332 
L 253.027056 119.743466 
L 253.189416 119.830057 
L 253.351776 119.909311 
L 253.595315 120.978552 
L 253.676495 121.156487 
L 253.838855 120.48488 
L 254.001215 120.98628 
L 254.163575 120.451908 
L 254.244754 120.785365 
L 254.407114 120.338093 
L 254.650654 121.476539 
L 254.894193 122.553721 
L 255.056553 121.947467 
L 255.218913 122.279596 
L 255.462452 121.386416 
L 255.624812 121.766143 
L 255.868352 122.111724 
L 256.111891 122.364693 
L 256.274251 122.227755 
L 256.517791 121.290012 
L 256.92369 120.939488 
L 257.491949 120.854011 
L 257.654309 120.801803 
L 257.816669 121.029647 
L 258.060208 120.807646 
L 258.141388 120.770455 
L 258.222568 120.930741 
L 258.466108 120.130647 
L 258.547288 120.026836 
L 258.790827 120.31382 
L 259.034367 121.183782 
L 259.359086 120.691319 
L 259.440266 120.848157 
L 259.521446 120.985474 
L 259.602626 120.69958 
L 259.683806 120.999673 
L 259.927345 119.723566 
L 260.089705 119.659518 
L 260.170885 119.265723 
L 260.333245 117.725055 
L 260.576784 118.308767 
L 260.739144 118.014197 
L 260.820324 118.022624 
L 260.901504 117.557634 
L 261.063864 117.905123 
L 261.226223 117.305506 
L 261.307403 117.442017 
L 261.388583 117.344546 
L 261.794483 119.215209 
L 262.281562 118.15001 
L 262.443922 118.190164 
L 262.525101 118.508296 
L 262.606281 118.443762 
L 262.687461 118.197785 
L 262.768641 118.550857 
L 262.849821 117.850165 
L 263.012181 120.419884 
L 263.66162 150.955679 
L 264.392238 178.348948 
L 266.015836 231.635723 
L 266.746455 240.387169 
L 266.908814 241.153458 
L 267.395894 238.875083 
L 267.477074 238.941484 
L 267.558253 238.828122 
L 267.964153 240.293832 
L 268.045333 240.255369 
L 268.370052 240.127883 
L 268.775952 241.217993 
L 269.019491 241.033531 
L 269.58775 241.174825 
L 269.83129 242.077969 
L 269.99365 241.741431 
L 270.156009 242.164186 
L 270.480729 242.453592 
L 270.724268 238.537798 
L 271.292528 224.262326 
L 271.454887 223.922049 
L 271.536067 223.851263 
L 271.779607 222.458194 
L 272.023146 219.643044 
L 272.185506 220.992627 
L 272.429046 220.161321 
L 272.591406 220.976497 
L 272.672585 220.863577 
L 272.916125 221.063028 
L 273.159665 220.859464 
L 273.484384 220.835896 
L 273.727924 219.807058 
L 274.052643 219.353695 
L 274.296183 219.315052 
L 274.458543 219.26858 
L 274.702082 218.367596 
L 274.864442 218.014222 
L 275.107982 216.808125 
L 275.432701 216.323372 
L 275.8386 216.256698 
L 275.91978 216.256698 
L 276.16332 215.32299 
L 276.488039 216.05967 
L 276.812759 215.243351 
L 276.893939 215.095621 
L 277.056299 214.215763 
L 277.137478 214.279888 
L 277.299838 213.972163 
L 277.543378 214.303213 
L 277.786917 213.812824 
L 278.192817 213.099392 
L 278.598716 212.149251 
L 279.085795 211.838041 
L 279.410515 210.625378 
L 279.654054 210.324521 
L 279.735234 210.324521 
L 279.897594 211.067731 
L 280.141134 210.651471 
L 280.303493 211.201914 
L 280.465853 211.484075 
L 280.709393 211.768417 
L 281.115292 211.805513 
L 281.277652 211.124105 
L 281.521192 211.488792 
L 281.683551 210.989911 
L 281.927091 210.573473 
L 282.089451 210.437637 
L 283.063609 210.348367 
L 283.307149 209.357468 
L 283.631868 208.8915 
L 284.606027 208.8915 
L 284.849566 207.855219 
L 285.336646 206.891241 
L 285.417825 206.881238 
L 285.986084 204.502117 
L 286.310804 203.945025 
L 286.473164 203.936942 
L 286.554344 203.983076 
L 286.879063 202.951032 
L 287.609682 200.924799 
L 287.853222 199.791124 
L 288.096761 201.236863 
L 288.340301 202.230074 
L 288.502661 202.20317 
L 288.66502 201.276277 
L 289.1521 202.20317 
L 289.395639 201.164951 
L 289.639179 200.784501 
L 289.801538 200.770243 
L 290.126258 199.486095 
L 290.369798 199.279123 
L 290.450977 199.317038 
L 290.694517 198.21144 
L 290.938057 197.872532 
L 291.262776 197.872532 
L 291.506316 196.855007 
L 291.831035 196.378645 
L 292.155755 196.378633 
L 292.399294 195.216317 
L 292.642834 194.925937 
L 292.805194 194.978329 
L 292.967554 194.14384 
L 293.211093 194.548853 
L 293.373453 193.956643 
L 293.454633 193.865199 
L 293.698172 193.279716 
L 293.860532 193.394573 
L 294.104072 193.568982 
L 294.266431 193.612425 
L 294.509971 192.612192 
L 294.834691 192.142384 
L 295.24059 192.14239 
L 295.48413 191.013047 
L 295.646489 191.587467 
L 295.808849 191.849847 
L 295.890029 192.001292 
L 296.133569 193.282187 
L 296.295928 193.582849 
L 296.701828 192.174752 
L 297.026547 193.321998 
L 297.107727 193.472743 
L 297.351267 194.753609 
L 297.513626 195.055053 
L 297.838346 193.906089 
L 297.919526 193.755118 
L 298.325425 191.539093 
L 298.406605 191.842653 
L 298.487785 190.803172 
L 298.568965 191.146584 
L 298.893684 198.569644 
L 300.436102 226.1784 
L 300.842001 230.726087 
L 301.49144 242.719741 
L 301.57262 243.267891 
L 301.73498 242.88211 
L 302.059699 239.968793 
L 302.303239 238.926651 
L 302.627958 238.521869 
L 302.790318 238.521869 
L 302.871498 238.891468 
L 302.952678 238.776145 
L 303.033858 238.715525 
L 303.115038 238.437195 
L 303.277397 238.844712 
L 303.439757 238.549348 
L 303.683297 238.352572 
L 303.845656 238.234976 
L 303.926836 238.234976 
L 304.251556 239.123552 
L 304.495095 239.43504 
L 304.738635 239.447263 
L 305.063354 240.523538 
L 305.388074 241.016176 
L 305.631614 241.015735 
L 306.037513 241.085232 
L 306.281053 241.085232 
L 306.524592 240.800784 
L 307.092851 240.90336 
L 307.336391 240.914202 
L 307.90465 240.953331 
L 308.22937 241.052953 
L 308.554089 241.11064 
L 309.852967 241.190484 
L 310.015327 241.30301 
L 310.340046 240.181874 
L 310.583586 239.934609 
L 310.745946 239.934609 
L 310.989485 239.682751 
L 311.476564 239.692934 
L 312.937802 239.692943 
L 313.181342 239.948929 
L 313.830781 239.934609 
L 314.39904 239.934609 
L 314.5614 240.267591 
L 314.886119 241.153319 
L 314.967299 241.212129 
L 315.210839 240.302694 
L 315.292018 240.635774 
L 315.373198 240.592532 
L 315.535558 240.764146 
L 315.779098 241.022414 
L 316.428537 241.133428 
L 316.590896 241.282251 
L 316.753256 240.537826 
L 316.996796 240.904344 
L 317.077976 240.864755 
L 317.321515 240.110271 
L 317.483875 240.534223 
L 317.565055 240.599554 
L 317.808594 240.110884 
L 318.133314 239.668759 
L 318.945113 239.646848 
L 319.107472 239.238887 
L 319.269832 239.383535 
L 319.513372 239.75119 
L 319.838091 239.52156 
L 320.243991 239.572082 
L 320.40635 239.170637 
L 320.56871 239.307572 
L 320.89343 238.493893 
L 321.299329 237.991646 
L 321.461689 237.99702 
L 321.624048 237.755361 
L 321.867588 237.966019 
L 322.029948 237.585788 
L 322.111128 237.622455 
L 322.192308 237.86546 
L 322.517027 236.893038 
L 323.734725 235.111303 
L 323.815905 235.111303 
L 324.140624 233.976636 
L 325.033603 232.004111 
L 325.277143 231.75227 
L 325.439502 231.603667 
L 326.170121 231.811255 
L 326.494841 230.670797 
L 326.73838 230.087622 
L 327.30664 228.818757 
L 327.387819 228.763556 
L 327.631359 228.430787 
L 327.874899 228.536501 
L 328.037258 228.511221 
L 328.118438 228.469282 
L 328.443158 227.497701 
L 328.767877 227.0248 
L 329.336136 226.670668 
L 329.579676 226.020679 
L 329.742036 225.885146 
L 330.472655 223.154062 
L 330.716194 222.785974 
L 331.122094 221.610568 
L 331.365633 221.322961 
L 332.015072 219.85209 
L 332.258612 219.985271 
L 332.502151 220.080953 
L 332.989231 221.463194 
L 333.23277 221.143421 
L 333.39513 220.480923 
L 333.55749 220.644581 
L 333.801029 220.082244 
L 333.963389 219.859995 
L 334.206929 219.011119 
L 334.531648 218.20674 
L 334.694008 218.22514 
L 334.775188 218.607866 
L 334.856368 218.559539 
L 335.018727 218.538454 
L 335.424627 218.305574 
L 335.668166 218.963574 
L 335.992886 219.729274 
L 336.236425 220.974915 
L 336.804685 221.960919 
L 336.885864 221.847004 
L 337.048224 221.710877 
L 337.210584 222.278773 
L 337.372944 221.964481 
L 337.616483 221.740134 
L 337.778843 221.593803 
L 338.103563 221.537405 
L 338.428282 220.971685 
L 338.996541 220.999063 
L 339.077721 221.11548 
L 339.158901 221.473896 
L 339.240081 221.439508 
L 339.80834 220.949948 
L 340.051879 221.086347 
L 340.457779 220.945486 
L 343.055535 220.945486 
L 343.136715 220.662697 
L 343.217894 220.754538 
L 343.623794 221.052551 
L 343.948513 221.325213 
L 344.760312 220.948645 
L 345.085032 221.012569 
L 345.166211 221.098217 
L 345.409751 214.819813 
L 345.734471 212.081624 
L 345.89683 212.157631 
L 345.97801 212.142371 
L 346.30273 210.695027 
L 346.546269 207.052161 
L 346.627449 206.65711 
L 346.870989 204.048149 
L 347.358068 200.16681 
L 347.520428 199.909562 
L 348.332226 195.596755 
L 348.413406 195.511438 
L 348.819306 192.066454 
L 349.225205 190.098024 
L 349.549925 185.947015 
L 351.011162 168.147041 
L 351.092342 168.435401 
L 351.173522 168.47917 
L 351.254702 168.371044 
L 351.498241 166.719679 
L 351.579421 166.738097 
L 351.741781 166.365316 
L 351.904141 164.514919 
L 351.985321 164.158672 
L 352.066501 164.211377 
L 352.14768 164.312392 
L 352.22886 164.169042 
L 352.4724 162.566709 
L 353.040659 157.171896 
L 353.121839 156.906719 
L 353.527738 153.134495 
L 354.095997 148.701153 
L 354.177177 148.349599 
L 354.420717 145.564245 
L 354.501897 145.43949 
L 354.988976 142.459467 
L 355.151336 142.25976 
L 355.313695 141.472858 
L 355.476055 141.834984 
L 355.638415 141.770865 
L 356.044314 140.504702 
L 356.287854 141.471542 
L 356.369034 141.569783 
L 356.531394 141.050795 
L 357.099653 140.567411 
L 357.262012 139.777308 
L 357.343192 139.854583 
L 357.749092 138.765253 
L 357.830272 138.863541 
L 358.073811 136.832236 
L 358.236171 136.52163 
L 358.398531 136.926554 
L 358.56089 136.592588 
L 358.88561 135.306882 
L 359.129149 135.841064 
L 359.291509 135.932431 
L 359.372689 135.869141 
L 359.535049 135.317051 
L 359.697409 135.567875 
L 359.859768 136.036587 
L 360.022128 135.419571 
L 360.103308 135.469325 
L 360.265668 135.574299 
L 360.509207 135.335481 
L 360.752747 133.720786 
L 360.833927 133.666705 
L 361.077466 134.475889 
L 361.158646 134.521259 
L 361.402186 133.792052 
L 361.889265 133.486234 
L 362.051625 133.243801 
L 362.376344 133.659617 
L 362.701064 133.486234 
L 362.944603 133.486234 
L 363.106963 134.304806 
L 363.350503 134.169313 
L 363.512863 133.885706 
L 363.675222 133.652423 
L 363.756402 133.649519 
L 363.918762 132.549154 
L 364.324661 133.585767 
L 364.405841 133.470412 
L 364.568201 133.488439 
L 364.89292 133.782179 
L 365.05528 133.298024 
L 365.21764 134.161526 
L 365.29882 134.294743 
L 365.623539 136.49552 
L 365.867079 141.093818 
L 366.516518 159.934969 
L 366.597698 160.135031 
L 368.302475 209.685768 
L 368.546015 214.738265 
L 369.033094 226.392187 
L 369.438993 233.80415 
L 369.601353 235.332895 
L 369.763713 235.634191 
L 370.169612 232.672529 
L 370.413152 229.816969 
L 370.656691 228.614606 
L 370.900231 228.942919 
L 370.981411 228.59716 
L 371.30613 229.48663 
L 371.38731 229.548432 
L 371.63085 230.798553 
L 371.71203 230.554704 
L 372.117929 232.423779 
L 372.280289 232.231776 
L 372.442649 232.72506 
L 372.605008 232.623221 
L 372.767368 232.817432 
L 372.929728 233.650596 
L 373.010908 233.625072 
L 373.254447 234.315683 
L 373.497987 234.401696 
L 373.985066 234.373044 
L 374.228606 235.25351 
L 374.553325 235.748486 
L 374.796865 235.417642 
L 374.878045 235.435906 
L 375.121584 236.814213 
L 375.365124 237.055781 
L 375.527484 237.187228 
L 376.501642 233.157955 
L 376.664002 233.414412 
L 376.745182 233.461971 
L 376.988721 234.366265 
L 377.313441 234.758744 
L 378.531139 229.103685 
L 378.612319 229.210902 
L 378.937038 230.163922 
L 379.099398 230.121933 
L 379.424118 228.975298 
L 379.586477 228.653883 
L 379.748837 227.878696 
L 379.830017 227.788313 
L 379.911197 228.023451 
L 379.992377 227.827916 
L 380.235916 228.388706 
L 380.560636 227.334606 
L 380.885355 226.222134 
L 381.372434 225.179228 
L 381.453614 225.401009 
L 382.021873 224.150455 
L 382.103053 224.196073 
L 382.427773 223.636149 
L 383.401931 218.962282 
L 383.645471 218.327287 
L 383.889011 217.665186 
L 384.13255 217.087465 
L 384.29491 216.602125 
L 384.781989 213.257877 
L 384.863169 213.113863 
L 385.106709 212.213341 
L 385.350248 211.895601 
L 385.674968 211.500128 
L 385.918507 211.080597 
L 386.567946 212.273828 
L 386.730306 213.255744 
L 386.811486 213.19505 
L 387.055026 215.49523 
L 387.136205 215.461914 
L 387.217385 215.562176 
L 387.785644 218.195978 
L 388.110364 219.323745 
L 388.353904 219.592561 
L 388.597443 218.710522 
L 388.678623 218.888083 
L 388.922163 218.399306 
L 389.003342 218.737372 
L 389.084522 218.649739 
L 389.246882 218.399306 
L 389.409242 218.933114 
L 389.490422 218.634527 
L 389.733961 219.358039 
L 389.815141 219.025892 
L 389.896321 219.074456 
L 390.058681 219.322394 
L 390.139861 219.007302 
L 390.3834 213.77453 
L 390.54576 212.807287 
L 390.87048 210.385997 
L 390.951659 210.148287 
L 391.195199 206.06176 
L 391.276379 205.571779 
L 391.519919 200.454494 
L 392.412897 194.101001 
L 392.656437 193.35945 
L 392.899976 193.744735 
L 393.224696 193.106273 
L 393.630595 188.184818 
L 393.792955 185.757685 
L 394.848293 115.174312 
L 395.091833 98.387827 
L 395.335373 86.531438 
L 395.578912 80.312151 
L 396.309531 65.785135 
L 396.63425 54.900528 
L 396.95897 50.900756 
L 398.014308 44.64 
L 398.176668 45.343417 
L 398.339028 45.122567 
L 398.582567 46.730767 
L 398.744927 48.137317 
L 398.907287 48.106241 
L 399.069647 48.55484 
L 399.232006 48.02861 
L 399.313186 48.181382 
L 399.556726 49.153034 
L 399.637906 49.037288 
L 399.800266 48.471425 
L 399.962625 49.243039 
L 400.287345 48.156493 
L 400.368525 48.154407 
L 400.449704 48.035057 
L 400.612064 48.317207 
L 400.774424 48.319909 
L 400.936784 47.653091 
L 401.017964 48.02477 
L 401.180323 47.779101 
L 401.342683 48.325195 
L 401.586223 48.330433 
L 401.667403 48.158034 
L 402.073302 49.297748 
L 402.316842 51.174704 
L 402.398021 51.30555 
L 403.12864 59.992628 
L 403.37218 66.477624 
L 404.021619 96.871539 
L 404.346338 110.383834 
L 404.671058 124.5327 
L 404.914597 127.231818 
L 405.076957 127.728643 
L 405.158137 127.691214 
L 405.239317 127.451413 
L 405.401677 127.928326 
L 405.564036 127.30984 
L 405.645216 127.440094 
L 405.807576 127.566199 
L 406.051116 129.766443 
L 406.294655 130.336502 
L 406.457015 130.24274 
L 406.700555 131.070047 
L 406.862914 131.23319 
L 407.349994 129.555667 
L 407.431174 129.484662 
L 407.837073 129.883067 
L 407.999433 129.719071 
L 408.161792 129.850379 
L 408.405332 130.78049 
L 408.730051 131.130504 
L 409.054771 132.293056 
L 409.37949 131.410887 
L 409.70421 134.112032 
L 410.028929 142.334357 
L 410.516009 163.812285 
L 410.840728 172.683139 
L 411.733707 198.91721 
L 412.789045 223.213251 
L 413.519664 235.498838 
L 413.600844 235.430096 
L 413.925563 232.986865 
L 414.169103 229.858392 
L 414.412643 228.369874 
L 414.493822 228.58385 
L 414.575002 228.709855 
L 415.305621 234.810558 
L 415.549161 236.789131 
L 416.523319 240.29123 
L 416.685679 240.894095 
L 416.766859 240.812372 
L 416.929219 240.502166 
L 417.091578 240.495271 
L 417.253938 241.149891 
L 417.416298 241.249845 
L 417.497478 241.339603 
L 417.741017 240.655194 
L 417.903377 241.016956 
L 418.065737 240.603726 
L 418.309276 240.46072 
L 418.552816 240.975921 
L 418.715176 241.010369 
L 418.796356 240.767897 
L 419.202255 237.952057 
L 419.689334 236.085302 
L 419.770514 236.371042 
L 419.851694 236.134248 
L 420.257593 236.698034 
L 420.419953 236.820492 
L 421.069392 236.874359 
L 421.394112 237.870823 
L 421.475291 238.021163 
L 421.556471 237.729396 
L 421.637651 237.864364 
L 422.12473 236.134609 
L 422.69299 236.870365 
L 422.774169 236.8136 
L 423.098889 238.036147 
L 423.342428 238.329422 
L 424.235407 238.329422 
L 424.316587 237.788532 
L 424.397767 237.961589 
L 424.641306 237.013697 
L 424.722486 237.267861 
L 425.047206 236.84883 
L 425.128386 236.832749 
L 425.290745 236.698517 
L 425.534285 236.698517 
L 425.940184 236.166894 
L 426.021364 236.198338 
L 426.183724 236.594847 
L 426.346084 235.907969 
L 426.427264 236.182678 
L 426.589623 237.057313 
L 426.670803 237.042874 
L 426.995523 236.529788 
L 427.157882 236.532325 
L 427.320242 236.298757 
L 427.726142 236.783282 
L 428.050861 238.135873 
L 428.294401 238.416961 
L 428.375581 238.416961 
L 428.45676 238.301594 
L 428.7003 237.243463 
L 429.106199 236.544932 
L 429.674459 236.515107 
L 429.836818 236.097714 
L 429.999178 236.295797 
L 430.242718 237.611516 
L 430.486257 236.986749 
L 430.810977 236.447965 
L 431.135696 236.55591 
L 431.298056 236.574076 
L 431.622775 236.447666 
L 431.866315 236.447965 
L 432.109855 235.508482 
L 432.434574 235.0518 
L 433.246373 235.051797 
L 433.408733 234.938208 
L 433.571092 235.003572 
L 433.814632 235.140886 
L 434.220531 235.111303 
L 434.545251 235.054722 
L 434.707611 234.959592 
L 435.03233 235.111887 
L 435.681769 235.098906 
L 435.925309 234.186179 
L 436.331208 233.280765 
L 436.412388 233.421262 
L 436.574748 233.568355 
L 436.818287 232.723632 
L 436.980647 233.047956 
L 437.305367 233.321705 
L 437.548906 233.147033 
L 437.711266 233.248999 
L 437.792446 233.248999 
L 438.035985 233.843979 
L 438.117165 233.785955 
L 438.360705 232.551324 
L 438.685424 232.093042 
L 439.172504 232.093042 
L 439.253683 232.509644 
L 439.334863 232.374142 
L 439.497223 232.265928 
L 439.578403 232.657604 
L 439.659583 232.506064 
L 440.065482 231.725396 
L 440.714921 231.811255 
L 441.039641 230.670797 
L 441.44554 230.102173 
L 441.6079 230.251959 
L 441.932619 231.453119 
L 442.013799 231.131894 
L 442.257339 231.596958 
L 442.744418 231.811255 
L 446.072793 231.811255 
L 447.290491 225.592294 
L 447.53403 222.559423 
L 447.61521 222.114095 
L 448.02111 215.49053 
L 448.751729 208.973356 
L 448.995268 207.842869 
L 449.807067 194.478648 
L 449.888247 194.516628 
L 449.969427 194.186816 
L 450.294146 191.453847 
L 450.781225 189.868415 
L 451.349484 183.436302 
L 451.511844 182.99213 
L 451.917744 177.575462 
L 452.567183 171.16345 
L 452.648362 170.706342 
L 453.054262 164.954902 
L 453.297801 162.336282 
L 453.86606 152.442254 
L 454.27196 148.21381 
L 455.164938 143.510278 
L 455.489658 142.711796 
L 455.570838 142.840734 
L 455.652018 143.201202 
L 455.895557 142.299678 
L 456.057917 141.08026 
L 456.301457 141.413917 
L 456.463816 141.90177 
L 456.544996 142.04256 
L 456.869716 139.566164 
L 456.950896 139.69419 
L 457.113255 140.298323 
L 457.762694 137.378792 
L 457.925054 137.428274 
L 458.168594 136.517186 
L 458.493313 136.143705 
L 458.736853 136.808971 
L 458.818033 136.727287 
L 459.142752 136.142354 
L 459.386292 136.176263 
L 459.548652 136.096072 
L 459.629831 136.368064 
L 460.116911 134.782489 
L 460.928709 134.782489 
L 461.172249 133.883798 
L 461.334609 134.247738 
L 461.496968 134.029839 
L 461.578148 133.688987 
L 461.740508 134.106604 
L 461.902868 133.722445 
L 462.389947 133.616654 
L 462.471127 133.525464 
L 462.633487 134.180336 
L 462.714667 133.653869 
L 462.958206 137.857293 
L 463.120566 142.434447 
L 463.445285 163.044973 
L 464.094724 182.290971 
L 465.312422 214.562156 
L 465.799502 222.099238 
L 465.880682 222.079333 
L 466.124221 226.330266 
L 466.448941 231.295384 
L 466.530121 231.361518 
L 467.09838 228.381382 
L 467.260739 227.041885 
L 467.341919 226.860887 
L 467.423099 226.152782 
L 467.504279 226.202258 
L 467.585459 226.331789 
L 467.991358 214.186743 
L 468.153718 213.189023 
L 468.234898 213.707069 
L 468.316078 213.441797 
L 468.640797 210.979617 
L 468.721977 210.612075 
L 469.127876 203.875934 
L 469.209056 204.59429 
L 469.371416 205.109515 
L 469.452596 204.999523 
L 469.696136 207.13602 
L 469.858495 207.262825 
L 470.102035 207.827532 
L 470.264395 207.309238 
L 470.345575 207.205503 
L 470.507934 207.583778 
L 470.589114 207.54949 
L 470.832654 206.826475 
L 471.238553 206.171835 
L 471.482093 206.194751 
L 471.725632 205.099773 
L 471.969172 205.585937 
L 472.131532 204.067379 
L 472.212712 202.226038 
L 473.10569 216.22212 
L 473.26805 211.615478 
L 473.34923 211.82357 
L 473.51159 211.27491 
L 473.592769 211.409087 
L 474.404568 224.778879 
L 474.810468 235.461101 
L 475.135187 240.868838 
L 475.216367 241.184022 
L 475.459907 239.466771 
L 475.865806 233.387016 
L 476.352885 229.472176 
L 476.434065 229.176454 
L 476.515245 229.271599 
L 476.758784 229.943747 
L 477.245864 233.150461 
L 477.327044 233.630536 
L 477.408223 233.491385 
L 477.651763 233.286825 
L 478.220022 235.829251 
L 478.301202 235.605375 
L 478.382382 235.746435 
L 478.463562 235.676511 
L 478.869461 226.054197 
L 479.113001 224.583581 
L 479.43772 222.870479 
L 479.68126 219.628152 
L 479.76244 219.097289 
L 480.087159 214.502594 
L 480.330699 212.490844 
L 480.411879 212.58332 
L 480.493059 212.46941 
L 481.304857 206.78049 
L 481.548397 207.042194 
L 481.873116 205.180556 
L 482.279016 202.794461 
L 482.441376 201.420095 
L 482.847275 199.01221 
L 482.928455 198.835176 
L 483.253174 197.139497 
L 483.415534 196.830651 
L 483.659074 195.42051 
L 483.902613 193.748575 
L 484.064973 192.366547 
L 484.227333 192.632281 
L 484.470872 191.206377 
L 484.795592 190.571358 
L 484.957952 190.082551 
L 485.201491 190.553479 
L 485.363851 190.353725 
L 485.445031 190.312842 
L 485.85093 188.822557 
L 486.01329 188.262609 
L 486.25683 189.026945 
L 486.500369 188.362889 
L 486.662729 188.931993 
L 486.743909 189.258326 
L 486.987448 188.23996 
L 487.230988 190.518919 
L 487.474528 190.836061 
L 487.555708 190.681297 
L 487.636887 190.556229 
L 487.880427 189.376645 
L 488.123967 190.316978 
L 488.448686 189.260928 
L 488.692226 189.066596 
L 488.854585 189.066596 
L 489.098125 188.054049 
L 489.422845 187.364665 
L 489.585204 187.724883 
L 490.234643 184.84284 
L 490.478183 184.543648 
L 490.640543 184.54062 
L 490.802902 184.676805 
L 490.965262 184.921674 
L 491.046442 184.922361 
L 491.208802 184.719632 
L 491.371162 183.404616 
L 491.614701 182.771925 
L 491.695881 182.431761 
L 491.939421 183.148535 
L 492.10178 182.842587 
L 492.26414 183.178082 
L 492.34532 183.233034 
L 492.50768 182.485812 
L 492.58886 182.499021 
L 492.832399 181.857151 
L 493.238299 179.535661 
L 493.481838 178.795414 
L 493.806558 178.973716 
L 493.887738 178.96888 
L 494.131277 177.995201 
L 494.455997 177.509292 
L 494.780716 177.509304 
L 495.024256 176.492425 
L 495.186616 176.244007 
L 495.511335 177.299109 
L 495.754875 177.687879 
L 495.836054 177.631131 
L 496.160774 176.568266 
L 496.404314 176.217197 
L 496.485493 176.249731 
L 496.729033 175.136305 
L 497.053753 174.521921 
L 497.134932 175.098059 
L 497.216112 174.972013 
L 497.378472 174.989281 
L 497.703192 176.085107 
L 497.784371 175.893614 
L 497.946731 176.468626 
L 498.109091 176.464727 
L 498.109091 176.464727 
" style="fill:none;stroke:#008000;stroke-linecap:square;stroke-width:1.5;"/>
   </g>
   <g id="patch_3">
    <path d="M 72 256.32 
L 72 34.56 
" style="fill:none;stroke:#000000;stroke-linecap:square;stroke-linejoin:miter;stroke-width:0.8;"/>
   </g>
   <g id="patch_4">
    <path d="M 518.4 256.32 
L 518.4 34.56 
" style="fill:none;stroke:#000000;stroke-linecap:square;stroke-linejoin:miter;stroke-width:0.8;"/>
   </g>
   <g id="patch_5">
    <path d="M 72 256.32 
L 518.4 256.32 
" style="fill:none;stroke:#000000;stroke-linecap:square;stroke-linejoin:miter;stroke-width:0.8;"/>
   </g>
   <g id="patch_6">
    <path d="M 72 34.56 
L 518.4 34.56 
" style="fill:none;stroke:#000000;stroke-linecap:square;stroke-linejoin:miter;stroke-width:0.8;"/>
   </g>
   <g id="legend_1">
    <g id="patch_7">
     <path d="M 227.602344 71.91625 
L 362.797656 71.91625 
Q 364.797656 71.91625 364.797656 69.91625 
L 364.797656 41.56 
Q 364.797656 39.56 362.797656 39.56 
L 227.602344 39.56 
Q 225.602344 39.56 225.602344 41.56 
L 225.602344 69.91625 
Q 225.602344 71.91625 227.602344 71.91625 
z
" style="fill:#ffffff;opacity:0.8;stroke:#cccccc;stroke-linejoin:miter;"/>
    </g>
    <g id="line2d_16">
     <path d="M 229.602344 47.658437 
L 249.602344 47.658437 
" style="fill:none;stroke:#ff0000;stroke-linecap:square;stroke-width:1.5;"/>
    </g>
    <g id="line2d_17"/>
    <g id="text_14">
     <!-- True -->
     <defs>
      <path d="M -0.296875 72.90625 
L 61.375 72.90625 
L 61.375 64.59375 
L 35.5 64.59375 
L 35.5 0 
L 25.59375 0 
L 25.59375 64.59375 
L -0.296875 64.59375 
z
" id="DejaVuSans-84"/>
      <path d="M 41.109375 46.296875 
Q 39.59375 47.171875 37.8125 47.578125 
Q 36.03125 48 33.890625 48 
Q 26.265625 48 22.1875 43.046875 
Q 18.109375 38.09375 18.109375 28.8125 
L 18.109375 0 
L 9.078125 0 
L 9.078125 54.6875 
L 18.109375 54.6875 
L 18.109375 46.1875 
Q 20.953125 51.171875 25.484375 53.578125 
Q 30.03125 56 36.53125 56 
Q 37.453125 56 38.578125 55.875 
Q 39.703125 55.765625 41.0625 55.515625 
z
" id="DejaVuSans-114"/>
      <path d="M 8.5 21.578125 
L 8.5 54.6875 
L 17.484375 54.6875 
L 17.484375 21.921875 
Q 17.484375 14.15625 20.5 10.265625 
Q 23.53125 6.390625 29.59375 6.390625 
Q 36.859375 6.390625 41.078125 11.03125 
Q 45.3125 15.671875 45.3125 23.6875 
L 45.3125 54.6875 
L 54.296875 54.6875 
L 54.296875 0 
L 45.3125 0 
L 45.3125 8.40625 
Q 42.046875 3.421875 37.71875 1 
Q 33.40625 -1.421875 27.6875 -1.421875 
Q 18.265625 -1.421875 13.375 4.4375 
Q 8.5 10.296875 8.5 21.578125 
z
M 31.109375 56 
z
" id="DejaVuSans-117"/>
      <path d="M 56.203125 29.59375 
L 56.203125 25.203125 
L 14.890625 25.203125 
Q 15.484375 15.921875 20.484375 11.0625 
Q 25.484375 6.203125 34.421875 6.203125 
Q 39.59375 6.203125 44.453125 7.46875 
Q 49.3125 8.734375 54.109375 11.28125 
L 54.109375 2.78125 
Q 49.265625 0.734375 44.1875 -0.34375 
Q 39.109375 -1.421875 33.890625 -1.421875 
Q 20.796875 -1.421875 13.15625 6.1875 
Q 5.515625 13.8125 5.515625 26.8125 
Q 5.515625 40.234375 12.765625 48.109375 
Q 20.015625 56 32.328125 56 
Q 43.359375 56 49.78125 48.890625 
Q 56.203125 41.796875 56.203125 29.59375 
z
M 47.21875 32.234375 
Q 47.125 39.59375 43.09375 43.984375 
Q 39.0625 48.390625 32.421875 48.390625 
Q 24.90625 48.390625 20.390625 44.140625 
Q 15.875 39.890625 15.1875 32.171875 
z
" id="DejaVuSans-101"/>
     </defs>
     <g transform="translate(257.602344 51.158437)scale(0.1 -0.1)">
      <use xlink:href="#DejaVuSans-84"/>
      <use x="46.333984" xlink:href="#DejaVuSans-114"/>
      <use x="87.447266" xlink:href="#DejaVuSans-117"/>
      <use x="150.826172" xlink:href="#DejaVuSans-101"/>
     </g>
    </g>
    <g id="line2d_18">
     <path d="M 229.602344 62.336562 
L 249.602344 62.336562 
" style="fill:none;stroke:#008000;stroke-linecap:square;stroke-width:1.5;"/>
    </g>
    <g id="line2d_19"/>
    <g id="text_15">
     <!-- Conv+BiLstm+Atten -->
     <defs>
      <path d="M 64.40625 67.28125 
L 64.40625 56.890625 
Q 59.421875 61.53125 53.78125 63.8125 
Q 48.140625 66.109375 41.796875 66.109375 
Q 29.296875 66.109375 22.65625 58.46875 
Q 16.015625 50.828125 16.015625 36.375 
Q 16.015625 21.96875 22.65625 14.328125 
Q 29.296875 6.6875 41.796875 6.6875 
Q 48.140625 6.6875 53.78125 8.984375 
Q 59.421875 11.28125 64.40625 15.921875 
L 64.40625 5.609375 
Q 59.234375 2.09375 53.4375 0.328125 
Q 47.65625 -1.421875 41.21875 -1.421875 
Q 24.65625 -1.421875 15.125 8.703125 
Q 5.609375 18.84375 5.609375 36.375 
Q 5.609375 53.953125 15.125 64.078125 
Q 24.65625 74.21875 41.21875 74.21875 
Q 47.75 74.21875 53.53125 72.484375 
Q 59.328125 70.75 64.40625 67.28125 
z
" id="DejaVuSans-67"/>
      <path d="M 30.609375 48.390625 
Q 23.390625 48.390625 19.1875 42.75 
Q 14.984375 37.109375 14.984375 27.296875 
Q 14.984375 17.484375 19.15625 11.84375 
Q 23.34375 6.203125 30.609375 6.203125 
Q 37.796875 6.203125 41.984375 11.859375 
Q 46.1875 17.53125 46.1875 27.296875 
Q 46.1875 37.015625 41.984375 42.703125 
Q 37.796875 48.390625 30.609375 48.390625 
z
M 30.609375 56 
Q 42.328125 56 49.015625 48.375 
Q 55.71875 40.765625 55.71875 27.296875 
Q 55.71875 13.875 49.015625 6.21875 
Q 42.328125 -1.421875 30.609375 -1.421875 
Q 18.84375 -1.421875 12.171875 6.21875 
Q 5.515625 13.875 5.515625 27.296875 
Q 5.515625 40.765625 12.171875 48.375 
Q 18.84375 56 30.609375 56 
z
" id="DejaVuSans-111"/>
      <path d="M 54.890625 33.015625 
L 54.890625 0 
L 45.90625 0 
L 45.90625 32.71875 
Q 45.90625 40.484375 42.875 44.328125 
Q 39.84375 48.1875 33.796875 48.1875 
Q 26.515625 48.1875 22.3125 43.546875 
Q 18.109375 38.921875 18.109375 30.90625 
L 18.109375 0 
L 9.078125 0 
L 9.078125 54.6875 
L 18.109375 54.6875 
L 18.109375 46.1875 
Q 21.34375 51.125 25.703125 53.5625 
Q 30.078125 56 35.796875 56 
Q 45.21875 56 50.046875 50.171875 
Q 54.890625 44.34375 54.890625 33.015625 
z
" id="DejaVuSans-110"/>
      <path d="M 2.984375 54.6875 
L 12.5 54.6875 
L 29.59375 8.796875 
L 46.6875 54.6875 
L 56.203125 54.6875 
L 35.6875 0 
L 23.484375 0 
z
" id="DejaVuSans-118"/>
      <path d="M 46 62.703125 
L 46 35.5 
L 73.1875 35.5 
L 73.1875 27.203125 
L 46 27.203125 
L 46 0 
L 37.796875 0 
L 37.796875 27.203125 
L 10.59375 27.203125 
L 10.59375 35.5 
L 37.796875 35.5 
L 37.796875 62.703125 
z
" id="DejaVuSans-43"/>
      <path d="M 19.671875 34.8125 
L 19.671875 8.109375 
L 35.5 8.109375 
Q 43.453125 8.109375 47.28125 11.40625 
Q 51.125 14.703125 51.125 21.484375 
Q 51.125 28.328125 47.28125 31.5625 
Q 43.453125 34.8125 35.5 34.8125 
z
M 19.671875 64.796875 
L 19.671875 42.828125 
L 34.28125 42.828125 
Q 41.5 42.828125 45.03125 45.53125 
Q 48.578125 48.25 48.578125 53.8125 
Q 48.578125 59.328125 45.03125 62.0625 
Q 41.5 64.796875 34.28125 64.796875 
z
M 9.8125 72.90625 
L 35.015625 72.90625 
Q 46.296875 72.90625 52.390625 68.21875 
Q 58.5 63.53125 58.5 54.890625 
Q 58.5 48.1875 55.375 44.234375 
Q 52.25 40.28125 46.1875 39.3125 
Q 53.46875 37.75 57.5 32.78125 
Q 61.53125 27.828125 61.53125 20.40625 
Q 61.53125 10.640625 54.890625 5.3125 
Q 48.25 0 35.984375 0 
L 9.8125 0 
z
" id="DejaVuSans-66"/>
      <path d="M 9.421875 54.6875 
L 18.40625 54.6875 
L 18.40625 0 
L 9.421875 0 
z
M 9.421875 75.984375 
L 18.40625 75.984375 
L 18.40625 64.59375 
L 9.421875 64.59375 
z
" id="DejaVuSans-105"/>
      <path d="M 9.8125 72.90625 
L 19.671875 72.90625 
L 19.671875 8.296875 
L 55.171875 8.296875 
L 55.171875 0 
L 9.8125 0 
z
" id="DejaVuSans-76"/>
      <path d="M 44.28125 53.078125 
L 44.28125 44.578125 
Q 40.484375 46.53125 36.375 47.5 
Q 32.28125 48.484375 27.875 48.484375 
Q 21.1875 48.484375 17.84375 46.4375 
Q 14.5 44.390625 14.5 40.28125 
Q 14.5 37.15625 16.890625 35.375 
Q 19.28125 33.59375 26.515625 31.984375 
L 29.59375 31.296875 
Q 39.15625 29.25 43.1875 25.515625 
Q 47.21875 21.78125 47.21875 15.09375 
Q 47.21875 7.46875 41.1875 3.015625 
Q 35.15625 -1.421875 24.609375 -1.421875 
Q 20.21875 -1.421875 15.453125 -0.5625 
Q 10.6875 0.296875 5.421875 2 
L 5.421875 11.28125 
Q 10.40625 8.6875 15.234375 7.390625 
Q 20.0625 6.109375 24.8125 6.109375 
Q 31.15625 6.109375 34.5625 8.28125 
Q 37.984375 10.453125 37.984375 14.40625 
Q 37.984375 18.0625 35.515625 20.015625 
Q 33.0625 21.96875 24.703125 23.78125 
L 21.578125 24.515625 
Q 13.234375 26.265625 9.515625 29.90625 
Q 5.8125 33.546875 5.8125 39.890625 
Q 5.8125 47.609375 11.28125 51.796875 
Q 16.75 56 26.8125 56 
Q 31.78125 56 36.171875 55.265625 
Q 40.578125 54.546875 44.28125 53.078125 
z
" id="DejaVuSans-115"/>
      <path d="M 18.3125 70.21875 
L 18.3125 54.6875 
L 36.8125 54.6875 
L 36.8125 47.703125 
L 18.3125 47.703125 
L 18.3125 18.015625 
Q 18.3125 11.328125 20.140625 9.421875 
Q 21.96875 7.515625 27.59375 7.515625 
L 36.8125 7.515625 
L 36.8125 0 
L 27.59375 0 
Q 17.1875 0 13.234375 3.875 
Q 9.28125 7.765625 9.28125 18.015625 
L 9.28125 47.703125 
L 2.6875 47.703125 
L 2.6875 54.6875 
L 9.28125 54.6875 
L 9.28125 70.21875 
z
" id="DejaVuSans-116"/>
      <path d="M 52 44.1875 
Q 55.375 50.25 60.0625 53.125 
Q 64.75 56 71.09375 56 
Q 79.640625 56 84.28125 50.015625 
Q 88.921875 44.046875 88.921875 33.015625 
L 88.921875 0 
L 79.890625 0 
L 79.890625 32.71875 
Q 79.890625 40.578125 77.09375 44.375 
Q 74.3125 48.1875 68.609375 48.1875 
Q 61.625 48.1875 57.5625 43.546875 
Q 53.515625 38.921875 53.515625 30.90625 
L 53.515625 0 
L 44.484375 0 
L 44.484375 32.71875 
Q 44.484375 40.625 41.703125 44.40625 
Q 38.921875 48.1875 33.109375 48.1875 
Q 26.21875 48.1875 22.15625 43.53125 
Q 18.109375 38.875 18.109375 30.90625 
L 18.109375 0 
L 9.078125 0 
L 9.078125 54.6875 
L 18.109375 54.6875 
L 18.109375 46.1875 
Q 21.1875 51.21875 25.484375 53.609375 
Q 29.78125 56 35.6875 56 
Q 41.65625 56 45.828125 52.96875 
Q 50 49.953125 52 44.1875 
z
" id="DejaVuSans-109"/>
      <path d="M 34.1875 63.1875 
L 20.796875 26.90625 
L 47.609375 26.90625 
z
M 28.609375 72.90625 
L 39.796875 72.90625 
L 67.578125 0 
L 57.328125 0 
L 50.6875 18.703125 
L 17.828125 18.703125 
L 11.1875 0 
L 0.78125 0 
z
" id="DejaVuSans-65"/>
     </defs>
     <g transform="translate(257.602344 65.836562)scale(0.1 -0.1)">
      <use xlink:href="#DejaVuSans-67"/>
      <use x="69.824219" xlink:href="#DejaVuSans-111"/>
      <use x="131.005859" xlink:href="#DejaVuSans-110"/>
      <use x="194.384766" xlink:href="#DejaVuSans-118"/>
      <use x="253.564453" xlink:href="#DejaVuSans-43"/>
      <use x="337.353516" xlink:href="#DejaVuSans-66"/>
      <use x="405.957031" xlink:href="#DejaVuSans-105"/>
      <use x="433.740234" xlink:href="#DejaVuSans-76"/>
      <use x="489.453125" xlink:href="#DejaVuSans-115"/>
      <use x="541.552734" xlink:href="#DejaVuSans-116"/>
      <use x="580.761719" xlink:href="#DejaVuSans-109"/>
      <use x="678.173828" xlink:href="#DejaVuSans-43"/>
      <use x="761.962891" xlink:href="#DejaVuSans-65"/>
      <use x="828.621094" xlink:href="#DejaVuSans-116"/>
      <use x="867.830078" xlink:href="#DejaVuSans-116"/>
      <use x="907.039062" xlink:href="#DejaVuSans-101"/>
      <use x="968.5625" xlink:href="#DejaVuSans-110"/>
     </g>
    </g>
   </g>
  </g>
 </g>
 <defs>
  <clipPath id="pce53e6044d">
   <rect height="221.76" width="446.4" x="72" y="34.56"/>
  </clipPath>
 </defs>
</svg>
