<?xml version="1.0" encoding="utf-8" standalone="no"?>
<!DOCTYPE svg PUBLIC "-//W3C//DTD SVG 1.1//EN"
  "http://www.w3.org/Graphics/SVG/1.1/DTD/svg11.dtd">
<!-- Created with matplotlib (https://matplotlib.org/) -->
<svg height="288pt" version="1.1" viewBox="0 0 576 288" width="576pt" xmlns="http://www.w3.org/2000/svg" xmlns:xlink="http://www.w3.org/1999/xlink">
 <defs>
  <style type="text/css">
*{stroke-linecap:butt;stroke-linejoin:round;}
  </style>
 </defs>
 <g id="figure_1">
  <g id="patch_1">
   <path d="M 0 288 
L 576 288 
L 576 0 
L 0 0 
z
" style="fill:#ffffff;"/>
  </g>
  <g id="axes_1">
   <g id="patch_2">
    <path d="M 72 256.32 
L 518.4 256.32 
L 518.4 34.56 
L 72 34.56 
z
" style="fill:#ffffff;"/>
   </g>
   <g id="matplotlib.axis_1">
    <g id="xtick_1">
     <g id="line2d_1">
      <defs>
       <path d="M 0 0 
L 0 3.5 
" id="ma072f37d7a" style="stroke:#000000;stroke-width:0.8;"/>
      </defs>
      <g>
       <use style="stroke:#000000;stroke-width:0.8;" x="92.290909" xlink:href="#ma072f37d7a" y="256.32"/>
      </g>
     </g>
     <g id="text_1">
      <!-- 0 -->
      <defs>
       <path d="M 31.78125 66.40625 
Q 24.171875 66.40625 20.328125 58.90625 
Q 16.5 51.421875 16.5 36.375 
Q 16.5 21.390625 20.328125 13.890625 
Q 24.171875 6.390625 31.78125 6.390625 
Q 39.453125 6.390625 43.28125 13.890625 
Q 47.125 21.390625 47.125 36.375 
Q 47.125 51.421875 43.28125 58.90625 
Q 39.453125 66.40625 31.78125 66.40625 
z
M 31.78125 74.21875 
Q 44.046875 74.21875 50.515625 64.515625 
Q 56.984375 54.828125 56.984375 36.375 
Q 56.984375 17.96875 50.515625 8.265625 
Q 44.046875 -1.421875 31.78125 -1.421875 
Q 19.53125 -1.421875 13.0625 8.265625 
Q 6.59375 17.96875 6.59375 36.375 
Q 6.59375 54.828125 13.0625 64.515625 
Q 19.53125 74.21875 31.78125 74.21875 
z
" id="DejaVuSans-48"/>
      </defs>
      <g transform="translate(89.109659 270.918437)scale(0.1 -0.1)">
       <use xlink:href="#DejaVuSans-48"/>
      </g>
     </g>
    </g>
    <g id="xtick_2">
     <g id="line2d_2">
      <g>
       <use style="stroke:#000000;stroke-width:0.8;" x="173.470781" xlink:href="#ma072f37d7a" y="256.32"/>
      </g>
     </g>
     <g id="text_2">
      <!-- 1000 -->
      <defs>
       <path d="M 12.40625 8.296875 
L 28.515625 8.296875 
L 28.515625 63.921875 
L 10.984375 60.40625 
L 10.984375 69.390625 
L 28.421875 72.90625 
L 38.28125 72.90625 
L 38.28125 8.296875 
L 54.390625 8.296875 
L 54.390625 0 
L 12.40625 0 
z
" id="DejaVuSans-49"/>
      </defs>
      <g transform="translate(160.745781 270.918437)scale(0.1 -0.1)">
       <use xlink:href="#DejaVuSans-49"/>
       <use x="63.623047" xlink:href="#DejaVuSans-48"/>
       <use x="127.246094" xlink:href="#DejaVuSans-48"/>
       <use x="190.869141" xlink:href="#DejaVuSans-48"/>
      </g>
     </g>
    </g>
    <g id="xtick_3">
     <g id="line2d_3">
      <g>
       <use style="stroke:#000000;stroke-width:0.8;" x="254.650654" xlink:href="#ma072f37d7a" y="256.32"/>
      </g>
     </g>
     <g id="text_3">
      <!-- 2000 -->
      <defs>
       <path d="M 19.1875 8.296875 
L 53.609375 8.296875 
L 53.609375 0 
L 7.328125 0 
L 7.328125 8.296875 
Q 12.9375 14.109375 22.625 23.890625 
Q 32.328125 33.6875 34.8125 36.53125 
Q 39.546875 41.84375 41.421875 45.53125 
Q 43.3125 49.21875 43.3125 52.78125 
Q 43.3125 58.59375 39.234375 62.25 
Q 35.15625 65.921875 28.609375 65.921875 
Q 23.96875 65.921875 18.8125 64.3125 
Q 13.671875 62.703125 7.8125 59.421875 
L 7.8125 69.390625 
Q 13.765625 71.78125 18.9375 73 
Q 24.125 74.21875 28.421875 74.21875 
Q 39.75 74.21875 46.484375 68.546875 
Q 53.21875 62.890625 53.21875 53.421875 
Q 53.21875 48.921875 51.53125 44.890625 
Q 49.859375 40.875 45.40625 35.40625 
Q 44.1875 33.984375 37.640625 27.21875 
Q 31.109375 20.453125 19.1875 8.296875 
z
" id="DejaVuSans-50"/>
      </defs>
      <g transform="translate(241.925654 270.918437)scale(0.1 -0.1)">
       <use xlink:href="#DejaVuSans-50"/>
       <use x="63.623047" xlink:href="#DejaVuSans-48"/>
       <use x="127.246094" xlink:href="#DejaVuSans-48"/>
       <use x="190.869141" xlink:href="#DejaVuSans-48"/>
      </g>
     </g>
    </g>
    <g id="xtick_4">
     <g id="line2d_4">
      <g>
       <use style="stroke:#000000;stroke-width:0.8;" x="335.830526" xlink:href="#ma072f37d7a" y="256.32"/>
      </g>
     </g>
     <g id="text_4">
      <!-- 3000 -->
      <defs>
       <path d="M 40.578125 39.3125 
Q 47.65625 37.796875 51.625 33 
Q 55.609375 28.21875 55.609375 21.1875 
Q 55.609375 10.40625 48.1875 4.484375 
Q 40.765625 -1.421875 27.09375 -1.421875 
Q 22.515625 -1.421875 17.65625 -0.515625 
Q 12.796875 0.390625 7.625 2.203125 
L 7.625 11.71875 
Q 11.71875 9.328125 16.59375 8.109375 
Q 21.484375 6.890625 26.8125 6.890625 
Q 36.078125 6.890625 40.9375 10.546875 
Q 45.796875 14.203125 45.796875 21.1875 
Q 45.796875 27.640625 41.28125 31.265625 
Q 36.765625 34.90625 28.71875 34.90625 
L 20.21875 34.90625 
L 20.21875 43.015625 
L 29.109375 43.015625 
Q 36.375 43.015625 40.234375 45.921875 
Q 44.09375 48.828125 44.09375 54.296875 
Q 44.09375 59.90625 40.109375 62.90625 
Q 36.140625 65.921875 28.71875 65.921875 
Q 24.65625 65.921875 20.015625 65.03125 
Q 15.375 64.15625 9.8125 62.3125 
L 9.8125 71.09375 
Q 15.4375 72.65625 20.34375 73.4375 
Q 25.25 74.21875 29.59375 74.21875 
Q 40.828125 74.21875 47.359375 69.109375 
Q 53.90625 64.015625 53.90625 55.328125 
Q 53.90625 49.265625 50.4375 45.09375 
Q 46.96875 40.921875 40.578125 39.3125 
z
" id="DejaVuSans-51"/>
      </defs>
      <g transform="translate(323.105526 270.918437)scale(0.1 -0.1)">
       <use xlink:href="#DejaVuSans-51"/>
       <use x="63.623047" xlink:href="#DejaVuSans-48"/>
       <use x="127.246094" xlink:href="#DejaVuSans-48"/>
       <use x="190.869141" xlink:href="#DejaVuSans-48"/>
      </g>
     </g>
    </g>
    <g id="xtick_5">
     <g id="line2d_5">
      <g>
       <use style="stroke:#000000;stroke-width:0.8;" x="417.010398" xlink:href="#ma072f37d7a" y="256.32"/>
      </g>
     </g>
     <g id="text_5">
      <!-- 4000 -->
      <defs>
       <path d="M 37.796875 64.3125 
L 12.890625 25.390625 
L 37.796875 25.390625 
z
M 35.203125 72.90625 
L 47.609375 72.90625 
L 47.609375 25.390625 
L 58.015625 25.390625 
L 58.015625 17.1875 
L 47.609375 17.1875 
L 47.609375 0 
L 37.796875 0 
L 37.796875 17.1875 
L 4.890625 17.1875 
L 4.890625 26.703125 
z
" id="DejaVuSans-52"/>
      </defs>
      <g transform="translate(404.285398 270.918437)scale(0.1 -0.1)">
       <use xlink:href="#DejaVuSans-52"/>
       <use x="63.623047" xlink:href="#DejaVuSans-48"/>
       <use x="127.246094" xlink:href="#DejaVuSans-48"/>
       <use x="190.869141" xlink:href="#DejaVuSans-48"/>
      </g>
     </g>
    </g>
    <g id="xtick_6">
     <g id="line2d_6">
      <g>
       <use style="stroke:#000000;stroke-width:0.8;" x="498.190271" xlink:href="#ma072f37d7a" y="256.32"/>
      </g>
     </g>
     <g id="text_6">
      <!-- 5000 -->
      <defs>
       <path d="M 10.796875 72.90625 
L 49.515625 72.90625 
L 49.515625 64.59375 
L 19.828125 64.59375 
L 19.828125 46.734375 
Q 21.96875 47.46875 24.109375 47.828125 
Q 26.265625 48.1875 28.421875 48.1875 
Q 40.625 48.1875 47.75 41.5 
Q 54.890625 34.8125 54.890625 23.390625 
Q 54.890625 11.625 47.5625 5.09375 
Q 40.234375 -1.421875 26.90625 -1.421875 
Q 22.3125 -1.421875 17.546875 -0.640625 
Q 12.796875 0.140625 7.71875 1.703125 
L 7.71875 11.625 
Q 12.109375 9.234375 16.796875 8.0625 
Q 21.484375 6.890625 26.703125 6.890625 
Q 35.15625 6.890625 40.078125 11.328125 
Q 45.015625 15.765625 45.015625 23.390625 
Q 45.015625 31 40.078125 35.4375 
Q 35.15625 39.890625 26.703125 39.890625 
Q 22.75 39.890625 18.8125 39.015625 
Q 14.890625 38.140625 10.796875 36.28125 
z
" id="DejaVuSans-53"/>
      </defs>
      <g transform="translate(485.465271 270.918437)scale(0.1 -0.1)">
       <use xlink:href="#DejaVuSans-53"/>
       <use x="63.623047" xlink:href="#DejaVuSans-48"/>
       <use x="127.246094" xlink:href="#DejaVuSans-48"/>
       <use x="190.869141" xlink:href="#DejaVuSans-48"/>
      </g>
     </g>
    </g>
   </g>
   <g id="matplotlib.axis_2">
    <g id="ytick_1">
     <g id="line2d_7">
      <defs>
       <path d="M 0 0 
L -3.5 0 
" id="m0ae1f2a4ae" style="stroke:#000000;stroke-width:0.8;"/>
      </defs>
      <g>
       <use style="stroke:#000000;stroke-width:0.8;" x="72" xlink:href="#m0ae1f2a4ae" y="227.463178"/>
      </g>
     </g>
     <g id="text_7">
      <!-- 10 -->
      <g transform="translate(52.275 231.262396)scale(0.1 -0.1)">
       <use xlink:href="#DejaVuSans-49"/>
       <use x="63.623047" xlink:href="#DejaVuSans-48"/>
      </g>
     </g>
    </g>
    <g id="ytick_2">
     <g id="line2d_8">
      <g>
       <use style="stroke:#000000;stroke-width:0.8;" x="72" xlink:href="#m0ae1f2a4ae" y="180.521122"/>
      </g>
     </g>
     <g id="text_8">
      <!-- 15 -->
      <g transform="translate(52.275 184.32034)scale(0.1 -0.1)">
       <use xlink:href="#DejaVuSans-49"/>
       <use x="63.623047" xlink:href="#DejaVuSans-53"/>
      </g>
     </g>
    </g>
    <g id="ytick_3">
     <g id="line2d_9">
      <g>
       <use style="stroke:#000000;stroke-width:0.8;" x="72" xlink:href="#m0ae1f2a4ae" y="133.579066"/>
      </g>
     </g>
     <g id="text_9">
      <!-- 20 -->
      <g transform="translate(52.275 137.378284)scale(0.1 -0.1)">
       <use xlink:href="#DejaVuSans-50"/>
       <use x="63.623047" xlink:href="#DejaVuSans-48"/>
      </g>
     </g>
    </g>
    <g id="ytick_4">
     <g id="line2d_10">
      <g>
       <use style="stroke:#000000;stroke-width:0.8;" x="72" xlink:href="#m0ae1f2a4ae" y="86.63701"/>
      </g>
     </g>
     <g id="text_10">
      <!-- 25 -->
      <g transform="translate(52.275 90.436228)scale(0.1 -0.1)">
       <use xlink:href="#DejaVuSans-50"/>
       <use x="63.623047" xlink:href="#DejaVuSans-53"/>
      </g>
     </g>
    </g>
    <g id="ytick_5">
     <g id="line2d_11">
      <g>
       <use style="stroke:#000000;stroke-width:0.8;" x="72" xlink:href="#m0ae1f2a4ae" y="39.694954"/>
      </g>
     </g>
     <g id="text_11">
      <!-- 30 -->
      <g transform="translate(52.275 43.494172)scale(0.1 -0.1)">
       <use xlink:href="#DejaVuSans-51"/>
       <use x="63.623047" xlink:href="#DejaVuSans-48"/>
      </g>
     </g>
    </g>
   </g>
   <g id="line2d_12">
    <path clip-path="url(#p305d7358a7)" d="M 92.290909 96.025421 
L 92.534449 96.025421 
L 92.696808 86.63701 
L 93.183888 86.63701 
L 93.346247 77.248598 
L 93.427427 77.248598 
L 93.589787 67.860187 
L 93.833327 67.860187 
L 93.995686 58.471776 
L 94.482766 58.471776 
L 94.645125 67.860187 
L 94.807485 67.860187 
L 94.969845 77.248598 
L 95.456924 77.248598 
L 95.619284 86.63701 
L 97.405241 86.63701 
L 97.567601 96.025421 
L 97.729961 96.025421 
L 97.89232 105.413832 
L 98.05468 105.413832 
L 98.21704 114.802243 
L 98.3794 114.802243 
L 98.541759 124.190654 
L 98.704119 124.190654 
L 98.866479 114.802243 
L 99.028838 114.802243 
L 99.191198 105.413832 
L 99.678277 105.413832 
L 99.840637 96.025421 
L 100.327716 96.025421 
L 100.490076 105.413832 
L 100.977155 105.413832 
L 101.139515 114.802243 
L 102.600753 114.802243 
L 102.763113 105.413832 
L 105.523228 105.413832 
L 105.685588 114.802243 
L 106.172667 114.802243 
L 106.335027 124.190654 
L 107.796265 124.190654 
L 107.958624 114.802243 
L 109.095143 114.802243 
L 109.257502 124.190654 
L 109.419862 124.190654 
L 109.582222 133.579066 
L 109.744582 133.579066 
L 109.906941 142.967477 
L 110.394021 142.967477 
L 110.55638 152.355888 
L 114.290654 152.355888 
L 114.453014 161.744299 
L 124.032239 161.744299 
L 124.194599 171.13271 
L 127.928873 171.13271 
L 128.091233 180.521122 
L 129.87719 180.521122 
L 130.03955 189.909533 
L 131.176068 189.909533 
L 131.338428 199.297944 
L 132.799665 199.297944 
L 132.962025 208.686355 
L 135.072702 208.686355 
L 135.235062 218.074766 
L 137.995177 218.074766 
L 138.157537 208.686355 
L 145.788445 208.686355 
L 145.950805 199.297944 
L 146.762603 199.297944 
L 146.924963 180.521122 
L 147.087323 180.521122 
L 147.249683 171.13271 
L 147.736762 171.13271 
L 147.817942 161.744299 
L 147.980302 171.13271 
L 148.061481 171.13271 
L 148.223841 161.744299 
L 148.386201 161.744299 
L 148.548561 142.967477 
L 148.71092 142.967477 
L 148.87328 133.579066 
L 149.03564 133.579066 
L 149.198 105.413832 
L 149.360359 105.413832 
L 149.441539 96.025421 
L 149.603899 105.413832 
L 149.685079 105.413832 
L 149.847439 96.025421 
L 150.983957 96.025421 
L 151.146317 86.63701 
L 152.607554 86.63701 
L 152.769914 77.248598 
L 153.906432 77.248598 
L 154.068792 67.860187 
L 155.20531 67.860187 
L 155.36767 77.248598 
L 155.61121 77.248598 
L 155.773569 67.860187 
L 155.854749 67.860187 
L 155.935929 77.248598 
L 156.098289 67.860187 
L 156.504188 67.860187 
L 156.666548 77.248598 
L 157.478347 77.248598 
L 157.559526 86.63701 
L 157.721886 77.248598 
L 157.803066 77.248598 
L 157.965426 86.63701 
L 158.452505 86.63701 
L 158.614865 96.025421 
L 158.777225 96.025421 
L 158.939584 105.413832 
L 159.101944 105.413832 
L 159.264304 114.802243 
L 159.426664 114.802243 
L 159.589023 124.190654 
L 159.751383 124.190654 
L 159.913743 133.579066 
L 160.076102 133.579066 
L 160.238462 142.967477 
L 160.400822 142.967477 
L 160.563182 152.355888 
L 160.725541 152.355888 
L 160.887901 161.744299 
L 166.245773 161.744299 
L 166.408133 171.13271 
L 170.467126 171.13271 
L 170.629486 180.521122 
L 171.441285 180.521122 
L 171.603644 171.13271 
L 173.064882 171.13271 
L 173.227242 180.521122 
L 174.36376 180.521122 
L 174.52612 171.13271 
L 175.013199 171.13271 
L 175.175559 180.521122 
L 175.662638 180.521122 
L 175.824998 171.13271 
L 177.286235 171.13271 
L 177.448595 180.521122 
L 184.430064 180.521122 
L 184.592424 189.909533 
L 191.573893 189.909533 
L 191.736253 199.297944 
L 196.769405 199.297944 
L 196.931765 208.686355 
L 199.367161 208.686355 
L 199.52952 218.074766 
L 200.666039 218.074766 
L 200.828398 227.463178 
L 205.212112 227.463178 
L 205.374471 218.074766 
L 207.485148 218.074766 
L 207.647508 227.463178 
L 227.617756 227.463178 
L 227.780116 218.074766 
L 228.591915 218.074766 
L 228.754274 208.686355 
L 231.189671 208.686355 
L 231.35203 199.297944 
L 232.813268 199.297944 
L 232.975628 189.909533 
L 234.112146 189.909533 
L 234.274506 180.521122 
L 238.333499 180.521122 
L 238.495859 171.13271 
L 241.905414 171.13271 
L 242.067774 161.744299 
L 243.204292 161.744299 
L 243.366652 152.355888 
L 243.853731 152.355888 
L 244.01609 142.967477 
L 244.17845 142.967477 
L 244.34081 133.579066 
L 244.50317 133.579066 
L 244.665529 124.190654 
L 244.827889 133.579066 
L 244.990249 124.190654 
L 245.477328 124.190654 
L 245.639688 114.802243 
L 246.126767 114.802243 
L 246.289127 105.413832 
L 247.100926 105.413832 
L 247.263285 96.025421 
L 248.399804 96.025421 
L 248.562163 86.63701 
L 258.466108 86.63701 
L 258.628468 77.248598 
L 259.440266 77.248598 
L 259.602626 86.63701 
L 260.089705 86.63701 
L 260.252065 96.025421 
L 260.414425 96.025421 
L 260.576784 105.413832 
L 260.739144 105.413832 
L 260.901504 114.802243 
L 261.063864 114.802243 
L 261.226223 124.190654 
L 261.388583 124.190654 
L 261.550943 133.579066 
L 264.798138 133.579066 
L 264.960498 124.190654 
L 265.609937 124.190654 
L 265.772296 133.579066 
L 265.934656 133.579066 
L 266.097016 142.967477 
L 266.259376 142.967477 
L 266.421735 152.355888 
L 266.908814 152.355888 
L 267.071174 161.744299 
L 276.975119 161.744299 
L 277.137478 152.355888 
L 285.093106 152.355888 
L 285.255466 161.744299 
L 298.731324 161.744299 
L 298.893684 152.355888 
L 299.705483 152.355888 
L 299.867843 142.967477 
L 300.030202 142.967477 
L 300.192562 133.579066 
L 300.354922 133.579066 
L 300.517282 142.967477 
L 301.004361 142.967477 
L 301.166721 152.355888 
L 301.6538 152.355888 
L 301.81616 161.744299 
L 314.31786 161.744299 
L 314.48022 171.13271 
L 318.863933 171.13271 
L 319.026293 180.521122 
L 320.162811 180.521122 
L 320.32517 189.909533 
L 321.786408 189.909533 
L 321.948768 199.297944 
L 323.085286 199.297944 
L 323.247646 208.686355 
L 325.033603 208.686355 
L 325.195963 218.074766 
L 327.30664 218.074766 
L 327.468999 227.463178 
L 331.203273 227.463178 
L 331.365633 236.851589 
L 335.749346 236.851589 
L 335.911706 227.463178 
L 338.022383 227.463178 
L 338.184742 236.851589 
L 345.81565 236.851589 
L 345.97801 227.463178 
L 348.088687 227.463178 
L 348.251047 218.074766 
L 349.062845 218.074766 
L 349.225205 208.686355 
L 349.712284 208.686355 
L 349.874644 199.297944 
L 350.361723 199.297944 
L 350.524083 189.909533 
L 350.686443 189.909533 
L 350.848802 180.521122 
L 351.335882 180.521122 
L 351.498241 171.13271 
L 352.31004 171.13271 
L 352.4724 161.744299 
L 354.258357 161.744299 
L 354.420717 152.355888 
L 355.232516 152.355888 
L 355.394875 142.967477 
L 355.557235 142.967477 
L 355.719595 133.579066 
L 357.180833 133.579066 
L 357.343192 124.190654 
L 358.154991 124.190654 
L 358.317351 114.802243 
L 359.129149 114.802243 
L 359.291509 105.413832 
L 360.103308 105.413832 
L 360.265668 96.025421 
L 363.025783 96.025421 
L 363.188143 86.63701 
L 364.649381 86.63701 
L 364.811741 96.025421 
L 366.922417 96.025421 
L 367.084777 105.413832 
L 367.247137 105.413832 
L 367.409496 114.802243 
L 367.896576 114.802243 
L 368.058935 124.190654 
L 368.221295 124.190654 
L 368.383655 142.967477 
L 368.870734 142.967477 
L 369.033094 152.355888 
L 369.195454 152.355888 
L 369.357813 161.744299 
L 370.169612 161.744299 
L 370.331972 171.13271 
L 371.46849 171.13271 
L 371.63085 180.521122 
L 372.442649 180.521122 
L 372.605008 189.909533 
L 375.040404 189.909533 
L 375.202764 199.297944 
L 376.014563 199.297944 
L 376.176923 208.686355 
L 377.313441 208.686355 
L 377.475801 218.074766 
L 378.287599 218.074766 
L 378.449959 227.463178 
L 381.534794 227.463178 
L 381.697154 236.851589 
L 384.13255 236.851589 
L 384.29491 246.24 
L 386.730306 246.24 
L 386.892666 236.851589 
L 392.575257 236.851589 
L 392.737617 227.463178 
L 393.874135 227.463178 
L 394.036495 218.074766 
L 394.523574 218.074766 
L 394.685934 199.297944 
L 394.767113 199.297944 
L 394.848293 208.686355 
L 395.010653 199.297944 
L 395.173013 208.686355 
L 395.254193 189.909533 
L 395.416552 199.297944 
L 395.497732 199.297944 
L 395.660092 208.686355 
L 395.822452 208.686355 
L 395.903632 199.297944 
L 396.065991 208.686355 
L 396.228351 180.521122 
L 396.309531 189.909533 
L 396.390711 189.909533 
L 396.471891 180.521122 
L 396.63425 142.967477 
L 396.79661 142.967477 
L 396.95897 114.802243 
L 397.12133 114.802243 
L 397.20251 105.413832 
L 397.364869 114.802243 
L 397.770769 114.802243 
L 397.933128 105.413832 
L 398.420208 105.413832 
L 398.582567 96.025421 
L 398.744927 96.025421 
L 398.907287 86.63701 
L 399.719086 86.63701 
L 399.881445 77.248598 
L 402.803921 77.248598 
L 402.966281 67.860187 
L 403.291 67.860187 
L 403.45336 58.471776 
L 403.61572 58.471776 
L 403.778079 49.083365 
L 404.589878 49.083365 
L 404.752238 58.471776 
L 404.914597 58.471776 
L 405.076957 67.860187 
L 405.564036 67.860187 
L 405.726396 77.248598 
L 407.187634 77.248598 
L 407.349994 86.63701 
L 411.084268 86.63701 
L 411.246628 96.025421 
L 411.408987 96.025421 
L 411.571347 105.413832 
L 411.733707 105.413832 
L 411.896066 114.802243 
L 412.383146 114.802243 
L 412.545505 133.579066 
L 412.707865 133.579066 
L 412.870225 142.967477 
L 413.032585 142.967477 
L 413.194944 152.355888 
L 413.357304 152.355888 
L 413.519664 161.744299 
L 416.604499 161.744299 
L 416.766859 171.13271 
L 419.202255 171.13271 
L 419.364615 180.521122 
L 421.800011 180.521122 
L 421.962371 189.909533 
L 429.593279 189.909533 
L 429.755638 199.297944 
L 433.165193 199.297944 
L 433.327553 208.686355 
L 437.061827 208.686355 
L 437.224187 218.074766 
L 437.711266 218.074766 
L 437.873626 208.686355 
L 439.659583 208.686355 
L 439.821943 218.074766 
L 446.478692 218.074766 
L 446.641052 208.686355 
L 449.076448 208.686355 
L 449.238808 199.297944 
L 449.725887 199.297944 
L 449.888247 189.909533 
L 450.700045 189.909533 
L 450.862405 180.521122 
L 451.674204 180.521122 
L 451.836564 171.13271 
L 452.648362 171.13271 
L 452.810722 161.744299 
L 454.27196 161.744299 
L 454.43432 152.355888 
L 454.921399 152.355888 
L 455.083759 142.967477 
L 455.246118 142.967477 
L 455.408478 133.579066 
L 455.895557 133.579066 
L 456.057917 124.190654 
L 456.869716 124.190654 
L 457.032076 114.802243 
L 458.493313 114.802243 
L 458.655673 105.413832 
L 459.467472 105.413832 
L 459.629831 96.025421 
L 461.091069 96.025421 
L 461.253429 86.63701 
L 464.013545 86.63701 
L 464.175904 96.025421 
L 464.662984 96.025421 
L 464.825343 114.802243 
L 464.987703 114.802243 
L 465.150063 124.190654 
L 465.312422 124.190654 
L 465.474782 133.579066 
L 465.637142 133.579066 
L 465.799502 152.355888 
L 466.286581 152.355888 
L 466.448941 161.744299 
L 467.585459 161.744299 
L 467.747819 171.13271 
L 468.234898 171.13271 
L 468.397258 161.744299 
L 471.482093 161.744299 
L 471.644453 171.13271 
L 471.806812 171.13271 
L 471.969172 161.744299 
L 474.079849 161.744299 
L 474.242208 171.13271 
L 475.378727 171.13271 
L 475.541086 189.909533 
L 475.703446 189.909533 
L 475.865806 199.297944 
L 478.301202 199.297944 
L 478.463562 208.686355 
L 478.625922 208.686355 
L 478.788281 199.297944 
L 479.9248 199.297944 
L 480.087159 189.909533 
L 481.223677 189.909533 
L 481.386037 199.297944 
L 483.496714 199.297944 
L 483.659074 189.909533 
L 483.821433 189.909533 
L 483.983793 199.297944 
L 484.146153 199.297944 
L 484.308513 189.909533 
L 485.120311 189.909533 
L 485.282671 180.521122 
L 486.419189 180.521122 
L 486.581549 171.13271 
L 492.26414 171.13271 
L 492.4265 161.744299 
L 498.109091 161.744299 
L 498.109091 161.744299 
" style="fill:none;stroke:#ff0000;stroke-linecap:square;stroke-width:1.5;"/>
   </g>
   <g id="line2d_13">
    <path clip-path="url(#p305d7358a7)" d="M 92.290909 91.649619 
L 92.453269 91.36925 
L 92.615629 91.192633 
L 92.859168 84.001891 
L 92.940348 83.194913 
L 93.183888 84.679276 
L 93.265068 84.507512 
L 93.670967 66.051153 
L 93.833327 62.237254 
L 93.914507 62.461038 
L 94.076866 54.921235 
L 94.158046 55.970279 
L 94.239226 54.834583 
L 94.401586 56.291942 
L 94.482766 56.12453 
L 94.563946 56.651138 
L 94.807485 66.421398 
L 94.888665 68.112049 
L 95.132205 77.043098 
L 95.456924 80.264509 
L 95.538104 80.177517 
L 95.781644 87.202745 
L 95.944003 87.636308 
L 96.025183 87.510118 
L 96.187543 86.50876 
L 96.268723 86.696264 
L 96.512262 88.26316 
L 96.593442 88.216082 
L 96.755802 88.529114 
L 96.999342 89.49704 
L 97.080522 89.768688 
L 97.405241 88.702525 
L 97.486421 88.943428 
L 97.729961 97.447915 
L 97.81114 98.265888 
L 98.05468 106.469752 
L 98.13586 107.116803 
L 98.3794 116.291853 
L 98.460579 117.668183 
L 98.622939 123.223373 
L 98.704119 123.395065 
L 98.785299 124.089552 
L 99.028838 117.098293 
L 99.110018 116.046993 
L 99.353558 106.292975 
L 99.434738 105.885305 
L 99.759457 107.476841 
L 100.002997 98.168868 
L 100.246537 96.113219 
L 100.408896 95.37221 
L 100.652436 103.353402 
L 100.895976 105.101122 
L 100.977155 105.041797 
L 101.058335 105.120587 
L 101.301875 112.454854 
L 101.545415 113.86381 
L 101.951314 113.801995 
L 102.113674 114.158505 
L 102.276033 114.135692 
L 102.438393 113.753647 
L 102.681933 113.926718 
L 102.925472 106.715024 
L 103.169012 105.058987 
L 103.412552 104.989061 
L 103.656091 104.989061 
L 103.818451 104.653914 
L 103.980811 104.684087 
L 104.14317 105.147161 
L 104.38671 105.058987 
L 104.63025 104.989061 
L 105.604408 104.989061 
L 105.847948 112.548937 
L 106.010308 115.186079 
L 106.172667 116.228713 
L 106.253847 116.038666 
L 106.497387 122.701815 
L 106.659746 123.860235 
L 106.740926 124.139458 
L 106.903286 125.153566 
L 107.228006 124.193627 
L 107.633905 125.692011 
L 107.715085 125.586897 
L 107.796265 125.430497 
L 107.877445 125.49883 
L 108.120984 118.270931 
L 108.364524 116.419368 
L 108.445704 116.512556 
L 108.608063 115.994042 
L 109.176323 114.54372 
L 109.419862 122.99488 
L 109.501042 124.375562 
L 109.744582 132.642083 
L 109.825762 133.548552 
L 110.069301 141.808806 
L 110.312841 143.559052 
L 110.4752 143.294816 
L 110.71874 150.821404 
L 110.96228 152.454627 
L 111.124639 152.329618 
L 111.205819 152.371754 
L 111.449359 152.13651 
L 111.692899 152.411453 
L 111.774078 152.288755 
L 111.855258 152.264956 
L 112.098798 152.586154 
L 112.261158 152.52638 
L 112.667057 152.2076 
L 113.316496 152.556715 
L 114.128295 152.465479 
L 114.371834 152.167578 
L 114.615374 159.801822 
L 114.858914 161.69176 
L 115.021273 161.966525 
L 115.183633 161.925464 
L 115.508353 161.769852 
L 115.995432 161.66712 
L 116.157792 161.406341 
L 116.401331 161.565964 
L 116.563691 161.650735 
L 118.187288 161.650735 
L 118.430828 161.913269 
L 118.512008 161.893249 
L 118.755547 161.476393 
L 119.323807 161.663288 
L 120.947404 161.660763 
L 121.028584 161.883812 
L 121.272124 161.706605 
L 121.759203 161.763298 
L 123.70752 161.679727 
L 124.032239 161.596996 
L 124.113419 161.590639 
L 124.356959 169.032545 
L 124.600498 170.789863 
L 125.087578 170.702173 
L 125.899376 170.805049 
L 126.224096 170.953963 
L 126.467635 170.815309 
L 127.685333 170.702173 
L 127.847693 170.973106 
L 127.928873 170.981719 
L 128.010053 170.737324 
L 128.253593 178.242567 
L 128.497132 179.976266 
L 128.659492 179.993618 
L 128.740672 180.32342 
L 128.821852 180.256734 
L 129.146571 180.102636 
L 129.390111 180.139828 
L 129.95837 180.170539 
L 130.201909 187.396531 
L 130.445449 189.55852 
L 130.607809 189.656758 
L 130.770169 189.39614 
L 131.094888 189.429357 
L 131.257248 189.41607 
L 131.500787 197.055624 
L 131.744327 199.422756 
L 132.556126 199.212761 
L 132.799665 199.519704 
L 132.880845 199.494258 
L 133.124385 206.460877 
L 133.367924 208.7077 
L 133.530284 208.643719 
L 133.611464 208.565931 
L 133.773824 208.174583 
L 133.936184 208.175854 
L 134.179723 208.562314 
L 134.260903 208.549259 
L 134.423263 208.692426 
L 134.504443 208.703134 
L 134.666802 208.867484 
L 134.910342 208.869472 
L 135.153882 208.871549 
L 135.397421 216.561663 
L 135.640961 218.352683 
L 135.884501 218.433882 
L 136.20922 218.287967 
L 136.53394 218.377887 
L 137.183378 218.290116 
L 137.426918 218.391156 
L 137.670458 218.501284 
L 137.832817 218.546911 
L 137.995177 218.303886 
L 138.076357 218.156225 
L 138.319897 211.416425 
L 138.644616 209.221433 
L 138.888156 209.090283 
L 138.969336 209.12898 
L 139.212875 208.941207 
L 139.375235 209.075062 
L 139.456415 209.212847 
L 139.618775 209.081061 
L 139.781134 209.110088 
L 139.862314 209.171204 
L 140.024674 209.552775 
L 140.187034 209.523121 
L 140.268214 209.291387 
L 140.349394 209.3486 
L 140.511753 209.403521 
L 141.080012 209.222114 
L 142.54125 209.117367 
L 142.70361 209.007212 
L 142.947149 209.22189 
L 143.677768 209.222114 
L 143.921308 208.804747 
L 144.327207 208.115561 
L 144.570747 207.166581 
L 144.651927 207.179483 
L 144.814286 208.159639 
L 144.976646 207.911941 
L 145.139006 208.301704 
L 145.220186 208.225233 
L 145.301366 209.740198 
L 145.382546 209.574702 
L 145.626085 208.396253 
L 145.788445 206.471997 
L 145.869625 206.619425 
L 146.113164 198.551796 
L 146.275524 197.712255 
L 146.356704 198.578325 
L 146.519064 197.166334 
L 146.600244 196.565 
L 146.681424 197.845483 
L 146.762603 197.789407 
L 146.843783 197.596361 
L 147.087323 178.729341 
L 147.168503 177.628447 
L 147.412042 165.045575 
L 147.574402 163.392511 
L 147.655582 163.182838 
L 147.736762 162.617425 
L 147.817942 163.928216 
L 147.899122 159.580313 
L 148.061481 163.107808 
L 148.142661 163.528031 
L 148.386201 156.820795 
L 148.467381 156.128905 
L 148.71092 139.887531 
L 148.7921 139.010573 
L 149.03564 130.714541 
L 149.11682 130.436213 
L 149.360359 105.937754 
L 149.441539 103.674456 
L 149.522719 98.235481 
L 149.766259 102.722289 
L 150.009798 95.424857 
L 150.172158 94.73157 
L 150.334518 94.926953 
L 150.496878 94.075889 
L 150.659237 94.430035 
L 150.821597 94.525927 
L 151.065137 94.352444 
L 151.308676 86.971709 
L 151.552216 85.743577 
L 151.795756 85.568429 
L 151.958115 85.740586 
L 152.120475 86.059689 
L 152.282835 85.896485 
L 152.364015 86.052383 
L 152.526374 85.870143 
L 152.607554 86.099765 
L 152.688734 86.044683 
L 152.932274 77.456176 
L 153.094633 76.937662 
L 153.419353 76.817971 
L 153.581713 76.598092 
L 153.987612 77.048094 
L 154.231152 69.054905 
L 154.474691 67.488403 
L 154.637051 67.743738 
L 154.799411 67.602595 
L 154.880591 67.588682 
L 155.04295 66.736202 
L 155.12413 66.928434 
L 155.20531 66.3502 
L 155.28649 66.690092 
L 155.53003 74.338572 
L 155.692389 75.053723 
L 155.935929 67.158628 
L 156.017109 71.263998 
L 156.260648 66.673223 
L 156.585368 67.326882 
L 156.828908 76.099006 
L 157.072447 78.396149 
L 157.153627 78.286487 
L 157.234807 77.348483 
L 157.559526 79.958801 
L 157.640706 84.570008 
L 157.803066 81.552754 
L 157.884246 81.411003 
L 158.127786 88.120907 
L 158.371325 89.153584 
L 158.452505 88.99833 
L 158.533685 89.178385 
L 158.777225 98.024466 
L 158.858404 99.007254 
L 159.101944 107.900985 
L 159.183124 108.899317 
L 159.426664 117.166465 
L 159.507843 117.871516 
L 159.751383 126.256385 
L 159.832563 126.713675 
L 160.076102 134.343138 
L 160.157282 135.012304 
L 160.400822 142.70514 
L 160.482002 143.825006 
L 160.725541 152.662008 
L 160.806721 153.590592 
L 161.050261 161.60826 
L 161.293801 163.134041 
L 161.61852 162.817142 
L 161.6997 162.635529 
L 161.78088 162.737456 
L 161.86206 162.669355 
L 162.105599 162.371007 
L 162.186779 162.359923 
L 162.349139 162.412283 
L 163.079758 162.562218 
L 163.242118 162.206138 
L 163.323297 162.265822 
L 163.404477 162.069311 
L 163.485657 162.105698 
L 163.566837 162.233303 
L 163.648017 162.179152 
L 163.810377 162.222612 
L 163.972736 161.772646 
L 164.135096 161.867714 
L 164.297456 161.994173 
L 165.190434 161.961833 
L 165.433974 162.279771 
L 165.677514 162.128995 
L 165.758694 162.087558 
L 165.921053 162.286988 
L 166.164593 162.152829 
L 166.326953 161.896168 
L 166.570492 169.470137 
L 166.814032 171.161926 
L 167.138751 171.23256 
L 167.544651 170.963096 
L 167.95055 171.025949 
L 168.11291 170.918812 
L 168.843529 171.105384 
L 170.548306 171.074369 
L 170.791846 178.63575 
L 171.035385 180.340207 
L 171.278925 180.315505 
L 171.522464 180.356386 
L 171.766004 172.784664 
L 172.009544 171.023388 
L 172.496623 171.043856 
L 173.146062 171.043856 
L 173.389602 178.597116 
L 173.633141 180.356386 
L 174.36376 180.356386 
L 174.44494 180.235496 
L 174.68848 172.823899 
L 174.932019 171.043856 
L 175.094379 171.043856 
L 175.337918 178.597116 
L 175.581458 180.235496 
L 175.743818 180.361544 
L 175.987357 172.804881 
L 176.230897 171.023388 
L 176.717976 171.043856 
L 177.367415 171.043856 
L 177.610955 178.51691 
L 177.854495 180.036962 
L 178.016854 179.96768 
L 178.260394 180.403661 
L 178.503934 180.046945 
L 178.828653 180.291984 
L 179.072193 180.097371 
L 179.721632 180.156813 
L 179.883991 180.428014 
L 180.046351 180.395021 
L 180.371071 180.253394 
L 181.832308 180.174693 
L 181.994668 180.125619 
L 182.238208 180.28842 
L 182.481747 180.081864 
L 183.293546 180.134859 
L 183.455906 180.395424 
L 183.537086 180.403437 
L 183.780625 179.967142 
L 184.024165 180.403437 
L 184.348884 180.235926 
L 184.511244 180.395262 
L 184.754784 187.801649 
L 184.998323 189.57153 
L 185.079503 189.57153 
L 185.241863 189.735701 
L 189.138497 189.565486 
L 189.382036 189.822756 
L 190.031475 189.658199 
L 190.843274 189.556971 
L 191.249173 189.427567 
L 191.492713 189.938417 
L 191.573893 189.962743 
L 191.655073 190.186419 
L 191.898612 197.769467 
L 192.142152 199.488698 
L 192.304512 199.564274 
L 192.548051 199.42725 
L 192.710411 199.153399 
L 192.872771 199.176374 
L 193.19749 199.299959 
L 193.68457 199.299959 
L 193.846929 199.573828 
L 194.009289 199.27702 
L 194.334009 199.508181 
L 194.739908 199.396217 
L 195.226987 199.373458 
L 195.389347 199.82902 
L 195.551707 199.812734 
L 196.038786 199.560335 
L 196.201146 199.511064 
L 196.688225 199.60444 
L 196.850585 199.843238 
L 197.094124 207.055872 
L 197.337664 208.765003 
L 197.581204 208.47533 
L 197.662383 208.551865 
L 197.824743 208.692542 
L 197.987103 208.553262 
L 198.068283 208.541515 
L 198.311822 209.014348 
L 198.393002 208.973305 
L 198.474182 208.751734 
L 198.555362 208.799151 
L 198.717722 208.852478 
L 198.880081 208.753524 
L 199.042441 208.393433 
L 199.285981 208.695344 
L 199.367161 208.804935 
L 199.448341 209.148427 
L 199.69188 216.401369 
L 199.93542 218.19494 
L 200.09778 218.515224 
L 200.178959 218.535504 
L 200.503679 218.219562 
L 200.666039 218.314469 
L 200.747219 218.361475 
L 200.990758 225.770154 
L 201.234298 227.147469 
L 201.396658 227.136492 
L 201.559017 227.363749 
L 201.721377 227.265619 
L 201.964917 227.604285 
L 202.127276 227.661739 
L 202.370816 227.68321 
L 202.533176 227.763352 
L 202.939075 227.542389 
L 203.020255 227.726706 
L 203.101435 227.636231 
L 203.588514 227.219813 
L 203.669694 227.211611 
L 203.750874 227.016032 
L 203.832054 227.088886 
L 203.994413 227.285111 
L 204.075593 227.161257 
L 204.156773 227.255752 
L 204.319133 227.118585 
L 205.049752 227.252153 
L 205.293291 227.129902 
L 205.536831 220.314633 
L 205.780371 218.628387 
L 206.26745 218.621377 
L 206.34863 218.777928 
L 206.42981 218.693452 
L 206.673349 218.641862 
L 206.835709 218.660127 
L 207.079249 218.715952 
L 207.160428 218.728138 
L 207.485148 219.236365 
L 207.566328 219.229847 
L 207.809867 226.000455 
L 208.053407 227.552104 
L 208.215767 227.56719 
L 208.459306 227.851974 
L 208.621666 227.827531 
L 208.865206 227.778179 
L 209.027566 227.829062 
L 209.352285 227.893652 
L 209.433465 227.83575 
L 209.595825 228.128305 
L 211.138242 227.718271 
L 211.300602 227.589538 
L 211.462962 227.717815 
L 211.544142 227.610086 
L 211.868861 228.028528 
L 212.031221 228.048127 
L 212.112401 228.115332 
L 212.43712 227.72556 
L 212.59948 227.888764 
L 213.167739 227.865583 
L 213.492458 227.895962 
L 213.654818 228.199799 
L 213.817178 227.899642 
L 214.060718 228.228002 
L 214.385437 228.28466 
L 214.547797 228.496759 
L 214.791336 227.717152 
L 215.034876 228.082445 
L 215.116056 227.993215 
L 215.278416 228.303713 
L 215.440775 228.176654 
L 215.521955 228.789932 
L 215.684315 228.21793 
L 215.927855 228.637812 
L 216.171394 227.947346 
L 216.333754 228.004962 
L 216.496114 228.119244 
L 216.577294 228.115287 
L 216.658474 228.421093 
L 216.739653 228.399497 
L 216.902013 228.239481 
L 217.064373 228.288976 
L 217.389092 228.268248 
L 217.632632 228.181176 
L 218.038531 228.384563 
L 218.200891 228.27234 
L 218.444431 227.825266 
L 218.68797 228.556568 
L 218.85033 228.909336 
L 218.93151 228.859223 
L 219.256229 228.092599 
L 219.418589 227.954822 
L 219.743309 227.87605 
L 219.905668 228.36423 
L 219.986848 228.418819 
L 220.311568 228.120569 
L 220.473928 228.161335 
L 220.636287 227.898648 
L 220.961007 228.201661 
L 221.204546 228.29518 
L 221.366906 228.189019 
L 221.610446 227.955995 
L 222.422244 228.282708 
L 222.746964 228.450908 
L 222.909324 228.460292 
L 222.990504 228.47853 
L 223.234043 228.114069 
L 223.315223 228.1174 
L 223.558763 228.473677 
L 223.639943 228.468117 
L 223.802302 228.155264 
L 224.208202 228.276154 
L 224.370561 228.281875 
L 224.532921 229.256659 
L 224.695281 227.849816 
L 224.93882 226.400309 
L 225.02 226.034703 
L 225.10118 226.102301 
L 225.18236 226.092256 
L 225.34472 225.914314 
L 225.50708 226.539151 
L 225.669439 226.327696 
L 225.750619 226.591045 
L 225.831799 226.514162 
L 225.912979 226.452051 
L 226.075339 226.811543 
L 226.237698 226.584053 
L 226.318878 226.704504 
L 226.562418 226.518683 
L 227.211857 227.383214 
L 227.374217 227.383187 
L 227.536576 227.812677 
L 227.617756 227.638854 
L 227.698936 227.519441 
L 227.942476 217.073865 
L 228.104836 216.122772 
L 228.267195 216.35772 
L 228.510735 216.270782 
L 228.673095 216.622896 
L 228.916634 207.75598 
L 229.078994 206.572303 
L 229.241354 206.667156 
L 229.403713 206.664407 
L 229.647253 206.411095 
L 229.809613 206.564594 
L 230.053152 206.441868 
L 230.215512 206.351429 
L 230.783771 206.410952 
L 230.946131 206.614796 
L 231.270851 206.502072 
L 231.51439 198.726452 
L 231.67675 197.620141 
L 231.83911 197.500335 
L 232.001469 197.734316 
L 232.163829 197.684767 
L 232.488549 197.515269 
L 232.894448 197.551047 
L 233.137988 189.913231 
L 233.381527 188.872083 
L 233.706247 188.826421 
L 233.949786 188.853379 
L 234.193326 188.616461 
L 234.436866 181.334582 
L 234.680405 179.752142 
L 235.005125 179.872674 
L 235.735744 179.830342 
L 235.979283 179.758535 
L 236.222823 179.758535 
L 236.385182 179.983053 
L 236.466362 179.943461 
L 236.709902 179.572822 
L 236.953442 179.888683 
L 237.278161 179.628334 
L 237.440521 179.63855 
L 237.602881 179.440776 
L 238.25232 179.596674 
L 238.414679 179.597041 
L 238.658219 171.66726 
L 238.901759 170.200115 
L 239.064118 169.938691 
L 239.145298 170.012307 
L 239.307658 170.30591 
L 239.388838 170.265189 
L 239.470018 170.417488 
L 239.632377 170.228014 
L 239.794737 170.398435 
L 239.875917 170.273784 
L 240.038277 170.362299 
L 240.362996 169.86461 
L 240.525356 170.228874 
L 240.768896 169.949919 
L 241.012435 169.360511 
L 241.093615 169.321277 
L 241.255975 169.800145 
L 241.337155 169.58775 
L 241.499514 170.162081 
L 241.580694 169.7954 
L 241.661874 169.974845 
L 241.824234 169.316352 
L 241.905414 169.725867 
L 241.986594 169.568196 
L 242.230133 161.176827 
L 242.473673 160.13097 
L 242.554853 160.381811 
L 242.636033 160.175236 
L 242.798392 160.335647 
L 243.041932 159.678712 
L 243.204292 159.77258 
L 243.285472 159.574905 
L 243.529011 150.305647 
L 243.691371 149.463213 
L 243.934911 149.982498 
L 244.17845 141.522545 
L 244.25963 140.773461 
L 244.50317 131.816178 
L 244.58435 131.047879 
L 244.746709 124.201649 
L 244.909069 129.103468 
L 245.152609 122.499144 
L 245.314968 122.06601 
L 245.396148 122.094751 
L 245.558508 122.240173 
L 245.802048 114.453147 
L 246.045587 113.221057 
L 246.207947 113.217386 
L 246.451487 105.153912 
L 246.695026 104.334435 
L 246.938566 104.166307 
L 247.182106 104.825194 
L 247.425645 96.426609 
L 247.669185 95.378227 
L 247.912724 95.376687 
L 248.156264 95.855054 
L 248.237444 95.779003 
L 248.399804 95.282102 
L 248.480983 95.327711 
L 248.724523 87.685875 
L 248.968063 86.443632 
L 249.292782 86.218362 
L 249.698682 86.324497 
L 250.023401 86.258564 
L 250.185761 86.594606 
L 250.266941 86.633446 
L 250.4293 86.854042 
L 250.59166 86.551486 
L 250.8352 86.463133 
L 250.99756 85.810209 
L 251.078739 85.990532 
L 251.241099 86.045578 
L 251.484639 85.452768 
L 251.890538 86.396537 
L 251.971718 86.273516 
L 252.215258 86.617133 
L 252.377617 86.224039 
L 252.458797 86.187938 
L 252.621157 86.642668 
L 253.270596 86.434589 
L 253.351776 86.497192 
L 253.514136 86.137906 
L 253.676495 86.26578 
L 253.838855 86.815578 
L 254.001215 86.332484 
L 254.163575 86.61339 
L 254.244754 86.426477 
L 254.407114 86.634538 
L 254.731834 85.754572 
L 254.813014 85.800915 
L 255.056553 86.496959 
L 255.218913 85.9571 
L 255.300093 86.066637 
L 255.462452 86.058113 
L 255.705992 85.436222 
L 256.355431 85.865147 
L 256.517791 85.952569 
L 257.24841 85.788488 
L 257.816669 85.763669 
L 257.897849 85.971318 
L 257.979029 85.889877 
L 258.141388 85.899045 
L 258.222568 85.89113 
L 258.384928 86.345842 
L 258.547288 86.400226 
L 258.790827 78.093073 
L 259.034367 76.550083 
L 259.277906 77.024582 
L 259.359086 76.985043 
L 259.521446 76.781298 
L 259.764986 85.123763 
L 259.927345 86.171088 
L 260.008525 86.337999 
L 260.089705 86.252457 
L 260.170885 86.21992 
L 260.414425 94.491241 
L 260.495605 94.943857 
L 260.739144 103.781271 
L 260.820324 104.47633 
L 261.063864 112.475089 
L 261.145044 113.297968 
L 261.388583 121.761842 
L 261.469763 122.040403 
L 261.713303 130.37703 
L 261.956842 131.82155 
L 262.443922 131.44921 
L 262.606281 132.063545 
L 262.687461 133.029823 
L 262.768641 132.912944 
L 263.012181 132.045942 
L 263.3369 129.569497 
L 263.49926 129.085579 
L 263.58044 129.156437 
L 263.905159 132.23735 
L 264.229879 132.923223 
L 264.392238 133.670964 
L 264.473418 133.27864 
L 264.635778 133.873116 
L 264.879318 135.523441 
L 265.122857 128.539685 
L 265.366397 127.446626 
L 265.609937 127.715946 
L 265.691116 127.252675 
L 265.934656 134.98333 
L 266.015836 135.419294 
L 266.259376 142.388204 
L 266.340555 143.161212 
L 266.584095 151.319952 
L 266.827635 153.344425 
L 266.989994 153.737733 
L 267.233534 161.241901 
L 267.477074 162.700263 
L 267.801793 162.213587 
L 267.882973 162.269385 
L 267.964153 162.173297 
L 268.288872 162.552835 
L 268.370052 162.464733 
L 268.532412 162.080019 
L 268.857131 162.116675 
L 269.019491 162.004308 
L 269.425391 162.007102 
L 269.75011 161.807117 
L 270.07483 162.154172 
L 270.318369 162.021553 
L 270.480729 162.13922 
L 270.724268 161.508052 
L 270.886628 162.421487 
L 270.967808 162.878831 
L 271.373707 160.586757 
L 271.536067 160.514412 
L 271.617247 160.706089 
L 271.779607 160.50562 
L 271.941967 160.850473 
L 272.023146 160.700269 
L 272.185506 160.155073 
L 272.429046 160.934797 
L 272.591406 160.518871 
L 272.997305 160.769121 
L 273.159665 160.707951 
L 273.646744 160.969339 
L 274.458543 160.678978 
L 274.702082 160.837311 
L 274.945622 160.823773 
L 275.107982 160.818151 
L 275.676241 160.547075 
L 275.91978 160.499568 
L 276.08214 160.718731 
L 276.16332 160.719071 
L 276.40686 160.350886 
L 276.488039 160.406004 
L 276.731579 160.803449 
L 276.893939 160.70539 
L 277.056299 160.956124 
L 277.299838 153.054618 
L 277.543378 151.077384 
L 277.786917 151.567265 
L 277.949277 151.62292 
L 278.111637 151.600106 
L 278.273997 152.010749 
L 278.436356 152.011 
L 279.085795 151.494921 
L 279.166975 151.665771 
L 279.329335 151.721068 
L 279.735234 151.526759 
L 279.897594 151.20139 
L 280.141134 151.602094 
L 280.384673 151.179651 
L 280.871753 151.420446 
L 281.115292 151.434306 
L 281.277652 151.823173 
L 281.521192 151.377773 
L 281.764731 151.849909 
L 282.57653 151.705578 
L 282.982429 151.597743 
L 283.063609 151.577543 
L 283.225969 151.895303 
L 283.469508 151.823102 
L 283.713048 151.753927 
L 284.606027 151.753927 
L 284.768386 152.006129 
L 284.930746 151.973467 
L 285.174286 151.766408 
L 285.417825 159.62012 
L 285.661365 161.489232 
L 285.823725 161.762081 
L 286.554344 161.398712 
L 286.797883 161.879927 
L 286.960243 161.881108 
L 287.203783 161.750692 
L 287.366142 162.052389 
L 287.528502 161.97127 
L 287.609682 161.912105 
L 287.853222 162.16035 
L 288.096761 161.28871 
L 288.66502 161.844883 
L 288.82738 161.458199 
L 288.98974 161.430927 
L 289.557999 161.872835 
L 289.801538 161.859513 
L 289.963898 162.144359 
L 290.450977 161.99095 
L 290.613337 162.150662 
L 291.262776 161.896222 
L 291.425136 162.214841 
L 291.587496 162.200605 
L 291.912215 162.064691 
L 292.155755 162.064709 
L 292.318115 162.24616 
L 292.724014 162.060321 
L 292.805194 162.109512 
L 292.967554 162.514657 
L 293.211093 162.143231 
L 293.454633 162.575129 
L 293.860532 162.090423 
L 294.266431 162.177791 
L 294.428791 162.489247 
L 294.591151 162.46989 
L 294.91587 162.33095 
L 295.24059 162.33095 
L 295.40295 162.591514 
L 295.48413 162.596832 
L 295.727669 162.1529 
L 295.890029 162.251837 
L 296.052389 162.091677 
L 296.295928 162.334441 
L 296.458288 162.654063 
L 296.701828 162.411477 
L 296.864187 162.019261 
L 297.026547 162.038797 
L 297.107727 162.098804 
L 297.270087 161.938339 
L 297.513626 162.180961 
L 297.675986 162.572855 
L 297.838346 162.553766 
L 297.919526 162.493867 
L 298.081885 162.654063 
L 298.244245 162.005562 
L 298.568965 161.978487 
L 298.731324 162.002482 
L 298.812504 161.840101 
L 299.056044 153.363567 
L 299.299584 151.776078 
L 299.380763 151.723109 
L 299.543123 151.824642 
L 299.624303 151.830157 
L 299.786663 153.03381 
L 300.030202 146.490656 
L 300.111382 145.397883 
L 300.354922 136.794477 
L 300.436102 136.020341 
L 300.679641 142.210621 
L 300.923181 143.22523 
L 301.085541 142.598647 
L 301.32908 149.888826 
L 301.6538 153.095732 
L 301.73498 153.232273 
L 301.978519 160.431485 
L 302.222059 162.028608 
L 302.627958 161.742079 
L 302.790318 161.742079 
L 302.871498 161.553554 
L 303.033858 161.754811 
L 303.277397 161.44194 
L 303.602117 161.697293 
L 304.008016 161.424713 
L 304.251556 161.431948 
L 304.576275 161.70725 
L 304.819815 161.597319 
L 304.982175 161.528431 
L 305.144534 161.644432 
L 305.306894 161.901093 
L 306.118693 161.905354 
L 306.362232 161.847139 
L 306.686952 161.614706 
L 307.092851 161.69176 
L 307.255211 161.56206 
L 308.06701 161.650735 
L 308.22937 161.573682 
L 308.878808 161.663288 
L 310.015327 161.675626 
L 310.177686 161.889364 
L 310.421226 161.767166 
L 310.583586 161.682681 
L 310.908305 161.611573 
L 311.314205 161.511598 
L 313.100162 161.587398 
L 313.506061 161.682681 
L 314.39904 161.682681 
L 314.642579 168.942974 
L 314.886119 171.038251 
L 315.048479 171.034598 
L 315.210839 171.005374 
L 315.454378 170.611295 
L 316.590896 170.74241 
L 316.753256 171.181713 
L 317.077976 170.631047 
L 317.321515 170.975308 
L 317.565055 170.554942 
L 317.808594 170.990869 
L 318.295674 170.810797 
L 318.945113 170.902409 
L 319.188652 178.465446 
L 319.432192 180.076089 
L 319.838091 179.998041 
L 320.162811 180.018956 
L 320.243991 180.136775 
L 320.48753 187.539894 
L 320.73107 189.733167 
L 321.136969 189.244253 
L 321.705228 189.185312 
L 321.867588 189.399506 
L 322.111128 196.970467 
L 322.354667 199.386225 
L 322.679387 198.818315 
L 322.922926 199.229333 
L 323.166466 199.306459 
L 323.410006 206.869173 
L 323.653545 208.644256 
L 323.815905 208.564194 
L 323.978265 208.846005 
L 324.059445 208.855854 
L 324.302984 208.420284 
L 324.384164 208.415969 
L 324.546524 208.692793 
L 324.627704 208.703134 
L 324.790063 208.867484 
L 325.114783 208.809555 
L 325.358323 216.648351 
L 325.601862 218.555533 
L 325.764222 218.548594 
L 326.170121 218.489537 
L 326.413661 218.719901 
L 326.81956 218.691375 
L 327.0631 218.702674 
L 327.30664 218.681768 
L 327.387819 218.771786 
L 327.631359 225.818628 
L 327.874899 227.263488 
L 327.956078 227.275781 
L 328.199618 227.59662 
L 328.361978 227.590845 
L 328.524338 227.520453 
L 329.092597 227.547797 
L 329.254956 227.685734 
L 329.417316 227.732131 
L 329.579676 227.716284 
L 329.823216 227.652615 
L 330.229115 227.940327 
L 330.472655 227.834362 
L 330.635014 227.857919 
L 330.878554 228.052881 
L 331.284453 228.016611 
L 331.527993 235.816736 
L 331.771532 236.670128 
L 331.852712 236.670513 
L 332.096252 236.383348 
L 332.339792 236.30103 
L 332.583331 236.241355 
L 332.745691 236.394352 
L 332.908051 236.439137 
L 333.15159 236.823251 
L 333.63867 236.670012 
L 333.719849 236.842035 
L 333.801029 236.760424 
L 333.963389 236.944087 
L 334.206929 236.834488 
L 334.288109 236.967563 
L 334.369288 236.839815 
L 334.450468 236.896956 
L 334.612828 236.998936 
L 334.856368 236.695556 
L 335.099907 237.073429 
L 335.343447 237.0262 
L 335.586986 236.729007 
L 335.830526 236.856755 
L 336.155246 228.842677 
L 336.317605 228.18815 
L 336.479965 228.222765 
L 336.885864 228.076026 
L 337.048224 228.185509 
L 337.291764 228.111088 
L 337.454124 228.154673 
L 337.616483 228.174237 
L 337.860023 228.091587 
L 338.103563 228.148701 
L 338.347102 235.966098 
L 338.509462 236.586234 
L 338.753002 236.704984 
L 338.915361 236.730896 
L 339.077721 236.460026 
L 339.240081 236.43184 
L 339.48362 236.790096 
L 339.80834 236.743556 
L 339.9707 236.460026 
L 340.214239 236.787759 
L 340.457779 236.82078 
L 343.461434 236.823349 
L 343.704974 236.506441 
L 343.948513 236.531529 
L 344.192053 236.90103 
L 344.597952 236.877429 
L 345.003852 236.877429 
L 345.166211 236.558344 
L 345.328571 239.141336 
L 345.409751 238.964755 
L 345.653291 236.886874 
L 345.734471 236.931024 
L 345.89683 236.332654 
L 346.14037 227.608296 
L 346.30273 226.200288 
L 346.465089 226.790556 
L 346.627449 226.607761 
L 346.708629 226.851816 
L 346.870989 226.480452 
L 347.033348 226.72396 
L 347.195708 226.538676 
L 347.276888 226.708981 
L 347.358068 226.649619 
L 347.601608 226.69324 
L 347.926327 226.559798 
L 348.088687 226.473701 
L 348.169867 226.50186 
L 348.413406 218.269764 
L 348.656946 216.81425 
L 348.738126 216.842668 
L 348.981665 216.42112 
L 349.062845 216.599357 
L 349.144025 216.806648 
L 349.387565 208.22688 
L 349.468745 207.216506 
L 349.549925 207.601542 
L 349.631104 207.511667 
L 349.793464 207.094819 
L 350.037004 197.687176 
L 350.280543 196.430294 
L 350.361723 196.970655 
L 350.442903 196.956321 
L 350.686443 188.122578 
L 350.767623 187.006956 
L 351.011162 178.706698 
L 351.254702 177.141709 
L 351.417062 177.819577 
L 351.660601 169.322781 
L 351.741781 168.403634 
L 351.985321 169.173204 
L 352.22886 168.47485 
L 352.39122 169.26897 
L 352.63476 161.175592 
L 352.878299 160.373861 
L 353.121839 159.802377 
L 353.284199 160.27779 
L 353.446558 160.201148 
L 353.608918 160.087618 
L 353.690098 160.110556 
L 353.852458 159.910518 
L 354.177177 159.850368 
L 354.339537 160.043298 
L 354.583077 151.360547 
L 354.745436 150.400912 
L 354.907796 150.528374 
L 355.151336 150.259375 
L 355.313695 150.513386 
L 355.557235 141.635431 
L 355.638415 140.894959 
L 355.881955 132.284212 
L 356.125494 130.586578 
L 356.206674 130.533788 
L 356.450214 131.063154 
L 356.612573 131.344132 
L 356.937293 131.071857 
L 357.099653 130.946454 
L 357.262012 131.393197 
L 357.505552 123.438132 
L 357.749092 122.11828 
L 357.830272 122.137727 
L 358.073811 123.199002 
L 358.236171 122.976096 
L 358.47971 114.710148 
L 358.72325 113.542577 
L 358.88561 113.874948 
L 359.129149 113.568972 
L 359.210329 113.5701 
L 359.453869 105.963827 
L 359.697409 104.16423 
L 359.859768 104.320969 
L 360.022128 105.040239 
L 360.184488 104.665517 
L 360.428027 96.73896 
L 360.509207 96.091551 
L 360.590387 96.113917 
L 360.996287 95.49122 
L 361.077466 95.571551 
L 361.158646 95.607884 
L 361.321006 96.123139 
L 361.645726 95.909849 
L 361.889265 95.897977 
L 362.051625 96.058567 
L 362.213985 95.850147 
L 362.538704 95.897977 
L 362.944603 95.897977 
L 363.106963 95.479204 
L 363.350503 87.878267 
L 363.594042 86.726903 
L 363.756402 86.627 
L 363.918762 87.277721 
L 364.162302 86.615808 
L 364.243481 86.48951 
L 364.405841 86.891342 
L 364.649381 86.592564 
L 364.730561 86.782772 
L 364.9741 94.772219 
L 365.13646 95.901612 
L 365.21764 95.965952 
L 365.46118 95.478327 
L 365.542359 95.605198 
L 365.704719 95.142052 
L 365.867079 95.656107 
L 366.029439 96.316821 
L 366.272978 95.388595 
L 366.678878 98.539703 
L 366.760057 98.52647 
L 367.003597 98.303259 
L 367.247137 105.89125 
L 367.328317 106.88412 
L 367.571856 115.900549 
L 367.815396 118.64542 
L 367.977756 119.327783 
L 368.221295 126.999703 
L 368.302475 127.790744 
L 368.546015 143.157595 
L 368.789554 146.209176 
L 368.951914 145.720298 
L 369.195454 152.592582 
L 369.276634 152.989061 
L 369.520173 160.858549 
L 369.763713 163.285105 
L 369.926072 163.478285 
L 370.007252 163.361836 
L 370.088432 163.474274 
L 370.169612 163.398259 
L 370.250792 163.477802 
L 370.494332 170.645247 
L 370.737871 171.697138 
L 370.819051 171.984527 
L 370.900231 171.843859 
L 370.981411 171.922345 
L 371.22495 171.594137 
L 371.38731 171.698848 
L 371.46849 171.686555 
L 371.54967 171.961176 
L 371.79321 179.733591 
L 372.036749 181.512872 
L 372.117929 181.451505 
L 372.280289 181.722688 
L 372.523828 181.479189 
L 372.767368 189.680762 
L 373.010908 191.509431 
L 373.335627 191.318256 
L 373.741526 191.134289 
L 373.903886 191.020419 
L 373.985066 191.021959 
L 374.147426 190.879115 
L 374.309786 190.828125 
L 374.878045 190.949892 
L 375.121584 190.580265 
L 375.365124 198.330233 
L 375.608664 200.449336 
L 375.689843 200.42406 
L 375.852203 200.493414 
L 375.933383 200.242886 
L 376.014563 200.276569 
L 376.095743 200.415464 
L 376.339282 207.917913 
L 376.582822 209.847014 
L 376.988721 209.518215 
L 377.394621 209.978496 
L 377.63816 216.867335 
L 377.8817 218.796229 
L 378.04406 218.714063 
L 378.12524 218.580441 
L 378.368779 218.684884 
L 378.612319 225.470463 
L 378.855858 226.756613 
L 379.018218 226.918797 
L 379.505297 227.259289 
L 379.586477 227.230279 
L 379.748837 227.368799 
L 380.235916 227.125989 
L 380.479456 227.391666 
L 380.641816 227.570324 
L 380.966535 227.471657 
L 381.372434 227.674811 
L 381.534794 227.500209 
L 381.615974 227.553178 
L 381.859514 234.865177 
L 382.021873 235.703886 
L 382.103053 235.708381 
L 382.590133 236.500317 
L 382.671312 236.484523 
L 382.833672 236.135381 
L 382.996032 236.366704 
L 383.077212 236.37743 
L 383.239572 236.604401 
L 383.483111 236.574272 
L 383.726651 237.207785 
L 383.97019 237.319041 
L 384.13255 237.109906 
L 384.21373 237.22332 
L 384.45727 242.094831 
L 384.619629 242.794663 
L 384.781989 242.86159 
L 384.944349 242.481094 
L 385.106709 242.696031 
L 385.187888 242.546687 
L 385.431428 242.793857 
L 385.593788 242.855009 
L 385.674968 242.788825 
L 385.756148 242.993994 
L 385.999687 242.763442 
L 386.243227 242.575204 
L 386.324407 242.515153 
L 386.486766 242.727923 
L 386.649126 242.300582 
L 386.730306 242.409009 
L 386.811486 242.441671 
L 387.055026 237.720838 
L 387.298565 237.100379 
L 387.379745 237.05717 
L 387.542105 237.107757 
L 387.623285 237.126694 
L 387.704465 236.960839 
L 387.785644 237.071504 
L 387.948004 236.95981 
L 388.353904 237.06726 
L 388.597443 237.290345 
L 388.759803 237.166832 
L 389.571602 237.082705 
L 389.733961 237.043355 
L 389.896321 237.269466 
L 390.058681 237.095025 
L 390.139861 237.189699 
L 390.221041 238.37138 
L 390.3834 236.435986 
L 390.62694 234.939214 
L 390.87048 235.406639 
L 390.951659 235.429587 
L 391.032839 235.823594 
L 391.114019 235.717818 
L 391.276379 235.711935 
L 391.357559 235.687071 
L 391.763458 234.408066 
L 391.925818 234.274453 
L 392.006998 234.151987 
L 392.088178 234.215494 
L 392.250537 233.975398 
L 392.656437 233.259772 
L 392.981156 226.244026 
L 393.224696 225.506151 
L 393.630595 227.093775 
L 393.792955 226.339658 
L 393.955315 227.80084 
L 394.198854 220.44753 
L 394.361214 217.049673 
L 394.442394 217.05868 
L 394.604754 215.214575 
L 394.848293 196.646073 
L 394.929473 201.870782 
L 395.091833 195.791991 
L 395.254193 202.893333 
L 395.335373 192.664261 
L 395.416552 192.810785 
L 395.578912 190.946167 
L 395.822452 199.301785 
L 395.903632 199.563021 
L 395.984812 194.567083 
L 396.147171 197.333155 
L 396.228351 193.352032 
L 396.390711 181.046915 
L 396.471891 179.790625 
L 396.553071 174.450479 
L 396.79661 137.347642 
L 396.87779 134.51902 
L 397.12133 110.115666 
L 397.20251 108.622332 
L 397.283689 103.261647 
L 397.527229 107.304504 
L 397.689589 108.109476 
L 397.851949 107.441313 
L 398.095488 98.976651 
L 398.257848 98.512556 
L 398.339028 98.52998 
L 398.420208 98.337784 
L 398.501388 98.513326 
L 398.744927 90.703952 
L 398.826107 90.711705 
L 399.069647 82.662575 
L 399.232006 81.844137 
L 399.313186 81.860307 
L 399.556726 82.49989 
L 399.800266 82.255675 
L 400.043805 74.237165 
L 400.206165 73.733101 
L 400.855604 73.646861 
L 401.017964 73.549376 
L 401.505043 73.732689 
L 401.586223 73.695801 
L 401.748582 74.026722 
L 401.910942 73.982868 
L 402.073302 74.144729 
L 402.235662 73.979 
L 402.398021 74.217664 
L 402.560381 74.186345 
L 402.885101 74.701582 
L 403.12864 66.764477 
L 403.37218 64.571339 
L 403.61572 54.887373 
L 403.696899 53.948994 
L 403.940439 45.133373 
L 404.021619 44.64 
L 404.102799 45.785885 
L 404.183979 45.418022 
L 404.265158 45.118976 
L 404.671058 49.412405 
L 404.914597 58.998545 
L 404.995777 60.095025 
L 405.239317 67.926873 
L 405.564036 69.045772 
L 405.645216 68.871286 
L 405.888756 75.888295 
L 406.132296 76.940473 
L 406.457015 77.106721 
L 406.619375 76.851995 
L 406.862914 76.814587 
L 407.025274 77.156324 
L 407.268814 77.08149 
L 407.512353 84.930421 
L 407.674713 85.784799 
L 407.837073 85.85383 
L 407.999433 85.882893 
L 408.405332 85.4785 
L 408.730051 85.641633 
L 408.973591 85.231061 
L 409.054771 85.291086 
L 409.298311 85.964495 
L 409.37949 85.918403 
L 409.46067 86.27425 
L 409.70421 85.782149 
L 409.86657 88.306405 
L 410.028929 88.919737 
L 410.191289 87.471295 
L 410.272469 87.502436 
L 410.597189 89.055507 
L 410.921908 88.649986 
L 411.003088 88.688934 
L 411.165448 89.564907 
L 411.408987 98.376821 
L 411.490167 99.659731 
L 411.733707 108.257638 
L 411.814887 109.135402 
L 412.058426 117.516206 
L 412.301966 119.026015 
L 412.464326 118.27351 
L 412.707865 133.238493 
L 412.789045 134.950722 
L 413.032585 143.724995 
L 413.113765 144.203058 
L 413.357304 151.526419 
L 413.438484 152.341276 
L 413.682024 161.726285 
L 413.844383 163.318949 
L 414.006743 163.396182 
L 414.899722 162.134779 
L 415.224441 162.282332 
L 415.386801 161.988264 
L 415.549161 162.222505 
L 415.71152 162.530039 
L 415.87388 162.16839 
L 415.95506 162.190308 
L 416.11742 162.514245 
L 416.27978 162.195036 
L 416.442139 162.140025 
L 416.523319 162.017398 
L 416.604499 162.080019 
L 416.685679 162.000244 
L 416.929219 169.739154 
L 417.172758 171.252723 
L 417.335118 171.080279 
L 417.659837 171.413187 
L 417.741017 171.389998 
L 417.903377 171.140428 
L 418.228097 171.302701 
L 418.633996 171.123649 
L 418.715176 171.134967 
L 418.958715 171.442009 
L 419.283435 171.039003 
L 419.526974 178.493551 
L 419.770514 180.455331 
L 419.851694 180.503304 
L 420.014054 180.32864 
L 420.501133 180.522456 
L 420.663493 180.422427 
L 421.069392 180.490859 
L 421.312932 180.347173 
L 421.475291 180.444721 
L 421.556471 180.710255 
L 421.637651 180.591988 
L 421.800011 180.655621 
L 421.881191 180.722056 
L 422.12473 188.074775 
L 422.36827 189.83735 
L 422.53063 189.681129 
L 422.774169 189.89493 
L 422.936529 189.601336 
L 423.180069 189.696377 
L 423.342428 189.789171 
L 424.641306 189.85566 
L 424.722486 189.611686 
L 424.884846 189.736256 
L 425.128386 189.818834 
L 425.371925 189.743625 
L 425.534285 189.743625 
L 425.696645 189.445509 
L 425.777825 189.42839 
L 425.859005 189.233715 
L 425.940184 189.273853 
L 426.102544 189.394537 
L 426.183724 189.529583 
L 426.346084 189.114839 
L 426.670803 189.648413 
L 426.995523 189.471851 
L 427.239062 189.387267 
L 427.401422 189.406132 
L 427.563782 189.560714 
L 427.726142 189.645584 
L 427.888501 189.482622 
L 428.86266 189.732451 
L 429.02502 189.506429 
L 429.430919 189.467956 
L 429.512099 189.467956 
L 429.674459 189.644474 
L 429.917998 197.072483 
L 430.161538 198.608391 
L 430.242718 198.609376 
L 430.405077 199.196277 
L 430.567437 199.406935 
L 430.973336 199.269266 
L 431.866315 199.269266 
L 432.028675 199.542267 
L 432.191035 199.51948 
L 432.515754 199.396217 
L 433.246373 199.396217 
L 433.489913 206.713669 
L 433.733452 208.666971 
L 433.976992 208.561221 
L 434.464071 208.564194 
L 434.707611 208.29404 
L 434.95115 208.56269 
L 435.27587 208.564194 
L 435.519409 209.012289 
L 435.681769 208.641122 
L 435.844129 208.856069 
L 436.087668 208.753524 
L 436.250028 208.67502 
L 436.412388 208.684591 
L 436.655928 208.658179 
L 436.899467 209.132651 
L 437.061827 208.794862 
L 437.143007 208.877879 
L 437.386546 216.483606 
L 437.630086 218.385882 
L 437.792446 218.393484 
L 438.035985 211.088943 
L 438.279525 209.077524 
L 439.334863 208.788998 
L 439.497223 208.912825 
L 439.578403 208.735975 
L 439.740763 208.861682 
L 439.984302 216.639567 
L 440.227842 218.489537 
L 440.714921 218.489537 
L 440.958461 218.719901 
L 441.28318 218.518609 
L 441.36436 218.400297 
L 441.44554 218.465049 
L 441.6079 218.640448 
L 441.851439 218.33551 
L 441.932619 218.363391 
L 442.094979 218.656304 
L 442.419698 218.414444 
L 442.663238 218.489537 
L 446.072793 218.489537 
L 446.316332 218.719901 
L 446.559872 218.231721 
L 446.803412 209.90052 
L 447.046951 207.755273 
L 447.128131 207.775436 
L 447.290491 207.585631 
L 447.452851 207.760806 
L 447.69639 207.358517 
L 447.77757 207.355912 
L 448.10229 206.606765 
L 448.183469 206.649392 
L 448.508189 205.970046 
L 448.589369 206.078115 
L 448.670549 206.137691 
L 448.995268 205.655663 
L 449.076448 205.872382 
L 449.157628 205.006911 
L 449.401168 197.031252 
L 449.563527 195.731824 
L 449.644707 195.712207 
L 449.807067 195.575147 
L 450.050606 188.053797 
L 450.294146 186.57375 
L 450.537686 186.339214 
L 450.618866 186.615044 
L 450.700045 186.547436 
L 450.781225 186.451123 
L 451.024765 178.946409 
L 451.268305 177.813596 
L 451.511844 177.289611 
L 451.674204 178.120459 
L 451.755384 178.104719 
L 451.998923 170.041835 
L 452.242463 168.995334 
L 452.404823 168.790604 
L 452.567183 169.231258 
L 452.648362 169.202428 
L 452.729542 169.534603 
L 452.973082 161.50807 
L 453.135442 160.037783 
L 453.378981 160.617342 
L 453.460161 160.570676 
L 453.541341 160.31971 
L 453.703701 160.835162 
L 454.02842 159.933546 
L 454.19078 159.662273 
L 454.35314 160.026662 
L 454.596679 151.379922 
L 454.759039 150.259304 
L 454.921399 150.428077 
L 455.002579 150.391511 
L 455.246118 141.70149 
L 455.327298 141.054779 
L 455.570838 131.990431 
L 455.733198 130.90919 
L 455.814377 130.940616 
L 455.976737 131.559535 
L 456.220277 122.523444 
L 456.382637 121.415414 
L 456.463816 121.328654 
L 456.626176 121.773517 
L 456.869716 122.259441 
L 456.950896 121.939927 
L 457.194435 113.991881 
L 457.275615 113.450106 
L 457.356795 113.574505 
L 457.519155 113.488391 
L 457.762694 113.242796 
L 457.925054 113.252609 
L 458.168594 113.705262 
L 458.493313 113.78416 
L 458.574493 113.652007 
L 458.818033 105.611686 
L 459.061572 104.394907 
L 459.305112 104.527992 
L 459.467472 104.589144 
L 459.548652 104.640161 
L 459.792191 96.968366 
L 460.035731 95.788046 
L 460.27927 95.715612 
L 460.928709 95.715612 
L 461.091069 96.059874 
L 461.172249 96.0475 
L 461.415789 87.749498 
L 461.659328 86.486663 
L 461.740508 86.346093 
L 461.984048 86.935447 
L 462.308767 86.75122 
L 462.471127 86.701475 
L 462.552307 86.887224 
L 462.795846 86.431061 
L 462.958206 89.003076 
L 463.039386 89.110339 
L 463.120566 88.997811 
L 463.282926 86.681365 
L 463.445285 87.57709 
L 463.607645 89.178761 
L 463.688825 89.109891 
L 463.851185 89.292632 
L 464.094724 89.081831 
L 464.338264 97.714281 
L 464.581804 99.957291 
L 464.744163 100.634514 
L 464.987703 116.429414 
L 465.068883 117.969557 
L 465.312422 126.902576 
L 465.393602 127.69761 
L 465.637142 135.577878 
L 465.718322 136.291954 
L 465.961861 151.462079 
L 466.205401 153.086636 
L 466.367761 152.857552 
L 466.6113 161.286704 
L 466.85484 163.038866 
L 467.09838 162.907823 
L 467.17956 163.342067 
L 467.260739 163.177914 
L 467.585459 162.445106 
L 467.666639 162.739622 
L 467.828999 170.454878 
L 468.234898 171.949152 
L 468.316078 172.703886 
L 468.559617 164.369712 
L 468.803157 162.36782 
L 469.046697 163.050362 
L 469.290236 161.056492 
L 469.452596 161.329968 
L 469.696136 160.419022 
L 469.939675 161.1478 
L 470.102035 160.710619 
L 470.345575 161.041665 
L 470.589114 160.502325 
L 470.832654 160.751196 
L 470.913834 160.740721 
L 471.157373 160.437359 
L 471.482093 160.441459 
L 471.563273 160.723745 
L 471.806812 168.974544 
L 471.887992 169.692775 
L 472.050352 163.914571 
L 472.131532 163.177806 
L 472.212712 163.82423 
L 472.456251 161.888952 
L 472.699791 161.257964 
L 472.780971 161.22283 
L 472.862151 161.350023 
L 473.02451 160.862166 
L 473.10569 161.137199 
L 473.26805 163.419747 
L 473.592769 161.045999 
L 473.673949 161.069887 
L 473.836309 161.486779 
L 473.917489 161.507497 
L 473.998669 161.725139 
L 474.161029 161.094939 
L 474.404568 168.606502 
L 474.566928 169.663264 
L 474.729288 170.193597 
L 474.891647 169.536913 
L 474.972827 169.711488 
L 475.297547 171.464213 
L 475.378727 171.675238 
L 475.459907 171.608633 
L 475.703446 187.458131 
L 475.784626 189.212755 
L 476.028166 198.582641 
L 476.271705 200.411203 
L 476.434065 200.223323 
L 476.596425 199.88052 
L 476.921144 199.820147 
L 477.164684 200.1271 
L 477.245864 200.215068 
L 477.327044 200.107572 
L 477.651763 200.475068 
L 477.814123 200.308434 
L 477.976483 200.001957 
L 478.138842 200.10656 
L 478.220022 200.118253 
L 478.301202 200.309034 
L 478.382382 200.215399 
L 478.625922 208.128965 
L 478.707101 209.253487 
L 479.031821 199.360421 
L 479.194181 198.158622 
L 479.275361 198.286307 
L 479.43772 198.217366 
L 479.5189 198.411853 
L 479.60008 198.350764 
L 479.76244 197.988497 
L 479.84362 198.093897 
L 480.005979 197.8035 
L 480.249519 188.82198 
L 480.330699 188.047781 
L 480.411879 188.222033 
L 480.493059 188.430381 
L 480.655418 189.081138 
L 480.736598 189.112807 
L 480.980138 188.969381 
L 481.304857 188.873203 
L 481.548397 195.87225 
L 481.710757 197.289632 
L 481.791937 197.313037 
L 482.116656 196.560406 
L 482.279016 197.037511 
L 482.360196 197.01912 
L 482.441376 197.194654 
L 482.522555 197.151641 
L 482.603735 196.994087 
L 482.766095 197.159413 
L 482.928455 196.974487 
L 483.090815 197.073253 
L 483.334354 196.82286 
L 483.415534 196.72122 
L 483.496714 197.110768 
L 483.577894 196.953393 
L 483.821433 189.451508 
L 483.902613 188.44502 
L 484.146153 195.945006 
L 484.227333 196.449697 
L 484.470872 189.245139 
L 484.633232 188.164042 
L 484.714412 188.062267 
L 484.876772 188.3409 
L 484.957952 188.348161 
L 485.201491 187.885848 
L 485.445031 180.555772 
L 485.68857 179.293482 
L 485.76975 179.266076 
L 485.93211 179.460563 
L 486.01329 179.418741 
L 486.25683 179.012674 
L 486.500369 179.481729 
L 486.743909 171.13246 
L 487.230988 169.409254 
L 487.474528 170.205362 
L 487.636887 170.11572 
L 487.880427 170.257901 
L 488.042787 169.988508 
L 488.123967 170.048479 
L 488.367506 170.590953 
L 488.854585 170.413692 
L 489.016945 170.704 
L 489.179305 170.677909 
L 489.504024 170.296455 
L 489.585204 170.382516 
L 489.747564 170.74737 
L 489.828744 170.70665 
L 489.991104 170.786766 
L 490.478183 170.472964 
L 490.802902 170.40977 
L 491.127622 170.554494 
L 491.208802 170.516424 
L 491.371162 170.967877 
L 491.614701 170.627017 
L 491.858241 170.254445 
L 491.939421 170.274125 
L 492.10178 170.541995 
L 492.34532 170.351537 
L 492.58886 162.845309 
L 492.832399 161.364403 
L 493.157119 161.821693 
L 493.319478 161.750531 
L 493.644198 161.531099 
L 493.887738 161.628369 
L 494.131277 161.965397 
L 494.699536 161.786846 
L 494.780716 161.786846 
L 495.024256 162.07633 
L 495.186616 161.983393 
L 495.348975 161.64522 
L 495.592515 161.733304 
L 495.754875 161.856271 
L 495.836054 161.818524 
L 495.998414 162.185742 
L 496.160774 162.17994 
L 496.485493 162.001855 
L 496.647853 162.296443 
L 496.891393 162.168587 
L 497.297292 161.855466 
L 497.378472 161.910028 
L 497.622012 161.543634 
L 497.703192 161.590908 
L 497.865551 161.951483 
L 498.109091 162.028608 
L 498.109091 162.028608 
" style="fill:none;stroke:#008000;stroke-linecap:square;stroke-width:1.5;"/>
   </g>
   <g id="patch_3">
    <path d="M 72 256.32 
L 72 34.56 
" style="fill:none;stroke:#000000;stroke-linecap:square;stroke-linejoin:miter;stroke-width:0.8;"/>
   </g>
   <g id="patch_4">
    <path d="M 518.4 256.32 
L 518.4 34.56 
" style="fill:none;stroke:#000000;stroke-linecap:square;stroke-linejoin:miter;stroke-width:0.8;"/>
   </g>
   <g id="patch_5">
    <path d="M 72 256.32 
L 518.4 256.32 
" style="fill:none;stroke:#000000;stroke-linecap:square;stroke-linejoin:miter;stroke-width:0.8;"/>
   </g>
   <g id="patch_6">
    <path d="M 72 34.56 
L 518.4 34.56 
" style="fill:none;stroke:#000000;stroke-linecap:square;stroke-linejoin:miter;stroke-width:0.8;"/>
   </g>
   <g id="legend_1">
    <g id="patch_7">
     <path d="M 227.602344 71.91625 
L 362.797656 71.91625 
Q 364.797656 71.91625 364.797656 69.91625 
L 364.797656 41.56 
Q 364.797656 39.56 362.797656 39.56 
L 227.602344 39.56 
Q 225.602344 39.56 225.602344 41.56 
L 225.602344 69.91625 
Q 225.602344 71.91625 227.602344 71.91625 
z
" style="fill:#ffffff;opacity:0.8;stroke:#cccccc;stroke-linejoin:miter;"/>
    </g>
    <g id="line2d_14">
     <path d="M 229.602344 47.658437 
L 249.602344 47.658437 
" style="fill:none;stroke:#ff0000;stroke-linecap:square;stroke-width:1.5;"/>
    </g>
    <g id="line2d_15"/>
    <g id="text_12">
     <!-- True -->
     <defs>
      <path d="M -0.296875 72.90625 
L 61.375 72.90625 
L 61.375 64.59375 
L 35.5 64.59375 
L 35.5 0 
L 25.59375 0 
L 25.59375 64.59375 
L -0.296875 64.59375 
z
" id="DejaVuSans-84"/>
      <path d="M 41.109375 46.296875 
Q 39.59375 47.171875 37.8125 47.578125 
Q 36.03125 48 33.890625 48 
Q 26.265625 48 22.1875 43.046875 
Q 18.109375 38.09375 18.109375 28.8125 
L 18.109375 0 
L 9.078125 0 
L 9.078125 54.6875 
L 18.109375 54.6875 
L 18.109375 46.1875 
Q 20.953125 51.171875 25.484375 53.578125 
Q 30.03125 56 36.53125 56 
Q 37.453125 56 38.578125 55.875 
Q 39.703125 55.765625 41.0625 55.515625 
z
" id="DejaVuSans-114"/>
      <path d="M 8.5 21.578125 
L 8.5 54.6875 
L 17.484375 54.6875 
L 17.484375 21.921875 
Q 17.484375 14.15625 20.5 10.265625 
Q 23.53125 6.390625 29.59375 6.390625 
Q 36.859375 6.390625 41.078125 11.03125 
Q 45.3125 15.671875 45.3125 23.6875 
L 45.3125 54.6875 
L 54.296875 54.6875 
L 54.296875 0 
L 45.3125 0 
L 45.3125 8.40625 
Q 42.046875 3.421875 37.71875 1 
Q 33.40625 -1.421875 27.6875 -1.421875 
Q 18.265625 -1.421875 13.375 4.4375 
Q 8.5 10.296875 8.5 21.578125 
z
M 31.109375 56 
z
" id="DejaVuSans-117"/>
      <path d="M 56.203125 29.59375 
L 56.203125 25.203125 
L 14.890625 25.203125 
Q 15.484375 15.921875 20.484375 11.0625 
Q 25.484375 6.203125 34.421875 6.203125 
Q 39.59375 6.203125 44.453125 7.46875 
Q 49.3125 8.734375 54.109375 11.28125 
L 54.109375 2.78125 
Q 49.265625 0.734375 44.1875 -0.34375 
Q 39.109375 -1.421875 33.890625 -1.421875 
Q 20.796875 -1.421875 13.15625 6.1875 
Q 5.515625 13.8125 5.515625 26.8125 
Q 5.515625 40.234375 12.765625 48.109375 
Q 20.015625 56 32.328125 56 
Q 43.359375 56 49.78125 48.890625 
Q 56.203125 41.796875 56.203125 29.59375 
z
M 47.21875 32.234375 
Q 47.125 39.59375 43.09375 43.984375 
Q 39.0625 48.390625 32.421875 48.390625 
Q 24.90625 48.390625 20.390625 44.140625 
Q 15.875 39.890625 15.1875 32.171875 
z
" id="DejaVuSans-101"/>
     </defs>
     <g transform="translate(257.602344 51.158437)scale(0.1 -0.1)">
      <use xlink:href="#DejaVuSans-84"/>
      <use x="46.333984" xlink:href="#DejaVuSans-114"/>
      <use x="87.447266" xlink:href="#DejaVuSans-117"/>
      <use x="150.826172" xlink:href="#DejaVuSans-101"/>
     </g>
    </g>
    <g id="line2d_16">
     <path d="M 229.602344 62.336562 
L 249.602344 62.336562 
" style="fill:none;stroke:#008000;stroke-linecap:square;stroke-width:1.5;"/>
    </g>
    <g id="line2d_17"/>
    <g id="text_13">
     <!-- Conv+BiLstm+Atten -->
     <defs>
      <path d="M 64.40625 67.28125 
L 64.40625 56.890625 
Q 59.421875 61.53125 53.78125 63.8125 
Q 48.140625 66.109375 41.796875 66.109375 
Q 29.296875 66.109375 22.65625 58.46875 
Q 16.015625 50.828125 16.015625 36.375 
Q 16.015625 21.96875 22.65625 14.328125 
Q 29.296875 6.6875 41.796875 6.6875 
Q 48.140625 6.6875 53.78125 8.984375 
Q 59.421875 11.28125 64.40625 15.921875 
L 64.40625 5.609375 
Q 59.234375 2.09375 53.4375 0.328125 
Q 47.65625 -1.421875 41.21875 -1.421875 
Q 24.65625 -1.421875 15.125 8.703125 
Q 5.609375 18.84375 5.609375 36.375 
Q 5.609375 53.953125 15.125 64.078125 
Q 24.65625 74.21875 41.21875 74.21875 
Q 47.75 74.21875 53.53125 72.484375 
Q 59.328125 70.75 64.40625 67.28125 
z
" id="DejaVuSans-67"/>
      <path d="M 30.609375 48.390625 
Q 23.390625 48.390625 19.1875 42.75 
Q 14.984375 37.109375 14.984375 27.296875 
Q 14.984375 17.484375 19.15625 11.84375 
Q 23.34375 6.203125 30.609375 6.203125 
Q 37.796875 6.203125 41.984375 11.859375 
Q 46.1875 17.53125 46.1875 27.296875 
Q 46.1875 37.015625 41.984375 42.703125 
Q 37.796875 48.390625 30.609375 48.390625 
z
M 30.609375 56 
Q 42.328125 56 49.015625 48.375 
Q 55.71875 40.765625 55.71875 27.296875 
Q 55.71875 13.875 49.015625 6.21875 
Q 42.328125 -1.421875 30.609375 -1.421875 
Q 18.84375 -1.421875 12.171875 6.21875 
Q 5.515625 13.875 5.515625 27.296875 
Q 5.515625 40.765625 12.171875 48.375 
Q 18.84375 56 30.609375 56 
z
" id="DejaVuSans-111"/>
      <path d="M 54.890625 33.015625 
L 54.890625 0 
L 45.90625 0 
L 45.90625 32.71875 
Q 45.90625 40.484375 42.875 44.328125 
Q 39.84375 48.1875 33.796875 48.1875 
Q 26.515625 48.1875 22.3125 43.546875 
Q 18.109375 38.921875 18.109375 30.90625 
L 18.109375 0 
L 9.078125 0 
L 9.078125 54.6875 
L 18.109375 54.6875 
L 18.109375 46.1875 
Q 21.34375 51.125 25.703125 53.5625 
Q 30.078125 56 35.796875 56 
Q 45.21875 56 50.046875 50.171875 
Q 54.890625 44.34375 54.890625 33.015625 
z
" id="DejaVuSans-110"/>
      <path d="M 2.984375 54.6875 
L 12.5 54.6875 
L 29.59375 8.796875 
L 46.6875 54.6875 
L 56.203125 54.6875 
L 35.6875 0 
L 23.484375 0 
z
" id="DejaVuSans-118"/>
      <path d="M 46 62.703125 
L 46 35.5 
L 73.1875 35.5 
L 73.1875 27.203125 
L 46 27.203125 
L 46 0 
L 37.796875 0 
L 37.796875 27.203125 
L 10.59375 27.203125 
L 10.59375 35.5 
L 37.796875 35.5 
L 37.796875 62.703125 
z
" id="DejaVuSans-43"/>
      <path d="M 19.671875 34.8125 
L 19.671875 8.109375 
L 35.5 8.109375 
Q 43.453125 8.109375 47.28125 11.40625 
Q 51.125 14.703125 51.125 21.484375 
Q 51.125 28.328125 47.28125 31.5625 
Q 43.453125 34.8125 35.5 34.8125 
z
M 19.671875 64.796875 
L 19.671875 42.828125 
L 34.28125 42.828125 
Q 41.5 42.828125 45.03125 45.53125 
Q 48.578125 48.25 48.578125 53.8125 
Q 48.578125 59.328125 45.03125 62.0625 
Q 41.5 64.796875 34.28125 64.796875 
z
M 9.8125 72.90625 
L 35.015625 72.90625 
Q 46.296875 72.90625 52.390625 68.21875 
Q 58.5 63.53125 58.5 54.890625 
Q 58.5 48.1875 55.375 44.234375 
Q 52.25 40.28125 46.1875 39.3125 
Q 53.46875 37.75 57.5 32.78125 
Q 61.53125 27.828125 61.53125 20.40625 
Q 61.53125 10.640625 54.890625 5.3125 
Q 48.25 0 35.984375 0 
L 9.8125 0 
z
" id="DejaVuSans-66"/>
      <path d="M 9.421875 54.6875 
L 18.40625 54.6875 
L 18.40625 0 
L 9.421875 0 
z
M 9.421875 75.984375 
L 18.40625 75.984375 
L 18.40625 64.59375 
L 9.421875 64.59375 
z
" id="DejaVuSans-105"/>
      <path d="M 9.8125 72.90625 
L 19.671875 72.90625 
L 19.671875 8.296875 
L 55.171875 8.296875 
L 55.171875 0 
L 9.8125 0 
z
" id="DejaVuSans-76"/>
      <path d="M 44.28125 53.078125 
L 44.28125 44.578125 
Q 40.484375 46.53125 36.375 47.5 
Q 32.28125 48.484375 27.875 48.484375 
Q 21.1875 48.484375 17.84375 46.4375 
Q 14.5 44.390625 14.5 40.28125 
Q 14.5 37.15625 16.890625 35.375 
Q 19.28125 33.59375 26.515625 31.984375 
L 29.59375 31.296875 
Q 39.15625 29.25 43.1875 25.515625 
Q 47.21875 21.78125 47.21875 15.09375 
Q 47.21875 7.46875 41.1875 3.015625 
Q 35.15625 -1.421875 24.609375 -1.421875 
Q 20.21875 -1.421875 15.453125 -0.5625 
Q 10.6875 0.296875 5.421875 2 
L 5.421875 11.28125 
Q 10.40625 8.6875 15.234375 7.390625 
Q 20.0625 6.109375 24.8125 6.109375 
Q 31.15625 6.109375 34.5625 8.28125 
Q 37.984375 10.453125 37.984375 14.40625 
Q 37.984375 18.0625 35.515625 20.015625 
Q 33.0625 21.96875 24.703125 23.78125 
L 21.578125 24.515625 
Q 13.234375 26.265625 9.515625 29.90625 
Q 5.8125 33.546875 5.8125 39.890625 
Q 5.8125 47.609375 11.28125 51.796875 
Q 16.75 56 26.8125 56 
Q 31.78125 56 36.171875 55.265625 
Q 40.578125 54.546875 44.28125 53.078125 
z
" id="DejaVuSans-115"/>
      <path d="M 18.3125 70.21875 
L 18.3125 54.6875 
L 36.8125 54.6875 
L 36.8125 47.703125 
L 18.3125 47.703125 
L 18.3125 18.015625 
Q 18.3125 11.328125 20.140625 9.421875 
Q 21.96875 7.515625 27.59375 7.515625 
L 36.8125 7.515625 
L 36.8125 0 
L 27.59375 0 
Q 17.1875 0 13.234375 3.875 
Q 9.28125 7.765625 9.28125 18.015625 
L 9.28125 47.703125 
L 2.6875 47.703125 
L 2.6875 54.6875 
L 9.28125 54.6875 
L 9.28125 70.21875 
z
" id="DejaVuSans-116"/>
      <path d="M 52 44.1875 
Q 55.375 50.25 60.0625 53.125 
Q 64.75 56 71.09375 56 
Q 79.640625 56 84.28125 50.015625 
Q 88.921875 44.046875 88.921875 33.015625 
L 88.921875 0 
L 79.890625 0 
L 79.890625 32.71875 
Q 79.890625 40.578125 77.09375 44.375 
Q 74.3125 48.1875 68.609375 48.1875 
Q 61.625 48.1875 57.5625 43.546875 
Q 53.515625 38.921875 53.515625 30.90625 
L 53.515625 0 
L 44.484375 0 
L 44.484375 32.71875 
Q 44.484375 40.625 41.703125 44.40625 
Q 38.921875 48.1875 33.109375 48.1875 
Q 26.21875 48.1875 22.15625 43.53125 
Q 18.109375 38.875 18.109375 30.90625 
L 18.109375 0 
L 9.078125 0 
L 9.078125 54.6875 
L 18.109375 54.6875 
L 18.109375 46.1875 
Q 21.1875 51.21875 25.484375 53.609375 
Q 29.78125 56 35.6875 56 
Q 41.65625 56 45.828125 52.96875 
Q 50 49.953125 52 44.1875 
z
" id="DejaVuSans-109"/>
      <path d="M 34.1875 63.1875 
L 20.796875 26.90625 
L 47.609375 26.90625 
z
M 28.609375 72.90625 
L 39.796875 72.90625 
L 67.578125 0 
L 57.328125 0 
L 50.6875 18.703125 
L 17.828125 18.703125 
L 11.1875 0 
L 0.78125 0 
z
" id="DejaVuSans-65"/>
     </defs>
     <g transform="translate(257.602344 65.836562)scale(0.1 -0.1)">
      <use xlink:href="#DejaVuSans-67"/>
      <use x="69.824219" xlink:href="#DejaVuSans-111"/>
      <use x="131.005859" xlink:href="#DejaVuSans-110"/>
      <use x="194.384766" xlink:href="#DejaVuSans-118"/>
      <use x="253.564453" xlink:href="#DejaVuSans-43"/>
      <use x="337.353516" xlink:href="#DejaVuSans-66"/>
      <use x="405.957031" xlink:href="#DejaVuSans-105"/>
      <use x="433.740234" xlink:href="#DejaVuSans-76"/>
      <use x="489.453125" xlink:href="#DejaVuSans-115"/>
      <use x="541.552734" xlink:href="#DejaVuSans-116"/>
      <use x="580.761719" xlink:href="#DejaVuSans-109"/>
      <use x="678.173828" xlink:href="#DejaVuSans-43"/>
      <use x="761.962891" xlink:href="#DejaVuSans-65"/>
      <use x="828.621094" xlink:href="#DejaVuSans-116"/>
      <use x="867.830078" xlink:href="#DejaVuSans-116"/>
      <use x="907.039062" xlink:href="#DejaVuSans-101"/>
      <use x="968.5625" xlink:href="#DejaVuSans-110"/>
     </g>
    </g>
   </g>
  </g>
 </g>
 <defs>
  <clipPath id="p305d7358a7">
   <rect height="221.76" width="446.4" x="72" y="34.56"/>
  </clipPath>
 </defs>
</svg>
