<svg id="SvgjsSvg1374" width="689" height="902" xmlns="http://www.w3.org/2000/svg" version="1.1" xmlns:xlink="http://www.w3.org/1999/xlink" xmlns:svgjs="http://svgjs.com/svgjs"><defs id="SvgjsDefs1375"><marker id="SvgjsMarker1448" markerWidth="16" markerHeight="12" refX="16" refY="6" viewBox="0 0 16 12" orient="auto" markerUnits="userSpaceOnUse" stroke-dasharray="0,0"><path id="SvgjsPath1449" d="M0,2 L14,6 L0,11 L0,2" fill="#323232" stroke="#323232" stroke-width="2"></path></marker><marker id="SvgjsMarker1452" markerWidth="16" markerHeight="12" refX="16" refY="6" viewBox="0 0 16 12" orient="auto" markerUnits="userSpaceOnUse" stroke-dasharray="0,0"><path id="SvgjsPath1453" d="M0,2 L14,6 L0,11 L0,2" fill="#323232" stroke="#323232" stroke-width="2"></path></marker><marker id="SvgjsMarker1486" markerWidth="16" markerHeight="12" refX="16" refY="6" viewBox="0 0 16 12" orient="auto" markerUnits="userSpaceOnUse" stroke-dasharray="0,0"><path id="SvgjsPath1487" d="M0,2 L14,6 L0,11 L0,2" fill="#323232" stroke="#323232" stroke-width="2"></path></marker><marker id="SvgjsMarker1490" markerWidth="16" markerHeight="12" refX="16" refY="6" viewBox="0 0 16 12" orient="auto" markerUnits="userSpaceOnUse" stroke-dasharray="0,0"><path id="SvgjsPath1491" d="M0,2 L14,6 L0,11 L0,2" fill="#323232" stroke="#323232" stroke-width="2"></path></marker><marker id="SvgjsMarker1494" markerWidth="16" markerHeight="12" refX="16" refY="6" viewBox="0 0 16 12" orient="auto" markerUnits="userSpaceOnUse" stroke-dasharray="0,0"><path id="SvgjsPath1495" d="M0,2 L14,6 L0,11 L0,2" fill="#323232" stroke="#323232" stroke-width="2"></path></marker><marker id="SvgjsMarker1498" markerWidth="16" markerHeight="12" refX="16" refY="6" viewBox="0 0 16 12" orient="auto" markerUnits="userSpaceOnUse" stroke-dasharray="0,0"><path id="SvgjsPath1499" d="M0,2 L14,6 L0,11 L0,2" fill="#323232" stroke="#323232" stroke-width="2"></path></marker><marker id="SvgjsMarker1502" markerWidth="16" markerHeight="12" refX="16" refY="6" viewBox="0 0 16 12" orient="auto" markerUnits="userSpaceOnUse" stroke-dasharray="0,0"><path id="SvgjsPath1503" d="M0,2 L14,6 L0,11 L0,2" fill="#323232" stroke="#323232" stroke-width="2"></path></marker><marker id="SvgjsMarker1506" markerWidth="16" markerHeight="12" refX="16" refY="6" viewBox="0 0 16 12" orient="auto" markerUnits="userSpaceOnUse" stroke-dasharray="0,0"><path id="SvgjsPath1507" d="M0,2 L14,6 L0,11 L0,2" fill="#323232" stroke="#323232" stroke-width="2"></path></marker><marker id="SvgjsMarker1516" markerWidth="16" markerHeight="12" refX="16" refY="6" viewBox="0 0 16 12" orient="auto" markerUnits="userSpaceOnUse" stroke-dasharray="0,0"><path id="SvgjsPath1517" d="M0,2 L14,6 L0,11 L0,2" fill="#323232" stroke="#323232" stroke-width="2"></path></marker><marker id="SvgjsMarker1520" markerWidth="16" markerHeight="12" refX="16" refY="6" viewBox="0 0 16 12" orient="auto" markerUnits="userSpaceOnUse" stroke-dasharray="0,0"><path id="SvgjsPath1521" d="M0,2 L14,6 L0,11 L0,2" fill="#323232" stroke="#323232" stroke-width="2"></path></marker><marker id="SvgjsMarker1528" markerWidth="16" markerHeight="12" refX="16" refY="6" viewBox="0 0 16 12" orient="auto" markerUnits="userSpaceOnUse" stroke-dasharray="0,0"><path id="SvgjsPath1529" d="M0,2 L14,6 L0,11 L0,2" fill="#323232" stroke="#323232" stroke-width="2"></path></marker><marker id="SvgjsMarker1532" markerWidth="16" markerHeight="12" refX="16" refY="6" viewBox="0 0 16 12" orient="auto" markerUnits="userSpaceOnUse" stroke-dasharray="0,0"><path id="SvgjsPath1533" d="M0,2 L14,6 L0,11 L0,2" fill="#323232" stroke="#323232" stroke-width="2"></path></marker><marker id="SvgjsMarker1536" markerWidth="16" markerHeight="12" refX="16" refY="6" viewBox="0 0 16 12" orient="auto" markerUnits="userSpaceOnUse" stroke-dasharray="0,0"><path id="SvgjsPath1537" d="M0,2 L14,6 L0,11 L0,2" fill="#323232" stroke="#323232" stroke-width="2"></path></marker><marker id="SvgjsMarker1540" markerWidth="16" markerHeight="12" refX="16" refY="6" viewBox="0 0 16 12" orient="auto" markerUnits="userSpaceOnUse" stroke-dasharray="0,0"><path id="SvgjsPath1541" d="M0,2 L14,6 L0,11 L0,2" fill="#323232" stroke="#323232" stroke-width="2"></path></marker><marker id="SvgjsMarker1556" markerWidth="16" markerHeight="12" refX="16" refY="6" viewBox="0 0 16 12" orient="auto" markerUnits="userSpaceOnUse" stroke-dasharray="0,0"><path id="SvgjsPath1557" d="M0,2 L14,6 L0,11 L0,2" fill="#323232" stroke="#323232" stroke-width="2"></path></marker><marker id="SvgjsMarker1578" markerWidth="16" markerHeight="12" refX="16" refY="6" viewBox="0 0 16 12" orient="auto" markerUnits="userSpaceOnUse" stroke-dasharray="0,0"><path id="SvgjsPath1579" d="M0,2 L14,6 L0,11 L0,2" fill="#323232" stroke="#323232" stroke-width="2"></path></marker><marker id="SvgjsMarker1582" markerWidth="16" markerHeight="12" refX="16" refY="6" viewBox="0 0 16 12" orient="auto" markerUnits="userSpaceOnUse" stroke-dasharray="0,0"><path id="SvgjsPath1583" d="M0,2 L14,6 L0,11 L0,2" fill="#323232" stroke="#323232" stroke-width="2"></path></marker><marker id="SvgjsMarker1586" markerWidth="16" markerHeight="12" refX="16" refY="6" viewBox="0 0 16 12" orient="auto" markerUnits="userSpaceOnUse" stroke-dasharray="0,0"><path id="SvgjsPath1587" d="M0,2 L14,6 L0,11 L0,2" fill="#323232" stroke="#323232" stroke-width="2"></path></marker><marker id="SvgjsMarker1590" markerWidth="16" markerHeight="12" refX="16" refY="6" viewBox="0 0 16 12" orient="auto" markerUnits="userSpaceOnUse" stroke-dasharray="0,0"><path id="SvgjsPath1591" d="M0,2 L14,6 L0,11 L0,2" fill="#323232" stroke="#323232" stroke-width="2"></path></marker><marker id="SvgjsMarker1646" markerWidth="16" markerHeight="12" refX="16" refY="6" viewBox="0 0 16 12" orient="auto" markerUnits="userSpaceOnUse" stroke-dasharray="0,0"><path id="SvgjsPath1647" d="M0,2 L14,6 L0,11 L0,2" fill="#323232" stroke="#323232" stroke-width="2"></path></marker><marker id="SvgjsMarker1650" markerWidth="16" markerHeight="12" refX="16" refY="6" viewBox="0 0 16 12" orient="auto" markerUnits="userSpaceOnUse" stroke-dasharray="0,0"><path id="SvgjsPath1651" d="M0,2 L14,6 L0,11 L0,2" fill="#323232" stroke="#323232" stroke-width="2"></path></marker><marker id="SvgjsMarker1690" markerWidth="16" markerHeight="12" refX="16" refY="6" viewBox="0 0 16 12" orient="auto" markerUnits="userSpaceOnUse" stroke-dasharray="0,0"><path id="SvgjsPath1691" d="M0,2 L14,6 L0,11 L0,2" fill="#323232" stroke="#323232" stroke-width="2"></path></marker><marker id="SvgjsMarker1694" markerWidth="16" markerHeight="12" refX="16" refY="6" viewBox="0 0 16 12" orient="auto" markerUnits="userSpaceOnUse" stroke-dasharray="0,0"><path id="SvgjsPath1695" d="M0,2 L14,6 L0,11 L0,2" fill="#323232" stroke="#323232" stroke-width="2"></path></marker><marker id="SvgjsMarker1698" markerWidth="16" markerHeight="12" refX="16" refY="6" viewBox="0 0 16 12" orient="auto" markerUnits="userSpaceOnUse" stroke-dasharray="0,0"><path id="SvgjsPath1699" d="M0,2 L14,6 L0,11 L0,2" fill="#323232" stroke="#323232" stroke-width="2"></path></marker><marker id="SvgjsMarker1702" markerWidth="16" markerHeight="12" refX="16" refY="6" viewBox="0 0 16 12" orient="auto" markerUnits="userSpaceOnUse" stroke-dasharray="0,0"><path id="SvgjsPath1703" d="M0,2 L14,6 L0,11 L0,2" fill="#323232" stroke="#323232" stroke-width="2"></path></marker><marker id="SvgjsMarker1712" markerWidth="16" markerHeight="12" refX="16" refY="6" viewBox="0 0 16 12" orient="auto" markerUnits="userSpaceOnUse" stroke-dasharray="0,0"><path id="SvgjsPath1713" d="M0,2 L14,6 L0,11 L0,2" fill="#323232" stroke="#323232" stroke-width="2"></path></marker><marker id="SvgjsMarker1716" markerWidth="16" markerHeight="12" refX="16" refY="6" viewBox="0 0 16 12" orient="auto" markerUnits="userSpaceOnUse" stroke-dasharray="0,0"><path id="SvgjsPath1717" d="M0,2 L14,6 L0,11 L0,2" fill="#323232" stroke="#323232" stroke-width="2"></path></marker><marker id="SvgjsMarker1720" markerWidth="16" markerHeight="12" refX="16" refY="6" viewBox="0 0 16 12" orient="auto" markerUnits="userSpaceOnUse" stroke-dasharray="0,0"><path id="SvgjsPath1721" d="M0,2 L14,6 L0,11 L0,2" fill="#323232" stroke="#323232" stroke-width="2"></path></marker><marker id="SvgjsMarker1724" markerWidth="16" markerHeight="12" refX="16" refY="6" viewBox="0 0 16 12" orient="auto" markerUnits="userSpaceOnUse" stroke-dasharray="0,0"><path id="SvgjsPath1725" d="M0,2 L14,6 L0,11 L0,2" fill="#323232" stroke="#323232" stroke-width="2"></path></marker><marker id="SvgjsMarker1728" markerWidth="16" markerHeight="12" refX="16" refY="6" viewBox="0 0 16 12" orient="auto" markerUnits="userSpaceOnUse" stroke-dasharray="0,0"><path id="SvgjsPath1729" d="M0,2 L14,6 L0,11 L0,2" fill="#323232" stroke="#323232" stroke-width="2"></path></marker></defs><g id="SvgjsG1376" transform="translate(29.625,812)"><path id="SvgjsPath1377" d="M 0 0L 98 0L 98 37L 0 37Z" stroke="rgba(50,50,50,1)" stroke-width="2" fill-opacity="1" fill="#ffffff"></path><g id="SvgjsG1378"><text id="SvgjsText1379" font-family="微软雅黑" text-anchor="middle" font-size="30px" width="78px" fill="#323232" font-weight="400" align="middle" anchor="middle" family="微软雅黑" size="30px" weight="400" font-style="" opacity="1" y="-7" transform="rotate(0)"></text></g></g><g id="SvgjsG1380" transform="translate(174.625,812)"><path id="SvgjsPath1381" d="M 0 0L 98 0L 98 37L 0 37Z" stroke="rgba(50,50,50,1)" stroke-width="2" fill-opacity="1" fill="#ffffff"></path><g id="SvgjsG1382"><text id="SvgjsText1383" font-family="微软雅黑" text-anchor="middle" font-size="30px" width="78px" fill="#323232" font-weight="400" align="middle" anchor="middle" family="微软雅黑" size="30px" weight="400" font-style="" opacity="1" y="-7" transform="rotate(0)"></text></g></g><g id="SvgjsG1384" transform="translate(421.625,812)"><path id="SvgjsPath1385" d="M 0 0L 98 0L 98 37L 0 37Z" stroke="rgba(50,50,50,1)" stroke-width="2" fill-opacity="1" fill="#ffffff"></path><g id="SvgjsG1386"><text id="SvgjsText1387" font-family="微软雅黑" text-anchor="middle" font-size="30px" width="78px" fill="#323232" font-weight="400" align="middle" anchor="middle" family="微软雅黑" size="30px" weight="400" font-style="" opacity="1" y="-7" transform="rotate(0)"></text></g></g><g id="SvgjsG1388" transform="translate(45.625,852)"><path id="SvgjsPath1389" d="M 0 0L 66 0L 66 25L 0 25Z" stroke="none" fill="none"></path><g id="SvgjsG1390"><text id="SvgjsText1391" font-family="微软雅黑" text-anchor="middle" font-size="13px" width="66px" fill="#171717" font-weight="400" align="middle" anchor="middle" family="微软雅黑" size="13px" weight="400" font-style="" opacity="1" y="2.55" transform="rotate(0)"><tspan id="SvgjsTspan1392" dy="16" x="33"><tspan id="SvgjsTspan1393" style="text-decoration:;">X1</tspan></tspan></text></g></g><g id="SvgjsG1394" transform="translate(189.125,852)"><path id="SvgjsPath1395" d="M 0 0L 69 0L 69 25L 0 25Z" stroke="none" fill="none"></path><g id="SvgjsG1396"><text id="SvgjsText1397" font-family="微软雅黑" text-anchor="middle" font-size="13px" width="69px" fill="#171717" font-weight="400" align="middle" anchor="middle" family="微软雅黑" size="13px" weight="400" font-style="" opacity="1" y="2.55" transform="rotate(0)"><tspan id="SvgjsTspan1398" dy="16" x="34.5"><tspan id="SvgjsTspan1399" style="text-decoration:;">X2</tspan></tspan></text></g></g><g id="SvgjsG1400" transform="translate(561.625,812)"><path id="SvgjsPath1401" d="M 0 0L 98 0L 98 37L 0 37Z" stroke="rgba(50,50,50,1)" stroke-width="2" fill-opacity="1" fill="#ffffff"></path><g id="SvgjsG1402"><text id="SvgjsText1403" font-family="微软雅黑" text-anchor="middle" font-size="30px" width="78px" fill="#323232" font-weight="400" align="middle" anchor="middle" family="微软雅黑" size="30px" weight="400" font-style="" opacity="1" y="-7" transform="rotate(0)"></text></g></g><g id="SvgjsG1404" transform="translate(437.625,855)"><path id="SvgjsPath1405" d="M 0 0L 68 0L 68 19L 0 19Z" stroke="none" fill="none"></path><g id="SvgjsG1406"><text id="SvgjsText1407" font-family="微软雅黑" text-anchor="middle" font-size="13px" width="68px" fill="#171717" font-weight="400" align="middle" anchor="middle" family="微软雅黑" size="13px" weight="400" font-style="" opacity="1" y="-0.44999999999999996" transform="rotate(0)"><tspan id="SvgjsTspan1408" dy="16" x="34"><tspan id="SvgjsTspan1409" style="text-decoration:;">Xt-1</tspan></tspan></text></g></g><g id="SvgjsG1410" transform="translate(577.625,852)"><path id="SvgjsPath1411" d="M 0 0L 78 0L 78 25L 0 25Z" stroke="none" fill="none"></path><g id="SvgjsG1412"><text id="SvgjsText1413" font-family="微软雅黑" text-anchor="middle" font-size="13px" width="78px" fill="#171717" font-weight="400" align="middle" anchor="middle" family="微软雅黑" size="13px" weight="400" font-style="" opacity="1" y="2.55" transform="rotate(0)"><tspan id="SvgjsTspan1414" dy="16" x="39"><tspan id="SvgjsTspan1415" style="text-decoration:;">Xt</tspan></tspan></text></g></g><g id="SvgjsG1416" transform="translate(281.625,799)"><path id="SvgjsPath1417" d="M 0 0L 120 0L 120 40L 0 40Z" stroke="none" fill="none"></path><g id="SvgjsG1418"><text id="SvgjsText1419" font-family="微软雅黑" text-anchor="middle" font-size="30px" width="120px" fill="#323232" font-weight="400" align="middle" anchor="middle" family="微软雅黑" size="30px" weight="400" font-style="" opacity="1" y="-5.5" transform="rotate(0)"><tspan id="SvgjsTspan1420" dy="37" x="60"><tspan id="SvgjsTspan1421" style="text-decoration:;">...</tspan></tspan></text></g></g><g id="SvgjsG1422" transform="translate(29.625,734)"><path id="SvgjsPath1423" d="M 0 0L 98 0L 98 37L 0 37Z" stroke="rgba(50,50,50,1)" stroke-width="2" fill-opacity="1" fill="#cce5ff"></path><g id="SvgjsG1424"><text id="SvgjsText1425" font-family="微软雅黑" text-anchor="middle" font-size="17px" width="78px" fill="#323232" font-weight="400" align="middle" anchor="middle" family="微软雅黑" size="17px" weight="400" font-style="" opacity="1" y="5.45" transform="rotate(0)"><tspan id="SvgjsTspan1426" dy="21" x="49"><tspan id="SvgjsTspan1427" style="text-decoration:;">Conv1D</tspan></tspan></text></g></g><g id="SvgjsG1428" transform="translate(174.625,734)"><path id="SvgjsPath1429" d="M 0 0L 98 0L 98 37L 0 37Z" stroke="rgba(50,50,50,1)" stroke-width="2" fill-opacity="1" fill="#cce5ff"></path><g id="SvgjsG1430"><text id="SvgjsText1431" font-family="微软雅黑" text-anchor="middle" font-size="17px" width="78px" fill="#323232" font-weight="400" align="middle" anchor="middle" family="微软雅黑" size="17px" weight="400" font-style="" opacity="1" y="5.45" transform="rotate(0)"><tspan id="SvgjsTspan1432" dy="21" x="49"><tspan id="SvgjsTspan1433" style="text-decoration:;">Conv1D</tspan></tspan></text></g></g><g id="SvgjsG1434" transform="translate(421.625,734)"><path id="SvgjsPath1435" d="M 0 0L 98 0L 98 37L 0 37Z" stroke="rgba(50,50,50,1)" stroke-width="2" fill-opacity="1" fill="#cce5ff"></path><g id="SvgjsG1436"><text id="SvgjsText1437" font-family="微软雅黑" text-anchor="middle" font-size="17px" width="78px" fill="#323232" font-weight="400" align="middle" anchor="middle" family="微软雅黑" size="17px" weight="400" font-style="" opacity="1" y="5.45" transform="rotate(0)"><tspan id="SvgjsTspan1438" dy="21" x="49"><tspan id="SvgjsTspan1439" style="text-decoration:;">Conv1D</tspan></tspan></text></g></g><g id="SvgjsG1440" transform="translate(561.625,734)"><path id="SvgjsPath1441" d="M 0 0L 98 0L 98 37L 0 37Z" stroke="rgba(50,50,50,1)" stroke-width="2" fill-opacity="1" fill="#cce5ff"></path><g id="SvgjsG1442"><text id="SvgjsText1443" font-family="微软雅黑" text-anchor="middle" font-size="17px" width="78px" fill="#323232" font-weight="400" align="middle" anchor="middle" family="微软雅黑" size="17px" weight="400" font-style="" opacity="1" y="5.45" transform="rotate(0)"><tspan id="SvgjsTspan1444" dy="21" x="49"><tspan id="SvgjsTspan1445" style="text-decoration:;">Conv1D</tspan></tspan></text></g></g><g id="SvgjsG1446"><path id="SvgjsPath1447" d="M470.625 812L470.625 791.5L470.625 791.5L470.625 771" stroke="#323232" stroke-width="2" fill="none" marker-end="url(#SvgjsMarker1448)"></path></g><g id="SvgjsG1450"><path id="SvgjsPath1451" d="M610.625 812L610.625 791.5L610.625 791.5L610.625 771" stroke="#323232" stroke-width="2" fill="none" marker-end="url(#SvgjsMarker1452)"></path></g><g id="SvgjsG1454" transform="translate(29.625,555)"><path id="SvgjsPath1455" d="M 0 0L 98 0L 98 37L 0 37Z" stroke="rgba(50,50,50,1)" stroke-width="2" fill-opacity="1" fill="#99ffff"></path><g id="SvgjsG1456"><text id="SvgjsText1457" font-family="微软雅黑" text-anchor="middle" font-size="17px" width="78px" fill="#323232" font-weight="400" align="middle" anchor="middle" family="微软雅黑" size="17px" weight="400" font-style="" opacity="1" y="5.45" transform="rotate(0)"><tspan id="SvgjsTspan1458" dy="21" x="49"><tspan id="SvgjsTspan1459" style="text-decoration:;">Bi-LSTM</tspan></tspan></text></g></g><g id="SvgjsG1460" transform="translate(174.625,555)"><path id="SvgjsPath1461" d="M 0 0L 98 0L 98 37L 0 37Z" stroke="rgba(50,50,50,1)" stroke-width="2" fill-opacity="1" fill="#99ffff"></path><g id="SvgjsG1462"><text id="SvgjsText1463" font-family="微软雅黑" text-anchor="middle" font-size="17px" width="78px" fill="#323232" font-weight="400" align="middle" anchor="middle" family="微软雅黑" size="17px" weight="400" font-style="" opacity="1" y="5.45" transform="rotate(0)"><tspan id="SvgjsTspan1464" dy="21" x="49"><tspan id="SvgjsTspan1465" style="text-decoration:;">Bi-LSTM</tspan></tspan></text></g></g><g id="SvgjsG1466" transform="translate(421.625,555)"><path id="SvgjsPath1467" d="M 0 0L 98 0L 98 37L 0 37Z" stroke="rgba(50,50,50,1)" stroke-width="2" fill-opacity="1" fill="#99ffff"></path><g id="SvgjsG1468"><text id="SvgjsText1469" font-family="微软雅黑" text-anchor="middle" font-size="17px" width="78px" fill="#323232" font-weight="400" align="middle" anchor="middle" family="微软雅黑" size="17px" weight="400" font-style="" opacity="1" y="5.45" transform="rotate(0)"><tspan id="SvgjsTspan1470" dy="21" x="49"><tspan id="SvgjsTspan1471" style="text-decoration:;">Bi-LSTM</tspan></tspan></text></g></g><g id="SvgjsG1472" transform="translate(561.625,555)"><path id="SvgjsPath1473" d="M 0 0L 98 0L 98 37L 0 37Z" stroke="rgba(50,50,50,1)" stroke-width="2" fill-opacity="1" fill="#99ffff"></path><g id="SvgjsG1474"><text id="SvgjsText1475" font-family="微软雅黑" text-anchor="middle" font-size="17px" width="78px" fill="#323232" font-weight="400" align="middle" anchor="middle" family="微软雅黑" size="17px" weight="400" font-style="" opacity="1" y="5.45" transform="rotate(0)"><tspan id="SvgjsTspan1476" dy="21" x="49"><tspan id="SvgjsTspan1477" style="text-decoration:;">Bi-LSTM</tspan></tspan></text></g></g><g id="SvgjsG1478" transform="translate(281.625,722)"><path id="SvgjsPath1479" d="M 0 0L 120 0L 120 40L 0 40Z" stroke="none" fill="none"></path><g id="SvgjsG1480"><text id="SvgjsText1481" font-family="微软雅黑" text-anchor="middle" font-size="30px" width="120px" fill="#323232" font-weight="400" align="middle" anchor="middle" family="微软雅黑" size="30px" weight="400" font-style="" opacity="1" y="-5.5" transform="rotate(0)"><tspan id="SvgjsTspan1482" dy="37" x="60"><tspan id="SvgjsTspan1483" style="text-decoration:;">...</tspan></tspan></text></g></g><g id="SvgjsG1484"><path id="SvgjsPath1485" d="M127.625 573.5L151.125 573.5L151.125 573.5L174.625 573.5" stroke="#323232" stroke-width="2" fill="none" marker-end="url(#SvgjsMarker1486)"></path></g><g id="SvgjsG1488"><path id="SvgjsPath1489" d="M519.625 573.5L540.625 573.5L540.625 573.5L561.625 573.5" stroke="#323232" stroke-width="2" fill="none" marker-end="url(#SvgjsMarker1490)"></path></g><g id="SvgjsG1492"><path id="SvgjsPath1493" d="M174.625 573.5L151.125 573.5L151.125 573.5L127.625 573.5" stroke="#323232" stroke-width="2" fill="none" marker-end="url(#SvgjsMarker1494)"></path></g><g id="SvgjsG1496"><path id="SvgjsPath1497" d="M561.625 573.5L540.625 573.5L540.625 573.5L519.625 573.5" stroke="#323232" stroke-width="2" fill="none" marker-end="url(#SvgjsMarker1498)"></path></g><g id="SvgjsG1500"><path id="SvgjsPath1501" d="M272.625 573.5L292.625 573.5L292.625 573.5L312.625 573.5" stroke="#323232" stroke-width="2" fill="none" marker-end="url(#SvgjsMarker1502)"></path></g><g id="SvgjsG1504"><path id="SvgjsPath1505" d="M303.625 573.5L288.125 573.5L288.125 573.5L272.625 573.5" stroke="#323232" stroke-width="2" fill="none" marker-end="url(#SvgjsMarker1506)"></path></g><g id="SvgjsG1508" transform="translate(303.625,555)"><path id="SvgjsPath1509" d="M 0 0L 76 0L 76 25L 0 25Z" stroke="none" fill="none"></path><g id="SvgjsG1510"><text id="SvgjsText1511" font-family="微软雅黑" text-anchor="middle" font-size="30px" width="76px" fill="#323232" font-weight="400" align="middle" anchor="middle" family="微软雅黑" size="30px" weight="400" font-style="" opacity="1" y="-13" transform="rotate(0)"><tspan id="SvgjsTspan1512" dy="37" x="38"><tspan id="SvgjsTspan1513" style="text-decoration:;">...</tspan></tspan></text></g></g><g id="SvgjsG1514"><path id="SvgjsPath1515" d="M409.625 573.5L392.625 573.5L392.625 573.5L375.625 573.5" stroke="#323232" stroke-width="2" fill="none" marker-end="url(#SvgjsMarker1516)"></path></g><g id="SvgjsG1518"><path id="SvgjsPath1519" d="M385.625 573.5L402.125 573.5L402.125 573.5L418.625 573.5" stroke="#323232" stroke-width="2" fill="none" marker-end="url(#SvgjsMarker1520)"></path></g><g id="SvgjsG1522" transform="translate(258.125,409)"><path id="SvgjsPath1523" d="M 0 0L 156.5 0L 156.5 42L 0 42Z" stroke="rgba(50,50,50,1)" stroke-width="2" fill-opacity="1" fill="#ffffff"></path><g id="SvgjsG1524"><text id="SvgjsText1525" font-family="微软雅黑" text-anchor="middle" font-size="30px" width="137px" fill="#323232" font-weight="400" align="middle" anchor="middle" family="微软雅黑" size="30px" weight="400" font-style="" opacity="1" y="-4.5" transform="rotate(0)"></text></g></g><g id="SvgjsG1526"><path id="SvgjsPath1527" d="M78.625 555L336.375 451" stroke="#323232" stroke-width="2" fill="none" marker-end="url(#SvgjsMarker1528)"></path></g><g id="SvgjsG1530"><path id="SvgjsPath1531" d="M223.625 555L336.375 451" stroke="#323232" stroke-width="2" fill="none" marker-end="url(#SvgjsMarker1532)"></path></g><g id="SvgjsG1534"><path id="SvgjsPath1535" d="M470.625 555L336.375 451" stroke="#323232" stroke-width="2" fill="none" marker-end="url(#SvgjsMarker1536)"></path></g><g id="SvgjsG1538"><path id="SvgjsPath1539" d="M610.625 555L336.375 451" stroke="#323232" stroke-width="2" fill="none" marker-end="url(#SvgjsMarker1540)"></path></g><g id="SvgjsG1542" transform="translate(436.625,458)"><path id="SvgjsPath1543" d="M 0 0L 120 0L 120 40L 0 40Z" stroke="none" fill="none"></path><g id="SvgjsG1544"><text id="SvgjsText1545" font-family="微软雅黑" text-anchor="middle" font-size="19px" width="120px" fill="#323232" font-weight="400" align="middle" anchor="middle" family="微软雅黑" size="19px" weight="400" font-style="" opacity="1" y="5.15" transform="rotate(0)"><tspan id="SvgjsTspan1546" dy="23" x="60"><tspan id="SvgjsTspan1547" style="text-decoration:;">Attention</tspan></tspan></text></g></g><g id="SvgjsG1548" transform="translate(261.125,329)"><path id="SvgjsPath1549" d="M 0 0L 150.5 0L 150.5 43L 0 43Z" stroke="rgba(50,50,50,1)" stroke-width="2" fill-opacity="1" fill="#ffffff"></path><g id="SvgjsG1550"><text id="SvgjsText1551" font-family="微软雅黑" text-anchor="middle" font-size="17px" width="131px" fill="#323232" font-weight="400" align="middle" anchor="middle" family="微软雅黑" size="17px" weight="400" font-style="" opacity="1" y="8.45" transform="rotate(0)"><tspan id="SvgjsTspan1552" dy="21" x="75.5"><tspan id="SvgjsTspan1553" style="text-decoration:;">DropOut</tspan></tspan></text></g></g><g id="SvgjsG1554"><path id="SvgjsPath1555" d="M341.625 555L336.375 451" stroke="#323232" stroke-width="2" fill="none" marker-end="url(#SvgjsMarker1556)"></path></g><g id="SvgjsG1558" transform="translate(261.125,251)"><path id="SvgjsPath1559" d="M 0 0L 150.5 0L 150.5 43L 0 43Z" stroke="rgba(50,50,50,1)" stroke-width="2" fill-opacity="1" fill="#ffffff"></path><g id="SvgjsG1560"><text id="SvgjsText1561" font-family="微软雅黑" text-anchor="middle" font-size="17px" width="131px" fill="#323232" font-weight="400" align="middle" anchor="middle" family="微软雅黑" size="17px" weight="400" font-style="" opacity="1" y="8.45" transform="rotate(0)"><tspan id="SvgjsTspan1562" dy="21" x="75.5"><tspan id="SvgjsTspan1563" style="text-decoration:;">Flatten</tspan></tspan></text></g></g><g id="SvgjsG1564" transform="translate(261.125,180)"><path id="SvgjsPath1565" d="M 0 0L 150.5 0L 150.5 43L 0 43Z" stroke="rgba(50,50,50,1)" stroke-width="2" fill-opacity="1" fill="#ffffff"></path><g id="SvgjsG1566"><text id="SvgjsText1567" font-family="微软雅黑" text-anchor="middle" font-size="17px" width="131px" fill="#323232" font-weight="400" align="middle" anchor="middle" family="微软雅黑" size="17px" weight="400" font-style="" opacity="1" y="8.45" transform="rotate(0)"><tspan id="SvgjsTspan1568" dy="21" x="75.5"><tspan id="SvgjsTspan1569" style="text-decoration:;">Dense</tspan></tspan></text></g></g><g id="SvgjsG1570" transform="translate(261.125,110)"><path id="SvgjsPath1571" d="M 0 0L 150.5 0L 150.5 43L 0 43Z" stroke="rgba(50,50,50,1)" stroke-width="2" fill-opacity="1" fill="#ffffff"></path><g id="SvgjsG1572"><text id="SvgjsText1573" font-family="微软雅黑" text-anchor="middle" font-size="17px" width="131px" fill="#323232" font-weight="400" align="middle" anchor="middle" family="微软雅黑" size="17px" weight="400" font-style="" opacity="1" y="8.45" transform="rotate(0)"><tspan id="SvgjsTspan1574" dy="21" x="75.5"><tspan id="SvgjsTspan1575" style="text-decoration:;">Dense</tspan></tspan></text></g></g><g id="SvgjsG1576"><path id="SvgjsPath1577" d="M336.375 409L336.375 372" stroke="#323232" stroke-width="2" fill="none" marker-end="url(#SvgjsMarker1578)"></path></g><g id="SvgjsG1580"><path id="SvgjsPath1581" d="M336.375 329L336.375 294" stroke="#323232" stroke-width="2" fill="none" marker-end="url(#SvgjsMarker1582)"></path></g><g id="SvgjsG1584"><path id="SvgjsPath1585" d="M336.375 251L336.375 223" stroke="#323232" stroke-width="2" fill="none" marker-end="url(#SvgjsMarker1586)"></path></g><g id="SvgjsG1588"><path id="SvgjsPath1589" d="M336.375 180L336.375 153" stroke="#323232" stroke-width="2" fill="none" marker-end="url(#SvgjsMarker1590)"></path></g><g id="SvgjsG1592" transform="translate(261.125,25)"><path id="SvgjsPath1593" d="M 0 0L 150.5 0L 150.5 43L 0 43Z" stroke="rgba(50,50,50,1)" stroke-width="2" fill-opacity="1" fill="#ffffff"></path><g id="SvgjsG1594"><text id="SvgjsText1595" font-family="微软雅黑" text-anchor="middle" font-size="17px" width="131px" fill="#323232" font-weight="400" align="middle" anchor="middle" family="微软雅黑" size="17px" weight="400" font-style="" opacity="1" y="8.45" transform="rotate(0)"></text></g></g><g id="SvgjsG1596" transform="translate(39.125,819.5)"><path id="SvgjsPath1597" d="M 0 11C 0 -3.6666666666666665 22 -3.6666666666666665 22 11C 22 25.666666666666668 0 25.666666666666668 0 11Z" stroke="rgba(255,255,255,1)" stroke-width="2" fill-opacity="1" fill="#ffe6cc"></path><g id="SvgjsG1598"><text id="SvgjsText1599" font-family="微软雅黑" text-anchor="middle" font-size="13px" width="2px" fill="#323232" font-weight="400" align="middle" anchor="middle" family="微软雅黑" size="13px" weight="400" font-style="" opacity="1" y="1.05" transform="rotate(0)"></text></g></g><g id="SvgjsG1600" transform="translate(70.125,819.5)"><path id="SvgjsPath1601" d="M 0 11C 0 -3.6666666666666665 22 -3.6666666666666665 22 11C 22 25.666666666666668 0 25.666666666666668 0 11Z" stroke="rgba(255,255,255,1)" stroke-width="2" fill-opacity="1" fill="#ffe6cc"></path><g id="SvgjsG1602"><text id="SvgjsText1603" font-family="微软雅黑" text-anchor="middle" font-size="13px" width="2px" fill="#323232" font-weight="400" align="middle" anchor="middle" family="微软雅黑" size="13px" weight="400" font-style="" opacity="1" y="1.05" transform="rotate(0)"></text></g></g><g id="SvgjsG1604" transform="translate(96.125,819.5)"><path id="SvgjsPath1605" d="M 0 11C 0 -3.6666666666666665 22 -3.6666666666666665 22 11C 22 25.666666666666668 0 25.666666666666668 0 11Z" stroke="rgba(255,255,255,1)" stroke-width="2" fill-opacity="1" fill="#ffe6cc"></path><g id="SvgjsG1606"><text id="SvgjsText1607" font-family="微软雅黑" text-anchor="middle" font-size="13px" width="2px" fill="#323232" font-weight="400" align="middle" anchor="middle" family="微软雅黑" size="13px" weight="400" font-style="" opacity="1" y="1.05" transform="rotate(0)"></text></g></g><g id="SvgjsG1608" transform="translate(184.125,819.5)"><path id="SvgjsPath1609" d="M 0 11C 0 -3.6666666666666665 22 -3.6666666666666665 22 11C 22 25.666666666666668 0 25.666666666666668 0 11Z" stroke="rgba(255,255,255,1)" stroke-width="2" fill-opacity="1" fill="#ffe6cc"></path><g id="SvgjsG1610"><text id="SvgjsText1611" font-family="微软雅黑" text-anchor="middle" font-size="13px" width="2px" fill="#323232" font-weight="400" align="middle" anchor="middle" family="微软雅黑" size="13px" weight="400" font-style="" opacity="1" y="1.05" transform="rotate(0)"></text></g></g><g id="SvgjsG1612" transform="translate(215.125,819.5)"><path id="SvgjsPath1613" d="M 0 11C 0 -3.6666666666666665 22 -3.6666666666666665 22 11C 22 25.666666666666668 0 25.666666666666668 0 11Z" stroke="rgba(255,255,255,1)" stroke-width="2" fill-opacity="1" fill="#ffe6cc"></path><g id="SvgjsG1614"><text id="SvgjsText1615" font-family="微软雅黑" text-anchor="middle" font-size="13px" width="2px" fill="#323232" font-weight="400" align="middle" anchor="middle" family="微软雅黑" size="13px" weight="400" font-style="" opacity="1" y="1.05" transform="rotate(0)"></text></g></g><g id="SvgjsG1616" transform="translate(241.125,819.5)"><path id="SvgjsPath1617" d="M 0 11C 0 -3.6666666666666665 22 -3.6666666666666665 22 11C 22 25.666666666666668 0 25.666666666666668 0 11Z" stroke="rgba(255,255,255,1)" stroke-width="2" fill-opacity="1" fill="#ffe6cc"></path><g id="SvgjsG1618"><text id="SvgjsText1619" font-family="微软雅黑" text-anchor="middle" font-size="13px" width="2px" fill="#323232" font-weight="400" align="middle" anchor="middle" family="微软雅黑" size="13px" weight="400" font-style="" opacity="1" y="1.05" transform="rotate(0)"></text></g></g><g id="SvgjsG1620" transform="translate(431.125,819.5)"><path id="SvgjsPath1621" d="M 0 11C 0 -3.6666666666666665 22 -3.6666666666666665 22 11C 22 25.666666666666668 0 25.666666666666668 0 11Z" stroke="rgba(255,255,255,1)" stroke-width="2" fill-opacity="1" fill="#ffe6cc"></path><g id="SvgjsG1622"><text id="SvgjsText1623" font-family="微软雅黑" text-anchor="middle" font-size="13px" width="2px" fill="#323232" font-weight="400" align="middle" anchor="middle" family="微软雅黑" size="13px" weight="400" font-style="" opacity="1" y="1.05" transform="rotate(0)"></text></g></g><g id="SvgjsG1624" transform="translate(462.125,819.5)"><path id="SvgjsPath1625" d="M 0 11C 0 -3.6666666666666665 22 -3.6666666666666665 22 11C 22 25.666666666666668 0 25.666666666666668 0 11Z" stroke="rgba(255,255,255,1)" stroke-width="2" fill-opacity="1" fill="#ffe6cc"></path><g id="SvgjsG1626"><text id="SvgjsText1627" font-family="微软雅黑" text-anchor="middle" font-size="13px" width="2px" fill="#323232" font-weight="400" align="middle" anchor="middle" family="微软雅黑" size="13px" weight="400" font-style="" opacity="1" y="1.05" transform="rotate(0)"></text></g></g><g id="SvgjsG1628" transform="translate(488.125,819.5)"><path id="SvgjsPath1629" d="M 0 11C 0 -3.6666666666666665 22 -3.6666666666666665 22 11C 22 25.666666666666668 0 25.666666666666668 0 11Z" stroke="rgba(255,255,255,1)" stroke-width="2" fill-opacity="1" fill="#ffe6cc"></path><g id="SvgjsG1630"><text id="SvgjsText1631" font-family="微软雅黑" text-anchor="middle" font-size="13px" width="2px" fill="#323232" font-weight="400" align="middle" anchor="middle" family="微软雅黑" size="13px" weight="400" font-style="" opacity="1" y="1.05" transform="rotate(0)"></text></g></g><g id="SvgjsG1632" transform="translate(571.125,819.5)"><path id="SvgjsPath1633" d="M 0 11C 0 -3.6666666666666665 22 -3.6666666666666665 22 11C 22 25.666666666666668 0 25.666666666666668 0 11Z" stroke="rgba(255,255,255,1)" stroke-width="2" fill-opacity="1" fill="#ffe6cc"></path><g id="SvgjsG1634"><text id="SvgjsText1635" font-family="微软雅黑" text-anchor="middle" font-size="13px" width="2px" fill="#323232" font-weight="400" align="middle" anchor="middle" family="微软雅黑" size="13px" weight="400" font-style="" opacity="1" y="1.05" transform="rotate(0)"></text></g></g><g id="SvgjsG1636" transform="translate(602.125,819.5)"><path id="SvgjsPath1637" d="M 0 11C 0 -3.6666666666666665 22 -3.6666666666666665 22 11C 22 25.666666666666668 0 25.666666666666668 0 11Z" stroke="rgba(255,255,255,1)" stroke-width="2" fill-opacity="1" fill="#ffe6cc"></path><g id="SvgjsG1638"><text id="SvgjsText1639" font-family="微软雅黑" text-anchor="middle" font-size="13px" width="2px" fill="#323232" font-weight="400" align="middle" anchor="middle" family="微软雅黑" size="13px" weight="400" font-style="" opacity="1" y="1.05" transform="rotate(0)"></text></g></g><g id="SvgjsG1640" transform="translate(628.125,819.5)"><path id="SvgjsPath1641" d="M 0 11C 0 -3.6666666666666665 22 -3.6666666666666665 22 11C 22 25.666666666666668 0 25.666666666666668 0 11Z" stroke="rgba(255,255,255,1)" stroke-width="2" fill-opacity="1" fill="#ffe6cc"></path><g id="SvgjsG1642"><text id="SvgjsText1643" font-family="微软雅黑" text-anchor="middle" font-size="13px" width="2px" fill="#323232" font-weight="400" align="middle" anchor="middle" family="微软雅黑" size="13px" weight="400" font-style="" opacity="1" y="1.05" transform="rotate(0)"></text></g></g><g id="SvgjsG1644"><path id="SvgjsPath1645" d="M78.625 812L78.625 771" stroke="#323232" stroke-width="2" fill="none" marker-end="url(#SvgjsMarker1646)"></path></g><g id="SvgjsG1648"><path id="SvgjsPath1649" d="M223.625 812L223.625 771" stroke="#323232" stroke-width="2" fill="none" marker-end="url(#SvgjsMarker1650)"></path></g><g id="SvgjsG1652" transform="translate(296.875,419)"><path id="SvgjsPath1653" d="M 0 11C 0 -3.6666666666666665 22 -3.6666666666666665 22 11C 22 25.666666666666668 0 25.666666666666668 0 11Z" stroke="rgba(255,255,255,1)" stroke-width="2" fill-opacity="1" fill="#ffcccc"></path><g id="SvgjsG1654"><text id="SvgjsText1655" font-family="微软雅黑" text-anchor="middle" font-size="13px" width="2px" fill="#323232" font-weight="400" align="middle" anchor="middle" family="微软雅黑" size="13px" weight="400" font-style="" opacity="1" y="1.05" transform="rotate(0)"></text></g></g><g id="SvgjsG1656" transform="translate(327.875,419)"><path id="SvgjsPath1657" d="M 0 11C 0 -3.6666666666666665 22 -3.6666666666666665 22 11C 22 25.666666666666668 0 25.666666666666668 0 11Z" stroke="rgba(255,255,255,1)" stroke-width="2" fill-opacity="1" fill="#ffcccc"></path><g id="SvgjsG1658"><text id="SvgjsText1659" font-family="微软雅黑" text-anchor="middle" font-size="13px" width="2px" fill="#323232" font-weight="400" align="middle" anchor="middle" family="微软雅黑" size="13px" weight="400" font-style="" opacity="1" y="1.05" transform="rotate(0)"></text></g></g><g id="SvgjsG1660" transform="translate(353.875,419)"><path id="SvgjsPath1661" d="M 0 11C 0 -3.6666666666666665 22 -3.6666666666666665 22 11C 22 25.666666666666668 0 25.666666666666668 0 11Z" stroke="rgba(255,255,255,1)" stroke-width="2" fill-opacity="1" fill="#ffcccc"></path><g id="SvgjsG1662"><text id="SvgjsText1663" font-family="微软雅黑" text-anchor="middle" font-size="13px" width="2px" fill="#323232" font-weight="400" align="middle" anchor="middle" family="微软雅黑" size="13px" weight="400" font-style="" opacity="1" y="1.05" transform="rotate(0)"></text></g></g><g id="SvgjsG1664" transform="translate(25,653)"><path id="SvgjsPath1665" d="M 0 0L 107.25 0L 107.25 42L 0 42Z" stroke="rgba(50,50,50,1)" stroke-width="2" fill-opacity="1" fill="#ccffe6"></path><g id="SvgjsG1666"><text id="SvgjsText1667" font-family="微软雅黑" text-anchor="middle" font-size="15px" width="88px" fill="#323232" font-weight="400" align="middle" anchor="middle" family="微软雅黑" size="15px" weight="400" font-style="" opacity="1" y="9.25" transform="rotate(0)"><tspan id="SvgjsTspan1668" dy="18" x="54"><tspan id="SvgjsTspan1669" style="text-decoration:;">MaxPooling</tspan></tspan></text></g></g><g id="SvgjsG1670" transform="translate(178.25,653)"><path id="SvgjsPath1671" d="M 0 0L 107.25 0L 107.25 42L 0 42Z" stroke="rgba(50,50,50,1)" stroke-width="2" fill-opacity="1" fill="#ccffe6"></path><g id="SvgjsG1672"><text id="SvgjsText1673" font-family="微软雅黑" text-anchor="middle" font-size="15px" width="88px" fill="#323232" font-weight="400" align="middle" anchor="middle" family="微软雅黑" size="15px" weight="400" font-style="" opacity="1" y="9.25" transform="rotate(0)"><tspan id="SvgjsTspan1674" dy="18" x="54"><tspan id="SvgjsTspan1675" style="text-decoration:;">MaxPooling</tspan></tspan></text></g></g><g id="SvgjsG1676" transform="translate(417,653)"><path id="SvgjsPath1677" d="M 0 0L 107.25 0L 107.25 42L 0 42Z" stroke="rgba(50,50,50,1)" stroke-width="2" fill-opacity="1" fill="#ccffe6"></path><g id="SvgjsG1678"><text id="SvgjsText1679" font-family="微软雅黑" text-anchor="middle" font-size="15px" width="88px" fill="#323232" font-weight="400" align="middle" anchor="middle" family="微软雅黑" size="15px" weight="400" font-style="" opacity="1" y="9.25" transform="rotate(0)"><tspan id="SvgjsTspan1680" dy="18" x="54"><tspan id="SvgjsTspan1681" style="text-decoration:;">MaxPooling</tspan></tspan></text></g></g><g id="SvgjsG1682" transform="translate(557,653)"><path id="SvgjsPath1683" d="M 0 0L 107.25 0L 107.25 42L 0 42Z" stroke="rgba(50,50,50,1)" stroke-width="2" fill-opacity="1" fill="#ccffe6"></path><g id="SvgjsG1684"><text id="SvgjsText1685" font-family="微软雅黑" text-anchor="middle" font-size="15px" width="88px" fill="#323232" font-weight="400" align="middle" anchor="middle" family="微软雅黑" size="15px" weight="400" font-style="" opacity="1" y="9.25" transform="rotate(0)"><tspan id="SvgjsTspan1686" dy="18" x="54"><tspan id="SvgjsTspan1687" style="text-decoration:;">MaxPooling</tspan></tspan></text></g></g><g id="SvgjsG1688"><path id="SvgjsPath1689" d="M78.625 734L78.625 695" stroke="#323232" stroke-width="2" fill="none" marker-end="url(#SvgjsMarker1690)"></path></g><g id="SvgjsG1692"><path id="SvgjsPath1693" d="M223.625 734L223.875 695" stroke="#323232" stroke-width="2" fill="none" marker-end="url(#SvgjsMarker1694)"></path></g><g id="SvgjsG1696"><path id="SvgjsPath1697" d="M470.625 734L470.625 695" stroke="#323232" stroke-width="2" fill="none" marker-end="url(#SvgjsMarker1698)"></path></g><g id="SvgjsG1700"><path id="SvgjsPath1701" d="M610.625 734L610.625 695" stroke="#323232" stroke-width="2" fill="none" marker-end="url(#SvgjsMarker1702)"></path></g><g id="SvgjsG1704" transform="translate(281.625,643)"><path id="SvgjsPath1705" d="M 0 0L 120 0L 120 40L 0 40Z" stroke="none" fill="none"></path><g id="SvgjsG1706"><text id="SvgjsText1707" font-family="微软雅黑" text-anchor="middle" font-size="30px" width="120px" fill="#323232" font-weight="400" align="middle" anchor="middle" family="微软雅黑" size="30px" weight="400" font-style="" opacity="1" y="-5.5" transform="rotate(0)"><tspan id="SvgjsTspan1708" dy="37" x="60"><tspan id="SvgjsTspan1709" style="text-decoration:;">...</tspan></tspan></text></g></g><g id="SvgjsG1710"><path id="SvgjsPath1711" d="M78.625 653L78.625 592" stroke="#323232" stroke-width="2" fill="none" marker-end="url(#SvgjsMarker1712)"></path></g><g id="SvgjsG1714"><path id="SvgjsPath1715" d="M231.875 653L231.875 592" stroke="#323232" stroke-width="2" fill="none" marker-end="url(#SvgjsMarker1716)"></path></g><g id="SvgjsG1718"><path id="SvgjsPath1719" d="M470.625 653L470.625 592" stroke="#323232" stroke-width="2" fill="none" marker-end="url(#SvgjsMarker1720)"></path></g><g id="SvgjsG1722"><path id="SvgjsPath1723" d="M610.625 653L610.625 592" stroke="#323232" stroke-width="2" fill="none" marker-end="url(#SvgjsMarker1724)"></path></g><g id="SvgjsG1726"><path id="SvgjsPath1727" d="M336.375 110L336.375 68" stroke="#323232" stroke-width="2" fill="none" marker-end="url(#SvgjsMarker1728)"></path></g><g id="SvgjsG1730" transform="translate(296.875,35.5)"><path id="SvgjsPath1731" d="M 0 11C 0 -3.6666666666666665 22 -3.6666666666666665 22 11C 22 25.666666666666668 0 25.666666666666668 0 11Z" stroke="rgba(255,255,255,1)" stroke-width="2" fill-opacity="1" fill="#990000"></path><g id="SvgjsG1732"><text id="SvgjsText1733" font-family="微软雅黑" text-anchor="middle" font-size="13px" width="2px" fill="#323232" font-weight="400" align="middle" anchor="middle" family="微软雅黑" size="13px" weight="400" font-style="" opacity="1" y="1.05" transform="rotate(0)"></text></g></g><g id="SvgjsG1734" transform="translate(327.875,35.5)"><path id="SvgjsPath1735" d="M 0 11C 0 -3.6666666666666665 22 -3.6666666666666665 22 11C 22 25.666666666666668 0 25.666666666666668 0 11Z" stroke="rgba(255,255,255,1)" stroke-width="2" fill-opacity="1" fill="#990000"></path><g id="SvgjsG1736"><text id="SvgjsText1737" font-family="微软雅黑" text-anchor="middle" font-size="13px" width="2px" fill="#323232" font-weight="400" align="middle" anchor="middle" family="微软雅黑" size="13px" weight="400" font-style="" opacity="1" y="1.05" transform="rotate(0)"></text></g></g><g id="SvgjsG1738" transform="translate(353.875,35.5)"><path id="SvgjsPath1739" d="M 0 11C 0 -3.6666666666666665 22 -3.6666666666666665 22 11C 22 25.666666666666668 0 25.666666666666668 0 11Z" stroke="rgba(255,255,255,1)" stroke-width="2" fill-opacity="1" fill="#990000"></path><g id="SvgjsG1740"><text id="SvgjsText1741" font-family="微软雅黑" text-anchor="middle" font-size="13px" width="2px" fill="#323232" font-weight="400" align="middle" anchor="middle" family="微软雅黑" size="13px" weight="400" font-style="" opacity="1" y="1.05" transform="rotate(0)"></text></g></g></svg>