<?xml version="1.0" encoding="utf-8" standalone="no"?>
<!DOCTYPE svg PUBLIC "-//W3C//DTD SVG 1.1//EN"
  "http://www.w3.org/Graphics/SVG/1.1/DTD/svg11.dtd">
<!-- Created with matplotlib (https://matplotlib.org/) -->
<svg height="288pt" version="1.1" viewBox="0 0 576 288" width="576pt" xmlns="http://www.w3.org/2000/svg" xmlns:xlink="http://www.w3.org/1999/xlink">
 <defs>
  <style type="text/css">
*{stroke-linecap:butt;stroke-linejoin:round;}
  </style>
 </defs>
 <g id="figure_1">
  <g id="patch_1">
   <path d="M 0 288 
L 576 288 
L 576 0 
L 0 0 
z
" style="fill:#ffffff;"/>
  </g>
  <g id="axes_1">
   <g id="patch_2">
    <path d="M 72 256.32 
L 518.4 256.32 
L 518.4 34.56 
L 72 34.56 
z
" style="fill:#ffffff;"/>
   </g>
   <g id="matplotlib.axis_1">
    <g id="xtick_1">
     <g id="line2d_1">
      <defs>
       <path d="M 0 0 
L 0 3.5 
" id="md10d7cf9f2" style="stroke:#000000;stroke-width:0.8;"/>
      </defs>
      <g>
       <use style="stroke:#000000;stroke-width:0.8;" x="92.290909" xlink:href="#md10d7cf9f2" y="256.32"/>
      </g>
     </g>
     <g id="text_1">
      <!-- 0 -->
      <defs>
       <path d="M 31.78125 66.40625 
Q 24.171875 66.40625 20.328125 58.90625 
Q 16.5 51.421875 16.5 36.375 
Q 16.5 21.390625 20.328125 13.890625 
Q 24.171875 6.390625 31.78125 6.390625 
Q 39.453125 6.390625 43.28125 13.890625 
Q 47.125 21.390625 47.125 36.375 
Q 47.125 51.421875 43.28125 58.90625 
Q 39.453125 66.40625 31.78125 66.40625 
z
M 31.78125 74.21875 
Q 44.046875 74.21875 50.515625 64.515625 
Q 56.984375 54.828125 56.984375 36.375 
Q 56.984375 17.96875 50.515625 8.265625 
Q 44.046875 -1.421875 31.78125 -1.421875 
Q 19.53125 -1.421875 13.0625 8.265625 
Q 6.59375 17.96875 6.59375 36.375 
Q 6.59375 54.828125 13.0625 64.515625 
Q 19.53125 74.21875 31.78125 74.21875 
z
" id="DejaVuSans-48"/>
      </defs>
      <g transform="translate(89.109659 270.918437)scale(0.1 -0.1)">
       <use xlink:href="#DejaVuSans-48"/>
      </g>
     </g>
    </g>
    <g id="xtick_2">
     <g id="line2d_2">
      <g>
       <use style="stroke:#000000;stroke-width:0.8;" x="144.858031" xlink:href="#md10d7cf9f2" y="256.32"/>
      </g>
     </g>
     <g id="text_2">
      <!-- 25 -->
      <defs>
       <path d="M 19.1875 8.296875 
L 53.609375 8.296875 
L 53.609375 0 
L 7.328125 0 
L 7.328125 8.296875 
Q 12.9375 14.109375 22.625 23.890625 
Q 32.328125 33.6875 34.8125 36.53125 
Q 39.546875 41.84375 41.421875 45.53125 
Q 43.3125 49.21875 43.3125 52.78125 
Q 43.3125 58.59375 39.234375 62.25 
Q 35.15625 65.921875 28.609375 65.921875 
Q 23.96875 65.921875 18.8125 64.3125 
Q 13.671875 62.703125 7.8125 59.421875 
L 7.8125 69.390625 
Q 13.765625 71.78125 18.9375 73 
Q 24.125 74.21875 28.421875 74.21875 
Q 39.75 74.21875 46.484375 68.546875 
Q 53.21875 62.890625 53.21875 53.421875 
Q 53.21875 48.921875 51.53125 44.890625 
Q 49.859375 40.875 45.40625 35.40625 
Q 44.1875 33.984375 37.640625 27.21875 
Q 31.109375 20.453125 19.1875 8.296875 
z
" id="DejaVuSans-50"/>
       <path d="M 10.796875 72.90625 
L 49.515625 72.90625 
L 49.515625 64.59375 
L 19.828125 64.59375 
L 19.828125 46.734375 
Q 21.96875 47.46875 24.109375 47.828125 
Q 26.265625 48.1875 28.421875 48.1875 
Q 40.625 48.1875 47.75 41.5 
Q 54.890625 34.8125 54.890625 23.390625 
Q 54.890625 11.625 47.5625 5.09375 
Q 40.234375 -1.421875 26.90625 -1.421875 
Q 22.3125 -1.421875 17.546875 -0.640625 
Q 12.796875 0.140625 7.71875 1.703125 
L 7.71875 11.625 
Q 12.109375 9.234375 16.796875 8.0625 
Q 21.484375 6.890625 26.703125 6.890625 
Q 35.15625 6.890625 40.078125 11.328125 
Q 45.015625 15.765625 45.015625 23.390625 
Q 45.015625 31 40.078125 35.4375 
Q 35.15625 39.890625 26.703125 39.890625 
Q 22.75 39.890625 18.8125 39.015625 
Q 14.890625 38.140625 10.796875 36.28125 
z
" id="DejaVuSans-53"/>
      </defs>
      <g transform="translate(138.495531 270.918437)scale(0.1 -0.1)">
       <use xlink:href="#DejaVuSans-50"/>
       <use x="63.623047" xlink:href="#DejaVuSans-53"/>
      </g>
     </g>
    </g>
    <g id="xtick_3">
     <g id="line2d_3">
      <g>
       <use style="stroke:#000000;stroke-width:0.8;" x="197.425153" xlink:href="#md10d7cf9f2" y="256.32"/>
      </g>
     </g>
     <g id="text_3">
      <!-- 50 -->
      <g transform="translate(191.062653 270.918437)scale(0.1 -0.1)">
       <use xlink:href="#DejaVuSans-53"/>
       <use x="63.623047" xlink:href="#DejaVuSans-48"/>
      </g>
     </g>
    </g>
    <g id="xtick_4">
     <g id="line2d_4">
      <g>
       <use style="stroke:#000000;stroke-width:0.8;" x="249.992275" xlink:href="#md10d7cf9f2" y="256.32"/>
      </g>
     </g>
     <g id="text_4">
      <!-- 75 -->
      <defs>
       <path d="M 8.203125 72.90625 
L 55.078125 72.90625 
L 55.078125 68.703125 
L 28.609375 0 
L 18.3125 0 
L 43.21875 64.59375 
L 8.203125 64.59375 
z
" id="DejaVuSans-55"/>
      </defs>
      <g transform="translate(243.629775 270.918437)scale(0.1 -0.1)">
       <use xlink:href="#DejaVuSans-55"/>
       <use x="63.623047" xlink:href="#DejaVuSans-53"/>
      </g>
     </g>
    </g>
    <g id="xtick_5">
     <g id="line2d_5">
      <g>
       <use style="stroke:#000000;stroke-width:0.8;" x="302.559397" xlink:href="#md10d7cf9f2" y="256.32"/>
      </g>
     </g>
     <g id="text_5">
      <!-- 100 -->
      <defs>
       <path d="M 12.40625 8.296875 
L 28.515625 8.296875 
L 28.515625 63.921875 
L 10.984375 60.40625 
L 10.984375 69.390625 
L 28.421875 72.90625 
L 38.28125 72.90625 
L 38.28125 8.296875 
L 54.390625 8.296875 
L 54.390625 0 
L 12.40625 0 
z
" id="DejaVuSans-49"/>
      </defs>
      <g transform="translate(293.015647 270.918437)scale(0.1 -0.1)">
       <use xlink:href="#DejaVuSans-49"/>
       <use x="63.623047" xlink:href="#DejaVuSans-48"/>
       <use x="127.246094" xlink:href="#DejaVuSans-48"/>
      </g>
     </g>
    </g>
    <g id="xtick_6">
     <g id="line2d_6">
      <g>
       <use style="stroke:#000000;stroke-width:0.8;" x="355.126519" xlink:href="#md10d7cf9f2" y="256.32"/>
      </g>
     </g>
     <g id="text_6">
      <!-- 125 -->
      <g transform="translate(345.582769 270.918437)scale(0.1 -0.1)">
       <use xlink:href="#DejaVuSans-49"/>
       <use x="63.623047" xlink:href="#DejaVuSans-50"/>
       <use x="127.246094" xlink:href="#DejaVuSans-53"/>
      </g>
     </g>
    </g>
    <g id="xtick_7">
     <g id="line2d_7">
      <g>
       <use style="stroke:#000000;stroke-width:0.8;" x="407.693641" xlink:href="#md10d7cf9f2" y="256.32"/>
      </g>
     </g>
     <g id="text_7">
      <!-- 150 -->
      <g transform="translate(398.149891 270.918437)scale(0.1 -0.1)">
       <use xlink:href="#DejaVuSans-49"/>
       <use x="63.623047" xlink:href="#DejaVuSans-53"/>
       <use x="127.246094" xlink:href="#DejaVuSans-48"/>
      </g>
     </g>
    </g>
    <g id="xtick_8">
     <g id="line2d_8">
      <g>
       <use style="stroke:#000000;stroke-width:0.8;" x="460.260763" xlink:href="#md10d7cf9f2" y="256.32"/>
      </g>
     </g>
     <g id="text_8">
      <!-- 175 -->
      <g transform="translate(450.717013 270.918437)scale(0.1 -0.1)">
       <use xlink:href="#DejaVuSans-49"/>
       <use x="63.623047" xlink:href="#DejaVuSans-55"/>
       <use x="127.246094" xlink:href="#DejaVuSans-53"/>
      </g>
     </g>
    </g>
    <g id="xtick_9">
     <g id="line2d_9">
      <g>
       <use style="stroke:#000000;stroke-width:0.8;" x="512.827885" xlink:href="#md10d7cf9f2" y="256.32"/>
      </g>
     </g>
     <g id="text_9">
      <!-- 200 -->
      <g transform="translate(503.284135 270.918437)scale(0.1 -0.1)">
       <use xlink:href="#DejaVuSans-50"/>
       <use x="63.623047" xlink:href="#DejaVuSans-48"/>
       <use x="127.246094" xlink:href="#DejaVuSans-48"/>
      </g>
     </g>
    </g>
   </g>
   <g id="matplotlib.axis_2">
    <g id="ytick_1">
     <g id="line2d_10">
      <defs>
       <path d="M 0 0 
L -3.5 0 
" id="m33cc25e18a" style="stroke:#000000;stroke-width:0.8;"/>
      </defs>
      <g>
       <use style="stroke:#000000;stroke-width:0.8;" x="72" xlink:href="#m33cc25e18a" y="246.24"/>
      </g>
     </g>
     <g id="text_10">
      <!-- 0 -->
      <g transform="translate(58.6375 250.039219)scale(0.1 -0.1)">
       <use xlink:href="#DejaVuSans-48"/>
      </g>
     </g>
    </g>
    <g id="ytick_2">
     <g id="line2d_11">
      <g>
       <use style="stroke:#000000;stroke-width:0.8;" x="72" xlink:href="#m33cc25e18a" y="209.585455"/>
      </g>
     </g>
     <g id="text_11">
      <!-- 10 -->
      <g transform="translate(52.275 213.384673)scale(0.1 -0.1)">
       <use xlink:href="#DejaVuSans-49"/>
       <use x="63.623047" xlink:href="#DejaVuSans-48"/>
      </g>
     </g>
    </g>
    <g id="ytick_3">
     <g id="line2d_12">
      <g>
       <use style="stroke:#000000;stroke-width:0.8;" x="72" xlink:href="#m33cc25e18a" y="172.930909"/>
      </g>
     </g>
     <g id="text_12">
      <!-- 20 -->
      <g transform="translate(52.275 176.730128)scale(0.1 -0.1)">
       <use xlink:href="#DejaVuSans-50"/>
       <use x="63.623047" xlink:href="#DejaVuSans-48"/>
      </g>
     </g>
    </g>
    <g id="ytick_4">
     <g id="line2d_13">
      <g>
       <use style="stroke:#000000;stroke-width:0.8;" x="72" xlink:href="#m33cc25e18a" y="136.276364"/>
      </g>
     </g>
     <g id="text_13">
      <!-- 30 -->
      <defs>
       <path d="M 40.578125 39.3125 
Q 47.65625 37.796875 51.625 33 
Q 55.609375 28.21875 55.609375 21.1875 
Q 55.609375 10.40625 48.1875 4.484375 
Q 40.765625 -1.421875 27.09375 -1.421875 
Q 22.515625 -1.421875 17.65625 -0.515625 
Q 12.796875 0.390625 7.625 2.203125 
L 7.625 11.71875 
Q 11.71875 9.328125 16.59375 8.109375 
Q 21.484375 6.890625 26.8125 6.890625 
Q 36.078125 6.890625 40.9375 10.546875 
Q 45.796875 14.203125 45.796875 21.1875 
Q 45.796875 27.640625 41.28125 31.265625 
Q 36.765625 34.90625 28.71875 34.90625 
L 20.21875 34.90625 
L 20.21875 43.015625 
L 29.109375 43.015625 
Q 36.375 43.015625 40.234375 45.921875 
Q 44.09375 48.828125 44.09375 54.296875 
Q 44.09375 59.90625 40.109375 62.90625 
Q 36.140625 65.921875 28.71875 65.921875 
Q 24.65625 65.921875 20.015625 65.03125 
Q 15.375 64.15625 9.8125 62.3125 
L 9.8125 71.09375 
Q 15.4375 72.65625 20.34375 73.4375 
Q 25.25 74.21875 29.59375 74.21875 
Q 40.828125 74.21875 47.359375 69.109375 
Q 53.90625 64.015625 53.90625 55.328125 
Q 53.90625 49.265625 50.4375 45.09375 
Q 46.96875 40.921875 40.578125 39.3125 
z
" id="DejaVuSans-51"/>
      </defs>
      <g transform="translate(52.275 140.075582)scale(0.1 -0.1)">
       <use xlink:href="#DejaVuSans-51"/>
       <use x="63.623047" xlink:href="#DejaVuSans-48"/>
      </g>
     </g>
    </g>
    <g id="ytick_5">
     <g id="line2d_14">
      <g>
       <use style="stroke:#000000;stroke-width:0.8;" x="72" xlink:href="#m33cc25e18a" y="99.621818"/>
      </g>
     </g>
     <g id="text_14">
      <!-- 40 -->
      <defs>
       <path d="M 37.796875 64.3125 
L 12.890625 25.390625 
L 37.796875 25.390625 
z
M 35.203125 72.90625 
L 47.609375 72.90625 
L 47.609375 25.390625 
L 58.015625 25.390625 
L 58.015625 17.1875 
L 47.609375 17.1875 
L 47.609375 0 
L 37.796875 0 
L 37.796875 17.1875 
L 4.890625 17.1875 
L 4.890625 26.703125 
z
" id="DejaVuSans-52"/>
      </defs>
      <g transform="translate(52.275 103.421037)scale(0.1 -0.1)">
       <use xlink:href="#DejaVuSans-52"/>
       <use x="63.623047" xlink:href="#DejaVuSans-48"/>
      </g>
     </g>
    </g>
    <g id="ytick_6">
     <g id="line2d_15">
      <g>
       <use style="stroke:#000000;stroke-width:0.8;" x="72" xlink:href="#m33cc25e18a" y="62.967273"/>
      </g>
     </g>
     <g id="text_15">
      <!-- 50 -->
      <g transform="translate(52.275 66.766491)scale(0.1 -0.1)">
       <use xlink:href="#DejaVuSans-53"/>
       <use x="63.623047" xlink:href="#DejaVuSans-48"/>
      </g>
     </g>
    </g>
   </g>
   <g id="LineCollection_1">
    <path clip-path="url(#p433ecb026e)" d="M 281.532548 246.24 
L 281.532548 44.64 
" style="fill:none;stroke:#00bfbf;stroke-dasharray:5.55,2.4;stroke-dashoffset:0;stroke-width:1.5;"/>
   </g>
   <g id="LineCollection_2">
    <path clip-path="url(#p433ecb026e)" d="M 329.894301 246.24 
L 329.894301 44.64 
" style="fill:none;stroke:#00bfbf;stroke-dasharray:5.55,2.4;stroke-dashoffset:0;stroke-width:1.5;"/>
   </g>
   <g id="line2d_16">
    <path clip-path="url(#p433ecb026e)" d="M 92.290909 110.618182 
L 102.804333 110.618182 
L 107.009703 103.287273 
L 109.112388 103.287273 
L 111.215073 106.952727 
L 113.317758 106.952727 
L 115.420443 103.287273 
L 136.447292 103.287273 
L 138.549976 106.952727 
L 186.911729 106.952727 
L 189.014414 95.956364 
L 201.630523 95.956364 
L 203.733208 99.621818 
L 205.835893 106.952727 
L 218.452002 106.952727 
L 220.554687 103.287273 
L 222.657372 95.956364 
L 224.760057 95.956364 
L 226.862741 88.625455 
L 228.965426 88.625455 
L 231.068111 92.290909 
L 233.170796 92.290909 
L 237.376166 84.96 
L 239.478851 92.290909 
L 243.68422 92.290909 
L 245.786905 88.625455 
L 260.505699 88.625455 
L 262.608384 92.290909 
L 266.813754 92.290909 
L 268.916439 95.956364 
L 275.224494 95.956364 
L 277.327179 92.290909 
L 279.429863 92.290909 
L 281.532548 95.956364 
L 283.635233 95.956364 
L 285.737918 132.610909 
L 287.840603 125.28 
L 292.045973 125.28 
L 294.148658 117.949091 
L 296.251342 114.283636 
L 298.354027 106.952727 
L 302.559397 106.952727 
L 304.662082 110.618182 
L 313.072821 110.618182 
L 315.175506 114.283636 
L 317.278191 114.283636 
L 321.483561 106.952727 
L 325.688931 106.952727 
L 327.791616 99.621818 
L 359.331889 99.621818 
L 361.434574 95.956364 
L 365.639943 95.956364 
L 367.742628 103.287273 
L 369.845313 99.621818 
L 371.947998 92.290909 
L 374.050683 95.956364 
L 388.769477 95.956364 
L 390.872162 92.290909 
L 392.974847 99.621818 
L 397.180217 99.621818 
L 399.282902 110.618182 
L 401.385586 110.618182 
L 403.488271 103.287273 
L 405.590956 103.287273 
L 407.693641 95.956364 
L 409.796326 95.956364 
L 411.899011 99.621818 
L 416.104381 99.621818 
L 422.412435 88.625455 
L 424.51512 92.290909 
L 426.617805 88.625455 
L 428.72049 88.625455 
L 430.823175 81.294545 
L 435.028545 73.963636 
L 447.644654 73.963636 
L 449.747339 70.298182 
L 451.850024 70.298182 
L 453.952708 66.632727 
L 456.055393 66.632727 
L 458.158078 55.636364 
L 462.363448 55.636364 
L 466.568818 62.967273 
L 472.876872 62.967273 
L 474.979557 59.301818 
L 477.082242 51.970909 
L 498.109091 51.970909 
L 498.109091 51.970909 
" style="fill:none;stroke:#ff0000;stroke-linecap:square;stroke-width:1.5;"/>
   </g>
   <g id="line2d_17">
    <path clip-path="url(#p433ecb026e)" d="M 92.290909 109.775325 
L 94.393594 109.891784 
L 102.804333 109.78296 
L 104.907018 110.358998 
L 107.009703 108.239056 
L 109.112388 104.816453 
L 111.215073 103.900173 
L 113.317758 105.874754 
L 115.420443 106.662002 
L 117.523128 104.710275 
L 119.625813 103.956255 
L 121.728497 103.51805 
L 123.831182 103.316314 
L 128.036552 103.347075 
L 134.344607 102.679027 
L 136.447292 102.70231 
L 138.549976 102.844156 
L 140.652661 105.03038 
L 142.755346 106.100531 
L 144.858031 106.868327 
L 146.960716 106.837889 
L 157.47414 106.148391 
L 159.576825 106.412879 
L 163.782195 106.453272 
L 165.88488 106.167396 
L 170.09025 106.081933 
L 174.295619 106.129895 
L 176.398304 106.412879 
L 180.603674 106.453272 
L 182.706359 106.167396 
L 184.809044 106.208658 
L 186.911729 106.094938 
L 189.014414 94.998624 
L 191.117098 95.468675 
L 193.219783 95.78283 
L 195.322468 95.580929 
L 197.425153 94.883302 
L 199.527838 94.676999 
L 201.630523 94.642738 
L 203.733208 98.5577 
L 205.835893 107.318697 
L 207.938577 106.938659 
L 210.041262 105.264357 
L 212.143947 105.860114 
L 214.246632 105.887766 
L 216.349317 106.180343 
L 218.452002 106.009881 
L 220.554687 102.980449 
L 222.657372 95.96295 
L 224.760057 96.62124 
L 226.862741 87.740636 
L 228.965426 89.401768 
L 231.068111 91.99312 
L 233.170796 92.818625 
L 235.273481 89.997119 
L 237.376166 84.34534 
L 239.478851 92.412675 
L 241.581536 92.122152 
L 243.68422 93.28387 
L 245.786905 90.140735 
L 247.88959 88.324913 
L 249.992275 87.60688 
L 252.09496 87.224903 
L 254.197645 87.859067 
L 256.30033 88.212431 
L 258.403015 87.489677 
L 260.505699 87.489677 
L 262.608384 91.591364 
L 264.711069 91.591364 
L 266.813754 90.876813 
L 268.916439 94.608492 
L 271.019124 93.829612 
L 273.121809 93.624328 
L 275.224494 94.181173 
L 277.327179 92.006378 
L 279.429863 91.131819 
L 281.532548 90.554719 
L 283.635233 89.791179 
L 287.840603 89.459492 
L 294.148658 89.374344 
L 298.354027 89.374344 
L 300.456712 89.577615 
L 302.559397 89.486587 
L 308.867452 90.041739 
L 313.072821 90.026098 
L 315.175506 95.708187 
L 317.278191 100.447924 
L 319.380876 100.501168 
L 323.586246 97.87528 
L 325.688931 97.35152 
L 327.791616 99.539785 
L 334.09967 99.555708 
L 338.30504 99.555708 
L 340.407725 99.519053 
L 342.51041 99.152508 
L 348.818464 99.152508 
L 350.921149 98.999948 
L 353.023834 99.236469 
L 355.126519 99.249419 
L 357.229204 99.057998 
L 359.331889 99.154216 
L 361.434574 95.435913 
L 363.537259 95.32246 
L 365.639943 94.546824 
L 367.742628 100.759099 
L 369.845313 97.370005 
L 371.947998 92.462691 
L 374.050683 94.028107 
L 376.153368 95.098941 
L 378.256053 95.253586 
L 380.358738 91.764916 
L 382.461423 95.712186 
L 384.564107 97.124342 
L 386.666792 97.490015 
L 388.769477 96.633065 
L 390.872162 91.660231 
L 392.974847 99.643591 
L 395.077532 100.002549 
L 397.180217 98.785171 
L 399.282902 109.627446 
L 401.385586 111.305455 
L 403.488271 102.326465 
L 405.590956 103.820963 
L 407.693641 94.920994 
L 409.796326 95.666672 
L 411.899011 99.465772 
L 416.104381 98.617029 
L 418.207065 97.194829 
L 420.30975 91.611187 
L 422.412435 87.590085 
L 424.51512 92.001217 
L 426.617805 88.469409 
L 428.72049 89.503514 
L 430.823175 80.289756 
L 432.92586 77.93854 
L 435.028545 74.882335 
L 439.233914 74.387634 
L 441.336599 73.761168 
L 443.439284 73.41461 
L 447.644654 73.60459 
L 449.747339 70.087455 
L 451.850024 70.033001 
L 453.952708 66.795107 
L 456.055393 66.511093 
L 458.158078 55.833004 
L 460.260763 55.715966 
L 462.363448 55.753413 
L 464.466133 58.594862 
L 466.568818 62.576304 
L 470.774187 62.207101 
L 472.876872 61.73005 
L 474.979557 58.469965 
L 477.082242 51.189518 
L 479.184927 53.206277 
L 481.287612 52.654553 
L 483.390297 51.306776 
L 485.492982 51.737896 
L 487.595667 51.777043 
L 489.698351 54.348396 
L 491.801036 51.970909 
L 498.109091 51.970909 
L 498.109091 51.970909 
" style="fill:none;stroke:#008000;stroke-linecap:square;stroke-width:1.5;"/>
   </g>
   <g id="line2d_18">
    <path clip-path="url(#p433ecb026e)" d="M 92.290909 246.029286 
L 100.701649 246.037592 
L 102.804333 246.031195 
L 104.907018 245.388432 
L 107.009703 245.002054 
L 109.112388 245.857705 
L 111.215073 245.476862 
L 113.317758 245.970507 
L 115.420443 245.396318 
L 117.523128 245.884249 
L 121.728497 246.182306 
L 128.036552 246.22505 
L 136.447292 246.093759 
L 138.549976 245.212857 
L 140.652661 245.759413 
L 144.858031 246.2189 
L 153.268771 246.07927 
L 157.47414 246.038916 
L 161.67951 246.117033 
L 195.322468 246.146141 
L 197.425153 245.971735 
L 201.630523 245.911594 
L 203.733208 245.97397 
L 207.938577 246.236483 
L 210.041262 245.817907 
L 212.143947 245.966847 
L 218.452002 246.004288 
L 222.657372 246.238353 
L 226.862741 246.018795 
L 233.170796 246.108071 
L 235.273481 245.897084 
L 239.478851 246.209558 
L 241.581536 246.197811 
L 245.786905 245.86118 
L 247.88959 246.164865 
L 252.09496 245.889862 
L 256.30033 246.136744 
L 258.403015 245.956056 
L 268.916439 245.903032 
L 271.019124 245.708312 
L 273.121809 245.656991 
L 275.224494 245.796202 
L 277.327179 246.168867 
L 279.429863 245.950227 
L 281.532548 244.889589 
L 283.635233 244.698704 
L 285.737918 214.409339 
L 287.840603 217.124873 
L 289.943288 216.193142 
L 292.045973 217.105559 
L 296.251342 220.76904 
L 298.354027 221.685404 
L 302.559397 221.713465 
L 306.764767 218.105767 
L 310.970137 218.181002 
L 313.072821 219.099252 
L 315.175506 219.60341 
L 317.278191 220.788345 
L 319.380876 222.634383 
L 321.483561 224.140608 
L 323.586246 223.810638 
L 325.688931 223.679698 
L 327.791616 246.219492 
L 363.537259 246.081524 
L 367.742628 245.607957 
L 369.845313 245.677047 
L 371.947998 246.197055 
L 374.050683 245.757936 
L 376.153368 246.025644 
L 378.256053 246.064306 
L 380.358738 245.192138 
L 382.461423 246.178956 
L 384.564107 245.948005 
L 386.666792 245.856587 
L 388.769477 246.070825 
L 390.872162 246.08233 
L 392.974847 246.234557 
L 399.282902 245.992316 
L 401.385586 246.068182 
L 403.488271 245.999798 
L 405.590956 246.106577 
L 407.693641 245.981158 
L 409.796326 246.167577 
L 411.899011 246.200989 
L 418.207065 245.930384 
L 420.30975 246.07007 
L 422.412435 245.981158 
L 424.51512 246.167577 
L 426.617805 246.200989 
L 428.72049 246.020485 
L 430.823175 245.988803 
L 432.92586 246.162638 
L 435.028545 246.010325 
L 441.336599 246.189383 
L 445.541969 246.114419 
L 456.055393 246.209591 
L 470.774187 246.049957 
L 472.876872 245.930694 
L 477.082242 246.044652 
L 479.184927 245.931158 
L 481.287612 246.069089 
L 487.595667 246.191534 
L 489.698351 245.645628 
L 491.801036 246.24 
L 498.109091 246.24 
L 498.109091 246.24 
" style="fill:none;stroke:#0000ff;stroke-linecap:square;stroke-width:1.5;"/>
   </g>
   <g id="patch_3">
    <path d="M 72 256.32 
L 72 34.56 
" style="fill:none;stroke:#000000;stroke-linecap:square;stroke-linejoin:miter;stroke-width:0.8;"/>
   </g>
   <g id="patch_4">
    <path d="M 518.4 256.32 
L 518.4 34.56 
" style="fill:none;stroke:#000000;stroke-linecap:square;stroke-linejoin:miter;stroke-width:0.8;"/>
   </g>
   <g id="patch_5">
    <path d="M 72 256.32 
L 518.4 256.32 
" style="fill:none;stroke:#000000;stroke-linecap:square;stroke-linejoin:miter;stroke-width:0.8;"/>
   </g>
   <g id="patch_6">
    <path d="M 72 34.56 
L 518.4 34.56 
" style="fill:none;stroke:#000000;stroke-linecap:square;stroke-linejoin:miter;stroke-width:0.8;"/>
   </g>
   <g id="legend_1">
    <g id="patch_7">
     <path d="M 79 86.594375 
L 145.439063 86.594375 
Q 147.439063 86.594375 147.439063 84.594375 
L 147.439063 41.56 
Q 147.439063 39.56 145.439063 39.56 
L 79 39.56 
Q 77 39.56 77 41.56 
L 77 84.594375 
Q 77 86.594375 79 86.594375 
z
" style="fill:#ffffff;opacity:0.8;stroke:#cccccc;stroke-linejoin:miter;"/>
    </g>
    <g id="line2d_19">
     <path d="M 81 47.658438 
L 101 47.658438 
" style="fill:none;stroke:#ff0000;stroke-linecap:square;stroke-width:1.5;"/>
    </g>
    <g id="line2d_20"/>
    <g id="text_16">
     <!-- True -->
     <defs>
      <path d="M -0.296875 72.90625 
L 61.375 72.90625 
L 61.375 64.59375 
L 35.5 64.59375 
L 35.5 0 
L 25.59375 0 
L 25.59375 64.59375 
L -0.296875 64.59375 
z
" id="DejaVuSans-84"/>
      <path d="M 41.109375 46.296875 
Q 39.59375 47.171875 37.8125 47.578125 
Q 36.03125 48 33.890625 48 
Q 26.265625 48 22.1875 43.046875 
Q 18.109375 38.09375 18.109375 28.8125 
L 18.109375 0 
L 9.078125 0 
L 9.078125 54.6875 
L 18.109375 54.6875 
L 18.109375 46.1875 
Q 20.953125 51.171875 25.484375 53.578125 
Q 30.03125 56 36.53125 56 
Q 37.453125 56 38.578125 55.875 
Q 39.703125 55.765625 41.0625 55.515625 
z
" id="DejaVuSans-114"/>
      <path d="M 8.5 21.578125 
L 8.5 54.6875 
L 17.484375 54.6875 
L 17.484375 21.921875 
Q 17.484375 14.15625 20.5 10.265625 
Q 23.53125 6.390625 29.59375 6.390625 
Q 36.859375 6.390625 41.078125 11.03125 
Q 45.3125 15.671875 45.3125 23.6875 
L 45.3125 54.6875 
L 54.296875 54.6875 
L 54.296875 0 
L 45.3125 0 
L 45.3125 8.40625 
Q 42.046875 3.421875 37.71875 1 
Q 33.40625 -1.421875 27.6875 -1.421875 
Q 18.265625 -1.421875 13.375 4.4375 
Q 8.5 10.296875 8.5 21.578125 
z
M 31.109375 56 
z
" id="DejaVuSans-117"/>
      <path d="M 56.203125 29.59375 
L 56.203125 25.203125 
L 14.890625 25.203125 
Q 15.484375 15.921875 20.484375 11.0625 
Q 25.484375 6.203125 34.421875 6.203125 
Q 39.59375 6.203125 44.453125 7.46875 
Q 49.3125 8.734375 54.109375 11.28125 
L 54.109375 2.78125 
Q 49.265625 0.734375 44.1875 -0.34375 
Q 39.109375 -1.421875 33.890625 -1.421875 
Q 20.796875 -1.421875 13.15625 6.1875 
Q 5.515625 13.8125 5.515625 26.8125 
Q 5.515625 40.234375 12.765625 48.109375 
Q 20.015625 56 32.328125 56 
Q 43.359375 56 49.78125 48.890625 
Q 56.203125 41.796875 56.203125 29.59375 
z
M 47.21875 32.234375 
Q 47.125 39.59375 43.09375 43.984375 
Q 39.0625 48.390625 32.421875 48.390625 
Q 24.90625 48.390625 20.390625 44.140625 
Q 15.875 39.890625 15.1875 32.171875 
z
" id="DejaVuSans-101"/>
     </defs>
     <g transform="translate(109 51.158438)scale(0.1 -0.1)">
      <use xlink:href="#DejaVuSans-84"/>
      <use x="46.333984" xlink:href="#DejaVuSans-114"/>
      <use x="87.447266" xlink:href="#DejaVuSans-117"/>
      <use x="150.826172" xlink:href="#DejaVuSans-101"/>
     </g>
    </g>
    <g id="line2d_21">
     <path d="M 81 62.336563 
L 101 62.336563 
" style="fill:none;stroke:#008000;stroke-linecap:square;stroke-width:1.5;"/>
    </g>
    <g id="line2d_22"/>
    <g id="text_17">
     <!-- Predict -->
     <defs>
      <path d="M 19.671875 64.796875 
L 19.671875 37.40625 
L 32.078125 37.40625 
Q 38.96875 37.40625 42.71875 40.96875 
Q 46.484375 44.53125 46.484375 51.125 
Q 46.484375 57.671875 42.71875 61.234375 
Q 38.96875 64.796875 32.078125 64.796875 
z
M 9.8125 72.90625 
L 32.078125 72.90625 
Q 44.34375 72.90625 50.609375 67.359375 
Q 56.890625 61.8125 56.890625 51.125 
Q 56.890625 40.328125 50.609375 34.8125 
Q 44.34375 29.296875 32.078125 29.296875 
L 19.671875 29.296875 
L 19.671875 0 
L 9.8125 0 
z
" id="DejaVuSans-80"/>
      <path d="M 45.40625 46.390625 
L 45.40625 75.984375 
L 54.390625 75.984375 
L 54.390625 0 
L 45.40625 0 
L 45.40625 8.203125 
Q 42.578125 3.328125 38.25 0.953125 
Q 33.9375 -1.421875 27.875 -1.421875 
Q 17.96875 -1.421875 11.734375 6.484375 
Q 5.515625 14.40625 5.515625 27.296875 
Q 5.515625 40.1875 11.734375 48.09375 
Q 17.96875 56 27.875 56 
Q 33.9375 56 38.25 53.625 
Q 42.578125 51.265625 45.40625 46.390625 
z
M 14.796875 27.296875 
Q 14.796875 17.390625 18.875 11.75 
Q 22.953125 6.109375 30.078125 6.109375 
Q 37.203125 6.109375 41.296875 11.75 
Q 45.40625 17.390625 45.40625 27.296875 
Q 45.40625 37.203125 41.296875 42.84375 
Q 37.203125 48.484375 30.078125 48.484375 
Q 22.953125 48.484375 18.875 42.84375 
Q 14.796875 37.203125 14.796875 27.296875 
z
" id="DejaVuSans-100"/>
      <path d="M 9.421875 54.6875 
L 18.40625 54.6875 
L 18.40625 0 
L 9.421875 0 
z
M 9.421875 75.984375 
L 18.40625 75.984375 
L 18.40625 64.59375 
L 9.421875 64.59375 
z
" id="DejaVuSans-105"/>
      <path d="M 48.78125 52.59375 
L 48.78125 44.1875 
Q 44.96875 46.296875 41.140625 47.34375 
Q 37.3125 48.390625 33.40625 48.390625 
Q 24.65625 48.390625 19.8125 42.84375 
Q 14.984375 37.3125 14.984375 27.296875 
Q 14.984375 17.28125 19.8125 11.734375 
Q 24.65625 6.203125 33.40625 6.203125 
Q 37.3125 6.203125 41.140625 7.25 
Q 44.96875 8.296875 48.78125 10.40625 
L 48.78125 2.09375 
Q 45.015625 0.34375 40.984375 -0.53125 
Q 36.96875 -1.421875 32.421875 -1.421875 
Q 20.0625 -1.421875 12.78125 6.34375 
Q 5.515625 14.109375 5.515625 27.296875 
Q 5.515625 40.671875 12.859375 48.328125 
Q 20.21875 56 33.015625 56 
Q 37.15625 56 41.109375 55.140625 
Q 45.0625 54.296875 48.78125 52.59375 
z
" id="DejaVuSans-99"/>
      <path d="M 18.3125 70.21875 
L 18.3125 54.6875 
L 36.8125 54.6875 
L 36.8125 47.703125 
L 18.3125 47.703125 
L 18.3125 18.015625 
Q 18.3125 11.328125 20.140625 9.421875 
Q 21.96875 7.515625 27.59375 7.515625 
L 36.8125 7.515625 
L 36.8125 0 
L 27.59375 0 
Q 17.1875 0 13.234375 3.875 
Q 9.28125 7.765625 9.28125 18.015625 
L 9.28125 47.703125 
L 2.6875 47.703125 
L 2.6875 54.6875 
L 9.28125 54.6875 
L 9.28125 70.21875 
z
" id="DejaVuSans-116"/>
     </defs>
     <g transform="translate(109 65.836563)scale(0.1 -0.1)">
      <use xlink:href="#DejaVuSans-80"/>
      <use x="58.552734" xlink:href="#DejaVuSans-114"/>
      <use x="97.416016" xlink:href="#DejaVuSans-101"/>
      <use x="158.939453" xlink:href="#DejaVuSans-100"/>
      <use x="222.416016" xlink:href="#DejaVuSans-105"/>
      <use x="250.199219" xlink:href="#DejaVuSans-99"/>
      <use x="305.179688" xlink:href="#DejaVuSans-116"/>
     </g>
    </g>
    <g id="line2d_23">
     <path d="M 81 77.014688 
L 101 77.014688 
" style="fill:none;stroke:#0000ff;stroke-linecap:square;stroke-width:1.5;"/>
    </g>
    <g id="line2d_24"/>
    <g id="text_18">
     <!-- Score -->
     <defs>
      <path d="M 53.515625 70.515625 
L 53.515625 60.890625 
Q 47.90625 63.578125 42.921875 64.890625 
Q 37.9375 66.21875 33.296875 66.21875 
Q 25.25 66.21875 20.875 63.09375 
Q 16.5 59.96875 16.5 54.203125 
Q 16.5 49.359375 19.40625 46.890625 
Q 22.3125 44.4375 30.421875 42.921875 
L 36.375 41.703125 
Q 47.40625 39.59375 52.65625 34.296875 
Q 57.90625 29 57.90625 20.125 
Q 57.90625 9.515625 50.796875 4.046875 
Q 43.703125 -1.421875 29.984375 -1.421875 
Q 24.8125 -1.421875 18.96875 -0.25 
Q 13.140625 0.921875 6.890625 3.21875 
L 6.890625 13.375 
Q 12.890625 10.015625 18.65625 8.296875 
Q 24.421875 6.59375 29.984375 6.59375 
Q 38.421875 6.59375 43.015625 9.90625 
Q 47.609375 13.234375 47.609375 19.390625 
Q 47.609375 24.75 44.3125 27.78125 
Q 41.015625 30.8125 33.5 32.328125 
L 27.484375 33.5 
Q 16.453125 35.6875 11.515625 40.375 
Q 6.59375 45.0625 6.59375 53.421875 
Q 6.59375 63.09375 13.40625 68.65625 
Q 20.21875 74.21875 32.171875 74.21875 
Q 37.3125 74.21875 42.625 73.28125 
Q 47.953125 72.359375 53.515625 70.515625 
z
" id="DejaVuSans-83"/>
      <path d="M 30.609375 48.390625 
Q 23.390625 48.390625 19.1875 42.75 
Q 14.984375 37.109375 14.984375 27.296875 
Q 14.984375 17.484375 19.15625 11.84375 
Q 23.34375 6.203125 30.609375 6.203125 
Q 37.796875 6.203125 41.984375 11.859375 
Q 46.1875 17.53125 46.1875 27.296875 
Q 46.1875 37.015625 41.984375 42.703125 
Q 37.796875 48.390625 30.609375 48.390625 
z
M 30.609375 56 
Q 42.328125 56 49.015625 48.375 
Q 55.71875 40.765625 55.71875 27.296875 
Q 55.71875 13.875 49.015625 6.21875 
Q 42.328125 -1.421875 30.609375 -1.421875 
Q 18.84375 -1.421875 12.171875 6.21875 
Q 5.515625 13.875 5.515625 27.296875 
Q 5.515625 40.765625 12.171875 48.375 
Q 18.84375 56 30.609375 56 
z
" id="DejaVuSans-111"/>
     </defs>
     <g transform="translate(109 80.514688)scale(0.1 -0.1)">
      <use xlink:href="#DejaVuSans-83"/>
      <use x="63.476562" xlink:href="#DejaVuSans-99"/>
      <use x="118.457031" xlink:href="#DejaVuSans-111"/>
      <use x="179.638672" xlink:href="#DejaVuSans-114"/>
      <use x="218.501953" xlink:href="#DejaVuSans-101"/>
     </g>
    </g>
   </g>
  </g>
 </g>
 <defs>
  <clipPath id="p433ecb026e">
   <rect height="221.76" width="446.4" x="72" y="34.56"/>
  </clipPath>
 </defs>
</svg>
